<svg width="120" height="148" viewBox="0 0 120 148" fill="none" xmlns="http://www.w3.org/2000/svg">
<path d="M117.049 27.2139H81.387V16.8329C81.387 16.2041 81.1372 15.601 80.6925 15.1564C80.2479 14.7117 79.6448 14.4619 79.016 14.4619H73.86V8.55591C73.86 7.92708 73.6102 7.32392 73.1655 6.87927C72.7209 6.43462 72.1178 6.18494 71.489 6.18494H62.371V2.43689C62.371 1.80806 62.1212 1.20502 61.6765 0.760376C61.2319 0.315727 60.6288 0.065918 60 0.065918C59.3712 0.065918 58.7681 0.315727 58.3234 0.760376C57.8788 1.20502 57.629 1.80806 57.629 2.43689V6.18494H48.511C47.8822 6.18494 47.2791 6.43462 46.8344 6.87927C46.3898 7.32392 46.14 7.92708 46.14 8.55591V14.4629H40.9839C40.6726 14.4629 40.3643 14.5242 40.0767 14.6433C39.789 14.7625 39.5276 14.9372 39.3074 15.1573C39.0873 15.3775 38.9126 15.6389 38.7935 15.9265C38.6743 16.2142 38.613 16.5225 38.613 16.8339V27.2148H2.95099C2.63962 27.2148 2.3313 27.2762 2.04364 27.3954C1.75598 27.5145 1.49458 27.6891 1.27441 27.9093C1.05425 28.1295 0.879591 28.3909 0.760437 28.6786C0.641283 28.9663 0.579956 29.2746 0.579956 29.5859V110.376C0.579956 111.005 0.829765 111.608 1.27441 112.052C1.71906 112.497 2.32216 112.747 2.95099 112.747H20.466C21.0948 112.747 21.6979 112.497 22.1425 112.052C22.5872 111.608 22.837 111.005 22.837 110.376C22.837 109.747 22.5872 109.144 22.1425 108.699C21.6979 108.255 21.0948 108.005 20.466 108.005H5.32196V31.9559H38.612V77.5209C38.612 78.1497 38.8617 78.7527 39.3064 79.1974C39.751 79.642 40.3541 79.8918 40.983 79.8918C41.6118 79.8918 42.2149 79.642 42.6595 79.1974C43.1042 78.7527 43.3539 78.1497 43.3539 77.5209V19.2039H76.644V75.3458C76.644 75.9747 76.8938 76.5778 77.3384 77.0225C77.7831 77.4671 78.3861 77.7169 79.015 77.7169C79.6438 77.7169 80.2469 77.4671 80.6915 77.0225C81.1362 76.5778 81.386 75.9747 81.386 75.3458V31.9559H114.676V108.001H99.535C98.9061 108.001 98.303 108.251 97.8584 108.695C97.4137 109.14 97.164 109.743 97.164 110.372C97.164 111.001 97.4137 111.604 97.8584 112.048C98.303 112.493 98.9061 112.743 99.535 112.743H117.049C117.678 112.743 118.281 112.493 118.726 112.048C119.17 111.604 119.42 111.001 119.42 110.372V29.5839C119.42 28.9552 119.17 28.3524 118.725 27.908C118.281 27.4635 117.678 27.2139 117.049 27.2139ZM50.882 10.9259H69.119V14.4619H50.882V10.9259ZM35.921 48.1898V39.6898C35.921 39.061 35.6712 38.458 35.2265 38.0133C34.7819 37.5687 34.1788 37.3188 33.55 37.3188H10.386C9.75716 37.3188 9.15406 37.5687 8.70941 38.0133C8.26476 38.458 8.01495 39.061 8.01495 39.6898V48.1898C8.01495 48.8186 8.26476 49.4218 8.70941 49.8665C9.15406 50.3111 9.75716 50.5609 10.386 50.5609H33.549C34.1778 50.5609 34.7809 50.3111 35.2255 49.8665C35.6702 49.4218 35.921 48.8186 35.921 48.1898ZM31.179 45.8188H12.7599V42.0569H31.181L31.179 45.8188ZM113.079 48.5929V39.2828C113.079 38.654 112.829 38.051 112.385 37.6063C111.94 37.1617 111.337 36.9119 110.708 36.9119H85.355C84.7262 36.9119 84.1231 37.1617 83.6784 37.6063C83.2338 38.051 82.9839 38.654 82.9839 39.2828V48.5929C82.9839 49.2217 83.2338 49.8248 83.6784 50.2694C84.1231 50.7141 84.7262 50.9639 85.355 50.9639H110.711C111.34 50.9639 111.943 50.7141 112.388 50.2694C112.832 49.8248 113.082 49.2217 113.082 48.5929H113.079ZM108.337 46.2219H87.726V41.6549H108.34L108.337 46.2219ZM73.95 25.7098C73.95 25.3985 73.8886 25.0902 73.7695 24.8025C73.6503 24.5148 73.4757 24.2535 73.2555 24.0333C73.0353 23.8132 72.774 23.6386 72.4863 23.5194C72.1987 23.4003 71.8903 23.3389 71.579 23.3389H48.418C48.1066 23.3389 47.7983 23.4003 47.5106 23.5194C47.223 23.6386 46.9616 23.8132 46.7414 24.0333C46.5212 24.2535 46.3466 24.5148 46.2275 24.8025C46.1083 25.0902 46.047 25.3985 46.047 25.7098V34.2098C46.047 34.5212 46.1083 34.8295 46.2275 35.1172C46.3466 35.4049 46.5212 35.6663 46.7414 35.8865C46.9616 36.1066 47.223 36.2812 47.5106 36.4004C47.7983 36.5195 48.1066 36.5809 48.418 36.5809H71.581C71.8924 36.5809 72.2007 36.5195 72.4883 36.4004C72.776 36.2812 73.0373 36.1066 73.2575 35.8865C73.4777 35.6663 73.6523 35.4049 73.7715 35.1172C73.8906 34.8295 73.952 34.5212 73.952 34.2098L73.95 25.7098ZM69.2079 31.8439H50.789V28.0759H69.21L69.2079 31.8439ZM46.045 54.0438C46.045 54.3552 46.1063 54.6635 46.2255 54.9512C46.3446 55.2388 46.5193 55.5003 46.7394 55.7205C46.9596 55.9406 47.2209 56.1152 47.5086 56.2344C47.7963 56.3535 48.1046 56.4149 48.416 56.4149H57.25C57.5614 56.4149 57.8696 56.3535 58.1573 56.2344C58.445 56.1152 58.7063 55.9406 58.9265 55.7205C59.1467 55.5003 59.3213 55.2388 59.4405 54.9512C59.5596 54.6635 59.621 54.3552 59.621 54.0438V45.2109C59.621 44.5821 59.3712 43.979 58.9265 43.5343C58.4819 43.0897 57.8788 42.8398 57.25 42.8398H48.416C47.7871 42.8398 47.1841 43.0897 46.7394 43.5343C46.2948 43.979 46.045 44.5821 46.045 45.2109V54.0438ZM50.787 47.5819H54.878V51.6729H50.787V47.5819ZM73.95 45.2109C73.95 44.5821 73.7001 43.979 73.2555 43.5343C72.8108 43.0897 72.2078 42.8398 71.579 42.8398H62.745C62.1162 42.8398 61.5131 43.0897 61.0684 43.5343C60.6238 43.979 60.374 44.5821 60.374 45.2109V54.0438C60.374 54.3552 60.4353 54.6635 60.5544 54.9512C60.6736 55.2388 60.8483 55.5003 61.0684 55.7205C61.2886 55.9406 61.55 56.1152 61.8376 56.2344C62.1253 56.3535 62.4336 56.4149 62.745 56.4149H71.579C71.8903 56.4149 72.1987 56.3535 72.4863 56.2344C72.774 56.1152 73.0353 55.9406 73.2555 55.7205C73.4757 55.5003 73.6503 55.2388 73.7695 54.9512C73.8886 54.6635 73.95 54.3552 73.95 54.0438V45.2109ZM69.2079 51.6729H65.1169V47.5759H69.2079V51.6729ZM46.045 68.3729C46.045 69.0018 46.2948 69.6048 46.7394 70.0494C47.1841 70.4941 47.7871 70.7439 48.416 70.7439H57.25C57.8788 70.7439 58.4819 70.4941 58.9265 70.0494C59.3712 69.6048 59.621 69.0018 59.621 68.3729V59.5388C59.621 58.91 59.3712 58.307 58.9265 57.8623C58.4819 57.4177 57.8788 57.1678 57.25 57.1678H48.416C47.7871 57.1678 47.1841 57.4177 46.7394 57.8623C46.2948 58.307 46.045 58.91 46.045 59.5388V68.3729ZM50.787 61.9109H54.878V66.0018H50.787V61.9109ZM71.579 57.1688H62.745C62.4336 57.1688 62.1253 57.2302 61.8376 57.3494C61.55 57.4685 61.2886 57.6431 61.0684 57.8633C60.8483 58.0834 60.6736 58.3449 60.5544 58.6326C60.4353 58.9202 60.374 59.2286 60.374 59.5399V68.3739C60.374 69.0027 60.6238 69.6058 61.0684 70.0504C61.5131 70.4951 62.1162 70.7449 62.745 70.7449H71.579C72.2078 70.7449 72.8108 70.4951 73.2555 70.0504C73.7001 69.6058 73.95 69.0027 73.95 68.3739V59.5399C73.9505 59.2285 73.8897 58.9199 73.7709 58.632C73.6522 58.344 73.4779 58.0824 73.258 57.8618C73.0381 57.6413 72.7769 57.4661 72.4893 57.3466C72.2017 57.227 71.8934 57.1653 71.582 57.1649L71.579 57.1688ZM69.2079 66.0018H65.1169V61.9109H69.2079V66.0018ZM97.653 58.0659C97.653 57.4371 97.4031 56.8339 96.9585 56.3893C96.5138 55.9446 95.9108 55.6948 95.282 55.6948H86.448C85.8192 55.6948 85.2161 55.9446 84.7714 56.3893C84.3268 56.8339 84.077 57.4371 84.077 58.0659V66.8989C84.077 67.2103 84.1383 67.5186 84.2574 67.8063C84.3766 68.0939 84.5513 68.3553 84.7714 68.5754C84.9916 68.7956 85.253 68.9702 85.5406 69.0894C85.8283 69.2085 86.1366 69.2699 86.448 69.2699H95.282C95.5933 69.2699 95.9017 69.2085 96.1893 69.0894C96.477 68.9702 96.7383 68.7956 96.9585 68.5754C97.1787 68.3553 97.3533 68.0939 97.4725 67.8063C97.5916 67.5186 97.653 67.2103 97.653 66.8989V58.0659ZM92.9109 64.5278H88.8199V60.4369H92.9109V64.5278ZM111.983 58.0659C111.983 57.4371 111.733 56.8339 111.289 56.3893C110.844 55.9446 110.241 55.6948 109.612 55.6948H100.778C100.149 55.6948 99.5461 55.9446 99.1014 56.3893C98.6568 56.8339 98.407 57.4371 98.407 58.0659V66.8989C98.407 67.2103 98.4683 67.5186 98.5875 67.8063C98.7066 68.0939 98.8813 68.3553 99.1014 68.5754C99.3216 68.7956 99.5829 68.9702 99.8706 69.0894C100.158 69.2085 100.467 69.2699 100.778 69.2699H109.612C109.923 69.2699 110.232 69.2085 110.519 69.0894C110.807 68.9702 111.068 68.7956 111.289 68.5754C111.509 68.3553 111.683 68.0939 111.802 67.8063C111.922 67.5186 111.983 67.2103 111.983 66.8989V58.0659ZM107.241 64.5278H103.15V60.4369H107.241V64.5278ZM95.282 70.0278H86.448C85.8192 70.0278 85.2161 70.2776 84.7714 70.7223C84.3268 71.1669 84.077 71.7701 84.077 72.3989V81.2329C84.077 81.8617 84.3268 82.4648 84.7714 82.9094C85.2161 83.3541 85.8192 83.6039 86.448 83.6039H95.282C95.9108 83.6039 96.5138 83.3541 96.9585 82.9094C97.4031 82.4648 97.653 81.8617 97.653 81.2329V72.3989C97.6539 72.0871 97.5933 71.7782 97.4747 71.4899C97.3561 71.2015 97.1818 70.9394 96.9617 70.7185C96.7417 70.4976 96.4802 70.3223 96.1923 70.2026C95.9044 70.0829 95.5958 70.0211 95.284 70.0209L95.282 70.0278ZM92.9109 78.8608H88.8199V74.7699H92.9109V78.8608ZM111.983 72.3989C111.983 71.7701 111.733 71.1669 111.289 70.7223C110.844 70.2776 110.241 70.0278 109.612 70.0278H100.778C100.149 70.0278 99.5461 70.2776 99.1014 70.7223C98.6568 71.1669 98.407 71.7701 98.407 72.3989V81.2329C98.407 81.8617 98.6568 82.4648 99.1014 82.9094C99.5461 83.3541 100.149 83.6039 100.778 83.6039H109.612C110.241 83.6039 110.844 83.3541 111.289 82.9094C111.733 82.4648 111.983 81.8617 111.983 81.2329V72.3989ZM107.241 78.8608H103.15V74.7699H107.241V78.8608ZM97.66 94.2959C97.66 94.9247 97.4102 95.5278 96.9655 95.9724C96.5209 96.4171 95.9178 96.6669 95.289 96.6669C94.6602 96.6669 94.0571 96.4171 93.6124 95.9724C93.1678 95.5278 92.918 94.9247 92.918 94.2959V89.0958H90.949C90.6376 89.0958 90.3293 89.0346 90.0416 88.9154C89.754 88.7963 89.4926 88.6217 89.2724 88.4015C89.0522 88.1813 88.8776 87.9199 88.7585 87.6322C88.6393 87.3445 88.5779 87.0362 88.5779 86.7249C88.5779 86.4135 88.6393 86.1052 88.7585 85.8175C88.8776 85.5298 89.0522 85.2685 89.2724 85.0483C89.4926 84.8282 89.754 84.6535 90.0416 84.5343C90.3293 84.4151 90.6376 84.3539 90.949 84.3539H95.289C95.9178 84.3539 96.5209 84.6037 96.9655 85.0483C97.4102 85.493 97.66 86.096 97.66 86.7249V94.2959ZM109.619 84.3508H100.785C100.156 84.3508 99.553 84.6006 99.1084 85.0453C98.6637 85.4899 98.414 86.0931 98.414 86.7219V95.5549C98.414 96.1838 98.6637 96.7868 99.1084 97.2314C99.553 97.6761 100.156 97.9259 100.785 97.9259H109.619C110.248 97.9259 110.851 97.6761 111.296 97.2314C111.74 96.7868 111.99 96.1838 111.99 95.5549V86.7219C111.99 86.0931 111.74 85.4899 111.296 85.0453C110.851 84.6006 110.248 84.3508 109.619 84.3508ZM107.248 93.1849H103.157V89.0939H107.248V93.1849ZM21.595 58.0629C21.595 57.7515 21.5336 57.4432 21.4145 57.1555C21.2953 56.8679 21.1207 56.6065 20.9005 56.3864C20.6803 56.1662 20.4189 55.9915 20.1313 55.8723C19.8436 55.7532 19.5354 55.6919 19.224 55.6919H10.39C10.0786 55.6919 9.77027 55.7532 9.4826 55.8723C9.19494 55.9915 8.93361 56.1662 8.71344 56.3864C8.49327 56.6065 8.31862 56.8679 8.19946 57.1555C8.08031 57.4432 8.01898 57.7515 8.01898 58.0629V66.8959C8.01898 67.5247 8.26879 68.1277 8.71344 68.5724C9.15809 69.017 9.76113 69.2668 10.39 69.2668H19.224C19.8528 69.2668 20.4559 69.017 20.9005 68.5724C21.3452 68.1277 21.595 67.5247 21.595 66.8959V58.0629ZM16.853 64.5249H12.7599V60.4338H16.851L16.853 64.5249ZM35.925 58.0629C35.925 57.7515 35.8637 57.4432 35.7445 57.1555C35.6254 56.8679 35.4507 56.6065 35.2305 56.3864C35.0104 56.1662 34.749 55.9915 34.4613 55.8723C34.1736 55.7532 33.8653 55.6919 33.554 55.6919H24.72C24.4086 55.6919 24.1003 55.7532 23.8126 55.8723C23.525 55.9915 23.2636 56.1662 23.0434 56.3864C22.8232 56.6065 22.6486 56.8679 22.5295 57.1555C22.4103 57.4432 22.349 57.7515 22.349 58.0629V66.8959C22.349 67.5247 22.5987 68.1277 23.0434 68.5724C23.488 69.017 24.0911 69.2668 24.72 69.2668H33.554C34.1828 69.2668 34.7859 69.017 35.2305 68.5724C35.6752 68.1277 35.925 67.5247 35.925 66.8959V58.0629ZM31.183 64.5249H27.092V60.4338H31.183V64.5249ZM21.595 72.3918C21.595 72.0805 21.5336 71.7722 21.4145 71.4845C21.2953 71.1968 21.1207 70.9355 20.9005 70.7153C20.6803 70.4952 20.4189 70.3206 20.1313 70.2014C19.8436 70.0823 19.5354 70.0209 19.224 70.0209H10.39C10.0786 70.0209 9.77027 70.0823 9.4826 70.2014C9.19494 70.3206 8.93361 70.4952 8.71344 70.7153C8.49327 70.9355 8.31862 71.1968 8.19946 71.4845C8.08031 71.7722 8.01898 72.0805 8.01898 72.3918V81.2258C8.01898 81.8547 8.26879 82.4578 8.71344 82.9025C9.15809 83.3471 9.76113 83.5969 10.39 83.5969H19.224C19.8528 83.5969 20.4559 83.3471 20.9005 82.9025C21.3452 82.4578 21.595 81.8547 21.595 81.2258V72.3918ZM16.853 78.8539H12.7599V74.7629H16.851L16.853 78.8539ZM33.553 70.0209H24.719C24.4076 70.0209 24.0993 70.0823 23.8116 70.2014C23.524 70.3206 23.2626 70.4952 23.0424 70.7153C22.8223 70.9355 22.6476 71.1968 22.5284 71.4845C22.4093 71.7722 22.348 72.0805 22.348 72.3918V81.2258C22.348 81.8547 22.5978 82.4578 23.0424 82.9025C23.4871 83.3471 24.0902 83.5969 24.719 83.5969H33.553C34.1818 83.5969 34.7849 83.3471 35.2296 82.9025C35.6742 82.4578 35.924 81.8547 35.924 81.2258V72.3918C35.924 72.0801 35.8625 71.7716 35.7431 71.4836C35.6237 71.1957 35.4487 70.9341 35.2281 70.7139C35.0075 70.4936 34.7456 70.3191 34.4575 70.2002C34.1694 70.0813 33.8607 70.0203 33.549 70.0209H33.553ZM31.1819 78.8539H27.091V74.7629H31.1819V78.8539ZM19.223 84.3539H10.389C9.76015 84.3539 9.15705 84.6037 8.7124 85.0483C8.26775 85.493 8.01794 86.096 8.01794 86.7249V95.5579C8.01794 96.1867 8.26775 96.7897 8.7124 97.2344C9.15705 97.679 9.76015 97.9288 10.389 97.9288H19.223C19.8518 97.9288 20.4549 97.679 20.8995 97.2344C21.3442 96.7897 21.594 96.1867 21.594 95.5579V86.7249C21.594 86.096 21.3442 85.493 20.8995 85.0483C20.4549 84.6037 19.8518 84.3539 19.223 84.3539ZM16.852 93.1879H12.7599V89.0969H16.851L16.852 93.1879ZM24.719 96.6678C24.0902 96.6678 23.4871 96.418 23.0424 95.9734C22.5978 95.5287 22.348 94.9257 22.348 94.2969V86.7258C22.348 86.097 22.5978 85.494 23.0424 85.0493C23.4871 84.6047 24.0902 84.3549 24.719 84.3549H29.752C30.3808 84.3549 30.9839 84.6047 31.4285 85.0493C31.8732 85.494 32.123 86.097 32.123 86.7258C32.123 87.3547 31.8732 87.9578 31.4285 88.4025C30.9839 88.8471 30.3808 89.0969 29.752 89.0969H27.09V94.2969C27.0894 94.6082 27.0276 94.9164 26.908 95.2039C26.7883 95.4913 26.6132 95.7525 26.3927 95.9723C26.1722 96.1921 25.9105 96.3663 25.6226 96.485C25.3348 96.6037 25.0263 96.6643 24.715 96.6638L24.719 96.6678ZM33.981 127.368C34.2975 127.912 34.3851 128.559 34.2245 129.167C34.0639 129.775 33.6681 130.295 33.1245 130.611C32.5808 130.928 31.9336 131.015 31.3253 130.855C30.717 130.694 30.1975 130.299 29.881 129.755C26.0028 123.085 24.4481 115.317 25.4609 107.669C26.4737 100.021 29.9967 92.925 35.4772 87.4949C40.9576 82.0647 48.0856 78.6075 55.7429 77.6653C63.4001 76.7231 71.1536 78.3492 77.787 82.2888C77.8192 81.7296 78.0483 81.1999 78.4336 80.7935C78.8189 80.387 79.3357 80.1299 79.8923 80.0679C80.449 80.0058 81.0096 80.1428 81.475 80.4545C81.9403 80.7662 82.2805 81.2325 82.435 81.7709L84.078 87.5309C84.1768 87.8772 84.1953 88.2415 84.1323 88.5961C84.0693 88.9507 83.9264 89.2862 83.7144 89.5773C83.5023 89.8684 83.2267 90.1073 82.9085 90.276C82.5903 90.4447 82.2379 90.5387 81.878 90.5509L75.892 90.7659C75.3277 90.784 74.7756 90.6002 74.3347 90.2476C73.8939 89.8949 73.5933 89.3965 73.4871 88.842C73.3809 88.2876 73.476 87.7135 73.7554 87.2229C74.0347 86.7323 74.48 86.3575 75.011 86.1659C69.266 82.8624 62.5913 81.5472 56.0225 82.4244C49.4538 83.3016 43.3581 86.3222 38.6813 91.0175C34.0044 95.7127 31.0077 101.82 30.1562 108.392C29.3048 114.964 30.6461 121.634 33.972 127.366L33.981 127.368ZM90.123 94.7308C93.9998 101.4 95.5533 109.168 94.5399 116.815C93.5265 124.463 90.0035 131.558 84.5235 136.987C79.0435 142.417 71.9163 145.874 64.2598 146.817C56.6032 147.76 48.8503 146.134 42.217 142.196C42.1857 142.756 41.957 143.286 41.5715 143.694C41.186 144.101 40.6686 144.358 40.1113 144.42C39.5539 144.482 38.9927 144.344 38.5272 144.032C38.0618 143.719 37.7223 143.251 37.569 142.712L35.926 136.952C35.8272 136.606 35.8086 136.241 35.8716 135.887C35.9346 135.532 36.0776 135.197 36.2896 134.906C36.5017 134.614 36.7773 134.375 37.0955 134.207C37.4136 134.038 37.766 133.944 38.126 133.932L44.112 133.717C44.6753 133.701 45.2258 133.886 45.6652 134.239C46.1045 134.592 46.4038 135.089 46.5096 135.643C46.6153 136.196 46.5206 136.769 46.2424 137.259C45.9641 137.749 45.5205 138.124 44.991 138.317C50.736 141.621 57.4108 142.936 63.9799 142.059C70.5489 141.182 76.6449 138.162 81.322 133.466C85.9991 128.771 88.9958 122.663 89.8472 116.091C90.6987 109.519 89.3572 102.849 86.0309 97.1168C85.8742 96.8476 85.7721 96.5503 85.7303 96.2416C85.6885 95.9329 85.7079 95.6189 85.7875 95.3177C85.867 95.0166 86.0051 94.734 86.1938 94.4862C86.3826 94.2384 86.6182 94.0301 86.8875 93.8734C87.1567 93.7167 87.4541 93.6145 87.7628 93.5728C88.0715 93.531 88.3854 93.5503 88.6866 93.6299C88.9878 93.7094 89.2704 93.8475 89.5182 94.0363C89.766 94.225 89.9742 94.4606 90.131 94.7299L90.123 94.7308ZM60.003 90.1559C55.6348 90.1559 51.3647 91.4512 47.7327 93.8781C44.1006 96.3049 41.2698 99.7542 39.5981 103.79C37.9265 107.826 37.4892 112.266 38.3414 116.551C39.1936 120.835 41.297 124.77 44.3858 127.859C47.4746 130.948 51.4099 133.051 55.6942 133.903C59.9785 134.756 64.4192 134.318 68.4549 132.647C72.4906 130.975 75.94 128.144 78.3668 124.512C80.7937 120.88 82.089 116.61 82.089 112.242C82.0837 106.385 79.7548 100.769 75.6135 96.6277C71.4722 92.486 65.8569 90.1567 60 90.1509L60.003 90.1559ZM60.003 129.586C56.5727 129.586 53.2194 128.569 50.3672 126.663C47.515 124.757 45.2919 122.048 43.9792 118.879C42.6665 115.71 42.323 112.223 42.9922 108.858C43.6615 105.494 45.3133 102.403 47.7389 99.9778C50.1645 97.5522 53.2549 95.9003 56.6193 95.2311C59.9837 94.5619 63.4711 94.9054 66.6403 96.2181C69.8095 97.5309 72.5182 99.7539 74.424 102.606C76.3298 105.458 77.347 108.812 77.347 112.242C77.339 116.839 75.5084 121.245 72.2566 124.495C69.0047 127.744 64.5971 129.571 60 129.576L60.003 129.586ZM68.647 116.571C68.7695 117.438 68.7044 118.321 68.4562 119.161C68.2079 120 67.7822 120.777 67.2079 121.438C65.9244 122.815 64.2283 123.737 62.375 124.066V124.717C62.375 125.346 62.1252 125.949 61.6805 126.393C61.2359 126.838 60.6328 127.088 60.004 127.088C59.3751 127.088 58.7721 126.838 58.3275 126.393C57.8828 125.949 57.633 125.346 57.633 124.717V124.026C56.1436 123.722 54.7688 123.008 53.6638 121.964C52.5587 120.92 51.7673 119.589 51.379 118.119C51.2958 117.814 51.2744 117.496 51.3159 117.183C51.3573 116.87 51.461 116.568 51.6206 116.296C51.7802 116.024 51.9927 115.786 52.2455 115.596C52.4983 115.407 52.7863 115.27 53.0927 115.194C53.399 115.118 53.7176 115.103 54.0297 115.152C54.3417 115.2 54.6409 115.31 54.9098 115.476C55.1786 115.641 55.4117 115.859 55.5953 116.116C55.7789 116.373 55.9093 116.664 55.9789 116.972C56.4709 118.944 58.56 119.603 60.204 119.559C61.4566 119.599 62.6777 119.162 63.621 118.337C63.7626 118.176 63.8651 117.985 63.9203 117.778C63.9755 117.571 63.9818 117.354 63.939 117.144C63.868 116.556 63.7 115.18 59.639 114.512C53.202 113.455 52.071 109.803 51.97 107.721C51.915 106.044 52.4525 104.401 53.4883 103.081C54.5241 101.761 55.9919 100.847 57.634 100.502V99.7678C57.634 99.139 57.8838 98.536 58.3284 98.0913C58.7731 97.6467 59.3761 97.3969 60.0049 97.3969C60.6338 97.3969 61.2369 97.6467 61.6815 98.0913C62.1262 98.536 62.376 99.139 62.376 99.7678V100.48C63.6305 100.786 64.7944 101.386 65.7714 102.23C66.7484 103.074 67.5106 104.139 67.995 105.336C68.2329 105.915 68.2323 106.564 67.9935 107.142C67.7547 107.721 67.297 108.181 66.7201 108.423C66.1432 108.666 65.4938 108.67 64.9137 108.436C64.3336 108.201 63.8696 107.747 63.623 107.172C63.2365 106.329 62.5623 105.652 61.7216 105.261C60.8808 104.87 59.9283 104.792 59.035 105.04C58.467 105.169 56.621 105.726 56.707 107.491C56.73 107.969 56.792 109.239 60.407 109.832C65.433 110.657 68.2069 112.925 68.6479 116.572L68.647 116.571Z" fill="#F9BD3A"/>
</svg>
