<svg width="43" height="35" viewBox="0 0 43 35" fill="none" xmlns="http://www.w3.org/2000/svg">
<path d="M24.674 28.6343C29.855 26.0843 33.863 20.1343 33.033 15.4593C31.033 15.9123 27.565 15.6293 25.79 13.4193C24.6029 11.8809 23.9859 9.97857 24.044 8.0363C23.9904 6.96153 24.1757 5.88824 24.5865 4.89365C24.9974 3.89906 25.6235 3.0079 26.42 2.2843C28.1048 0.839653 30.2711 0.0811503 32.489 0.159299C38.071 0.159299 42.022 4.6073 42.852 11.3503C44.168 22.0333 36.468 30.4763 28.653 34.1593L24.674 28.6343ZM1.62904 28.6343C6.81004 26.0843 10.818 20.1343 9.98804 15.4593C7.98804 15.9123 4.54904 15.6293 2.74504 13.4193C1.55794 11.8809 0.940906 9.97857 0.999039 8.0363C0.945407 6.96153 1.13068 5.88824 1.54152 4.89365C1.95235 3.89906 2.57855 3.0079 3.37504 2.2843C5.0598 0.839653 7.22609 0.0811503 9.44404 0.159299C15.027 0.159299 18.944 4.6073 19.779 11.3503C21.099 22.0333 13.423 30.4763 5.60804 34.1593L1.62904 28.6343Z" fill="#F9BD3A"/>
</svg>
