<svg width="79" height="66" viewBox="0 0 79 66" fill="none" xmlns="http://www.w3.org/2000/svg">
<g id="Group 46">
<path id="Path 84" d="M5.778 26.3659V26.2539C4.0002 27.8725 2.57095 29.8364 1.57752 32.0258C0.584088 34.2152 0.0473245 36.5841 0 38.9879C0 45.0179 3.422 50.7119 9.256 54.5269L7.938 60.6139C7.81493 61.19 7.82245 61.7863 7.96003 62.3591C8.09761 62.9318 8.36174 63.4665 8.73302 63.9238C9.10431 64.3811 9.57332 64.7495 10.1056 65.0018C10.6379 65.2541 11.2199 65.384 11.809 65.3819C12.6596 65.3883 13.4883 65.1122 14.165 64.5969L17.98 61.7639C20.3121 60.0826 23.1276 59.2051 26.002 59.2639H26.03C29.8107 59.2776 33.5632 58.6127 37.109 57.3009C19.213 54.3309 5.778 41.5969 5.778 26.3659Z" fill="#447EB2"/>
<path id="Path 85" d="M78.5369 26.3659C78.5369 12.0659 63.4749 0.420898 44.9629 0.420898C26.4509 0.420898 11.3879 12.0609 11.3879 26.3659C11.3879 40.6989 26.4499 52.3389 45.0459 52.3389H45.0739C49.0454 52.2728 52.9318 53.4929 56.1529 55.8169L61.2019 59.6029C61.9502 60.1548 62.8523 60.459 63.7819 60.4729C64.4253 60.4717 65.0604 60.3273 65.641 60.0501C66.2216 59.7729 66.7332 59.3699 67.1387 58.8704C67.5442 58.3709 67.8334 57.7874 67.9853 57.1622C68.1372 56.537 68.148 55.8858 68.0169 55.2559L66.1379 46.5559C73.9369 41.6529 78.5369 34.2479 78.5369 26.3659ZM44.9369 41.9049C44.193 41.9086 43.4781 41.6167 42.9494 41.0932C42.4207 40.5698 42.1217 39.8578 42.1179 39.1139C42.1142 38.37 42.4062 37.655 42.9296 37.1264C43.453 36.5977 44.165 36.2986 44.9089 36.2949H44.9369C45.6809 36.2949 46.3943 36.5904 46.9204 37.1165C47.4464 37.6425 47.7419 38.356 47.7419 39.0999C47.7419 39.8438 47.4464 40.5573 46.9204 41.0833C46.3943 41.6094 45.6809 41.9049 44.9369 41.9049ZM47.7699 27.6559V31.5829C47.7699 32.3268 47.4744 33.0403 46.9484 33.5663C46.4223 34.0924 45.7089 34.3879 44.9649 34.3879C44.221 34.3879 43.5075 34.0924 42.9815 33.5663C42.4555 33.0403 42.1599 32.3268 42.1599 31.5829V25.3829C42.1599 24.6403 42.4549 23.9281 42.98 23.403C43.5051 22.8779 44.2173 22.5829 44.9599 22.5829C45.5452 22.5857 46.1181 22.4148 46.6062 22.092C47.0943 21.7692 47.4758 21.3088 47.7023 20.7692C47.9288 20.2296 47.9902 19.6349 47.8787 19.0604C47.7673 18.4859 47.488 17.9573 47.0761 17.5415C46.6643 17.1258 46.1384 16.8414 45.5649 16.7246C44.9915 16.6077 44.3963 16.6634 43.8545 16.8848C43.3128 17.1062 42.8488 17.4833 42.5214 17.9684C42.194 18.4534 42.0177 19.0247 42.0149 19.6099C42.0149 20.3538 41.7194 21.0673 41.1934 21.5933C40.6673 22.1194 39.9539 22.4149 39.2099 22.4149C38.466 22.4149 37.7525 22.1194 37.2265 21.5933C36.7005 21.0673 36.4049 20.3538 36.4049 19.6099C36.399 18.038 36.8263 16.495 37.6399 15.15C38.4534 13.8051 39.6218 12.7102 41.0168 11.9857C42.4117 11.2613 43.9793 10.9351 45.5474 11.043C47.1156 11.151 48.6237 11.6889 49.9062 12.5977C51.1887 13.5065 52.196 14.7511 52.8176 16.1949C53.4392 17.6386 53.651 19.2257 53.4297 20.7819C53.2085 22.3381 52.5628 23.8033 51.5635 25.0166C50.5642 26.23 49.2499 27.1445 47.7649 27.6599L47.7699 27.6559Z" fill="#447EB2"/>
</g>
</svg>
