<svg width="100" height="101" viewBox="0 0 100 101" fill="none" xmlns="http://www.w3.org/2000/svg">
<g id="icon">
<path id="Rectangle 14" d="M0 32.4219C0 23.9349 3.37143 15.7956 9.37259 9.79443C15.3738 3.79327 23.5131 0.421875 32 0.421875H68C76.4869 0.421875 84.6262 3.79327 90.6274 9.79443C96.6286 15.7956 100 23.9349 100 32.4219V68.4219C100 76.9088 96.6286 85.0482 90.6274 91.0493C84.6262 97.0505 76.4869 100.422 68 100.422H32C23.5131 100.422 15.3738 97.0505 9.37259 91.0493C3.37143 85.0482 0 76.9088 0 68.4219V32.4219Z" fill="#062F66"/>
<g id="Group 36">
<path id="path2" fill-rule="evenodd" clip-rule="evenodd" d="M50.868 30.1106C46.5724 29.9659 42.3511 31.2566 38.8708 33.7786C35.3906 36.3007 32.8498 39.9104 31.65 44.0376C31.2311 43.9919 30.8074 44.031 30.404 44.1526C29.573 44.4173 28.8052 44.8498 28.1481 45.4233C27.4911 45.9968 26.9587 46.699 26.584 47.4866C25.7178 49.4797 25.4459 51.6806 25.801 53.8246C26.0533 55.8749 26.9569 57.7901 28.379 59.2886C28.8843 59.8304 29.52 60.2339 30.2254 60.4606C30.9308 60.6872 31.6825 60.7296 32.409 60.5836C34.479 60.1416 35.509 59.8116 35.216 57.8836L33.8159 48.5346C34.0527 44.338 35.8874 40.3913 38.9431 37.5051C41.9988 34.6189 46.0436 33.0122 50.2469 33.015C54.4502 33.0178 58.4928 34.6299 61.5446 37.5202C64.5964 40.4105 66.4258 44.3596 66.657 48.5566L65.676 55.0966C64.6113 58.0154 62.7408 60.5726 60.2816 62.4714C57.8224 64.3703 54.8752 65.5329 51.782 65.8246H47.595C47.3391 65.8239 47.0855 65.8738 46.8489 65.9714C46.6124 66.069 46.3974 66.2124 46.2164 66.3933C46.0354 66.5742 45.8919 66.7891 45.7942 67.0256C45.6965 67.2621 45.6464 67.5156 45.647 67.7716V68.7986C45.6464 69.0545 45.6965 69.308 45.7942 69.5445C45.8919 69.781 46.0354 69.9959 46.2164 70.1768C46.3974 70.3578 46.6124 70.5011 46.8489 70.5987C47.0855 70.6963 47.3391 70.7462 47.595 70.7456H52.8669C53.1226 70.7461 53.3759 70.6961 53.6122 70.5984C53.8485 70.5007 54.0632 70.3572 54.2438 70.1763C54.4245 69.9954 54.5676 69.7805 54.6649 69.544C54.7622 69.3076 54.8119 69.0542 54.811 68.7986V68.2616C59.5478 67.1019 63.6744 64.2015 66.3699 60.1376L68.059 60.5856C68.7852 60.7458 69.541 60.7104 70.249 60.4829C70.9571 60.2554 71.592 59.8439 72.0889 59.2906C73.5105 57.7918 74.414 55.8767 74.6669 53.8266C75.0179 51.6826 74.7466 49.4829 73.8849 47.4886C73.5938 46.7427 73.1435 46.0692 72.5655 45.5152C71.9874 44.9611 71.2955 44.5398 70.538 44.2806C69.974 44.1298 69.3936 44.0485 68.8099 44.0386C67.6711 40.1209 65.3221 36.6639 62.0992 34.1624C58.8763 31.6608 54.9446 30.2429 50.8669 30.1116L50.868 30.1106Z" fill="#F9BD3A"/>
<path id="path4" fill-rule="evenodd" clip-rule="evenodd" d="M57.0358 46.9296C57.5352 46.9304 58.0231 47.0792 58.438 47.3572C58.8528 47.6352 59.176 48.0299 59.3666 48.4915C59.5572 48.9531 59.6067 49.4608 59.5089 49.9505C59.411 50.4402 59.1702 50.8899 58.8169 51.2428C58.4636 51.5958 58.0136 51.836 57.5237 51.9333C57.0339 52.0305 56.5263 51.9804 56.0649 51.7893C55.6036 51.5981 55.2093 51.2745 54.9318 50.8593C54.6543 50.4441 54.506 49.956 54.5058 49.4566C54.5063 48.7861 54.7732 48.1432 55.2476 47.6693C55.7221 47.1954 56.3653 46.9294 57.0358 46.9296ZM50.2358 46.9296C50.7354 46.9298 51.2236 47.0781 51.6388 47.3558C52.054 47.6334 52.3777 48.0279 52.5687 48.4894C52.7598 48.951 52.8097 49.4588 52.7122 49.9487C52.6147 50.4386 52.3742 50.8886 52.021 51.2418C51.6678 51.595 51.2177 51.8356 50.7278 51.9331C50.2379 52.0306 49.7301 51.9806 49.2686 51.7896C48.8071 51.5985 48.4126 51.2749 48.135 50.8596C47.8573 50.4444 47.709 49.9562 47.7088 49.4566C47.7084 49.1247 47.7735 48.7959 47.9004 48.4891C48.0272 48.1824 48.2133 47.9036 48.4481 47.6689C48.6828 47.4342 48.9615 47.2481 49.2683 47.1212C49.5751 46.9943 49.9039 46.9292 50.2358 46.9296ZM43.4359 46.9296C43.9354 46.9298 44.4236 47.0781 44.8388 47.3558C45.2541 47.6334 45.5777 48.0279 45.7687 48.4894C45.9598 48.951 46.0097 49.4588 45.9122 49.9487C45.8147 50.4386 45.5742 50.8886 45.221 51.2418C44.8678 51.595 44.4178 51.8356 43.9279 51.9331C43.438 52.0306 42.9302 51.9806 42.4686 51.7896C42.0071 51.5985 41.6126 51.2749 41.335 50.8596C41.0573 50.4444 40.909 49.9562 40.9088 49.4566C40.9088 48.7864 41.1751 48.1437 41.649 47.6698C42.1229 47.1959 42.7657 46.9296 43.4359 46.9296ZM50.2358 36.0776C47.6201 36.0895 45.0647 36.8644 42.8829 38.3072C40.7011 39.75 38.9878 41.7981 37.9528 44.2004C36.9179 46.6027 36.6063 49.2547 37.0565 51.8314C37.5066 54.4081 38.6987 56.7975 40.4868 58.7066L39.6868 62.2856C39.4238 63.4636 40.2408 64.2556 41.2988 63.6656L44.7988 61.7156C46.5159 62.4588 48.3678 62.8401 50.2388 62.8356C53.7872 62.8356 57.1902 61.4261 59.6992 58.917C62.2083 56.408 63.6178 53.005 63.6178 49.4566C63.6178 45.9083 62.2083 42.5053 59.6992 39.9963C57.1902 37.4872 53.7872 36.0776 50.2388 36.0776H50.2358Z" fill="#F9BD3A"/>
</g>
</g>
</svg>
