<svg width="100" height="101" viewBox="0 0 100 101" fill="none" xmlns="http://www.w3.org/2000/svg">
<g id="icon">
<path id="Rectangle 14" d="M0 32.9727C0 24.4857 3.37143 16.3464 9.37259 10.3452C15.3738 4.34405 23.5131 0.972656 32 0.972656H68C76.4869 0.972656 84.6262 4.34405 90.6274 10.3452C96.6286 16.3464 100 24.4857 100 32.9727V68.9727C100 77.4596 96.6286 85.5989 90.6274 91.6001C84.6262 97.6013 76.4869 100.973 68 100.973H32C23.5131 100.973 15.3738 97.6013 9.37259 91.6001C3.37143 85.5989 0 77.4596 0 68.9727V32.9727Z" fill="#062F66"/>
<path id="ic" d="M49.82 71.9727C49.5187 71.9714 49.2228 71.8926 48.961 71.7437C43.8518 68.9071 39.6719 64.6535 36.9249 59.4956C34.0119 54.0746 32.4019 47.4958 32.0029 39.3958C31.9764 38.8973 32.147 38.4083 32.478 38.0347C32.6373 37.8533 32.8321 37.7065 33.0503 37.6033C33.2686 37.5001 33.5057 37.4426 33.747 37.4346C36.362 37.3666 39.4469 35.4036 42.1619 33.6726C43.3199 32.9346 44.413 32.2386 45.362 31.7646C46.6743 31.0054 48.0747 30.41 49.532 29.9917C49.6313 29.977 49.7315 29.9696 49.832 29.9697C49.9283 29.9697 50.0246 29.9768 50.1199 29.9907C51.5775 30.4091 52.9783 31.0045 54.2909 31.7637C55.2349 32.2367 56.329 32.9336 57.491 33.6716C60.21 35.4036 63.2909 37.3716 65.9079 37.4346C66.149 37.442 66.386 37.4993 66.604 37.6025C66.8221 37.7058 67.0164 37.8529 67.1749 38.0347C67.3393 38.2193 67.4657 38.4347 67.5469 38.6682C67.628 38.9017 67.6624 39.1489 67.648 39.3958C67.248 47.4958 65.639 54.0746 62.726 59.4956C59.9796 64.6536 55.8 68.9072 50.691 71.7437C50.4253 71.894 50.1252 71.9729 49.82 71.9727ZM51.066 57.0027L49.428 62.2166H50.6329L50.9549 60.9756H52.545L52.866 62.2178H54.113L52.476 57.0037L51.066 57.0027ZM55.795 60.3396H56.4429L57.4429 62.2156H58.7619L57.582 60.1306C57.8728 60.0059 58.1181 59.7945 58.2842 59.5251C58.4503 59.2558 58.5292 58.9416 58.51 58.6257C58.51 57.5487 57.8329 57.0017 56.4979 57.0017H54.621V62.2156H55.7999V60.3406L55.795 60.3396ZM45.711 57.0027V62.2166H49.058V61.2288H46.89V60.0286H48.6669V59.0408H46.89V57.9937H48.978V57.0046L45.711 57.0027ZM41.035 57.0027L42.605 60.3567V62.2156H43.7839V60.3567L45.355 57.0027H44.1229L43.6579 58.2026C43.5829 58.4026 43.5049 58.6077 43.4299 58.8027C43.3679 58.9627 43.291 59.1606 43.217 59.3596H43.185L43.049 58.9927C42.955 58.7397 42.858 58.4776 42.76 58.2036L42.295 57.0037H41.0339L41.035 57.0027ZM45.526 49.4875V52.2166H54.836V49.4875H52.1V37.6106H49.6069C48.4973 38.286 47.2661 38.7376 45.983 38.9397V41.0396H48.7189V49.4897L45.526 49.4875ZM52.308 60.0576H51.1919L51.3169 59.5757C51.4609 59.0587 51.6 58.4486 51.724 57.9106V57.8948H51.756C51.806 58.0948 51.856 58.2997 51.906 58.5027V58.5208C51.993 58.8788 52.083 59.2487 52.174 59.5767L52.298 60.0576H52.308ZM56.397 59.4045H55.797V57.9387H56.397C57.065 57.9387 57.35 58.1447 57.35 58.6267C57.351 59.1357 57.0209 59.4045 56.3999 59.4045H56.397Z" fill="#F9BD3A"/>
</g>
</svg>
