<svg width="100" height="101" viewBox="0 0 100 101" fill="none" xmlns="http://www.w3.org/2000/svg">
<g id="icon">
<path id="Rectangle 13" d="M0 32.9727C0 24.4857 3.37139 16.3464 9.37256 10.3452C15.3737 4.34405 23.5131 0.972656 32 0.972656H68C76.4869 0.972656 84.6263 4.34405 90.6274 10.3452C96.6286 16.3464 100 24.4857 100 32.9727V68.9727C100 77.4596 96.6286 85.5989 90.6274 91.6001C84.6263 97.6013 76.4869 100.973 68 100.973H32C23.5131 100.973 15.3737 97.6013 9.37256 91.6001C3.37139 85.5989 0 77.4596 0 68.9727V32.9727Z" fill="#F9BD3A"/>
<g id="ic">
<path id="Vector" d="M67.8001 71.9727H34.2002C33.6435 71.9712 33.1099 71.7502 32.7152 71.3577C32.5194 71.1632 32.3641 70.9319 32.2583 70.677C32.1526 70.4221 32.0985 70.1485 32.0991 69.8726V59.3726C31.6831 59.372 31.2765 59.2478 30.9311 59.0159C30.5857 58.7839 30.317 58.4548 30.1591 58.0698C30.0012 57.6849 29.9612 57.2615 30.0441 56.8538C30.1271 56.446 30.3293 56.0721 30.6251 55.7795L40.5001 46.0308V34.1936C40.5015 33.0745 40.9466 32.0018 41.7379 31.2104C42.5292 30.4191 43.6021 29.974 44.7211 29.9727H65.6812C66.7994 29.974 67.8715 30.4187 68.6622 31.2095C69.453 32.0002 69.8978 33.0724 69.8991 34.1907V69.8726C69.8991 70.4295 69.6779 70.9638 69.2841 71.3577C68.8902 71.7515 68.3571 71.9727 67.8001 71.9727ZM42.5731 49.8877L36.3001 56.0796V67.7727H48.7362V56.1926L42.5731 49.8877ZM57.3001 57.2727V61.4727H61.5001V57.2727H57.3001ZM57.3001 48.8726V53.0728H61.5001V48.8726H57.3001ZM57.3001 40.4727V44.6726H61.5001V40.4727H57.3001ZM48.9002 40.4727V44.6726H53.1001V40.4727H48.9002Z" fill="#062F66"/>
<path id="Vector_2" d="M44.7 57.2725H40.5V61.4725H44.7V57.2725Z" fill="#062F66"/>
</g>
</g>
</svg>
