<svg width="233" height="232" viewBox="0 0 233 232" fill="none" xmlns="http://www.w3.org/2000/svg">
<path d="M116.5 0.677002C93.6549 0.677002 71.3228 7.45136 52.3277 20.1434C33.3327 32.8355 18.5279 50.8752 9.78541 71.9813C1.04296 93.0875 -1.24445 116.312 3.21241 138.718C7.66927 161.124 18.6703 181.706 34.8242 197.86C50.9781 214.014 71.5595 225.015 93.9657 229.472C116.372 233.928 139.596 231.641 160.703 222.899C181.809 214.156 199.848 199.351 212.541 180.356C225.233 161.361 232.007 139.029 232.007 116.184C232.007 85.5496 219.838 56.1699 198.176 34.5082C176.514 12.8464 147.134 0.677002 116.5 0.677002ZM116.5 222.066C95.5585 222.066 75.0871 215.857 57.6748 204.222C40.2625 192.588 26.6912 176.051 18.677 156.704C10.6629 137.357 8.56598 116.067 12.6513 95.5281C16.7367 74.9889 26.8209 56.1224 41.6287 41.3145C56.4366 26.5065 75.3029 16.4221 95.842 12.3365C116.381 8.25099 137.671 10.3478 157.018 18.3617C176.365 26.3756 192.902 39.9468 204.537 57.359C216.171 74.7712 222.381 95.2424 222.381 116.184C222.381 144.265 211.226 171.197 191.369 191.053C171.513 210.91 144.581 222.066 116.5 222.066Z" fill="#062F66"/>
<path d="M116.5 19.928C97.4623 19.928 78.8522 25.5733 63.023 36.15C47.1938 46.7268 34.8564 61.7599 27.571 79.3484C20.2856 96.9369 18.3794 116.291 22.0935 134.963C25.8075 153.634 34.975 170.786 48.4367 184.247C61.8983 197.709 79.0495 206.876 97.7213 210.59C116.393 214.305 135.747 212.398 153.336 205.113C170.924 197.828 185.957 185.49 196.534 169.661C207.111 153.832 212.756 135.222 212.756 116.184C212.756 90.6553 202.615 66.1722 184.563 48.1207C166.512 30.0692 142.029 19.928 116.5 19.928ZM121.313 202.814V193.189C121.322 192.551 121.204 191.918 120.967 191.326C120.729 190.734 120.376 190.195 119.928 189.741C119.48 189.287 118.947 188.926 118.358 188.68C117.77 188.433 117.138 188.307 116.5 188.307C115.863 188.307 115.231 188.433 114.643 188.68C114.054 188.926 113.521 189.287 113.073 189.741C112.625 190.195 112.272 190.734 112.034 191.326C111.796 191.918 111.679 192.551 111.688 193.189V202.814C90.4062 201.602 70.3185 192.585 55.2679 177.49C40.2173 162.395 31.2605 142.281 30.111 120.996H39.4919C40.1298 121.005 40.7631 120.888 41.355 120.65C41.9469 120.412 42.4857 120.059 42.94 119.611C43.3943 119.163 43.755 118.63 44.0013 118.041C44.2475 117.453 44.3743 116.821 44.3743 116.183C44.3743 115.546 44.2475 114.914 44.0013 114.326C43.755 113.737 43.3943 113.204 42.94 112.756C42.4857 112.308 41.9469 111.955 41.355 111.717C40.7631 111.479 40.1298 111.362 39.4919 111.371H30.107C31.3139 90.1271 40.2972 70.0704 55.3438 55.0253C70.3904 39.9801 90.448 30.9988 111.692 29.7939V39.179C111.71 40.4433 112.225 41.6497 113.126 42.5374C114.026 43.425 115.24 43.9226 116.504 43.9226C117.769 43.9226 118.983 43.425 119.883 42.5374C120.784 41.6497 121.299 40.4433 121.317 39.179V29.7939C142.602 30.9437 162.716 39.9006 177.811 54.9512C192.906 70.0017 201.922 90.0893 203.135 111.371H193.509C192.245 111.389 191.038 111.904 190.151 112.805C189.263 113.705 188.765 114.919 188.765 116.183C188.765 117.448 189.263 118.662 190.151 119.562C191.038 120.463 192.245 120.978 193.509 120.996H203.135C201.98 142.321 192.988 162.468 177.887 177.569C162.785 192.67 142.638 201.66 121.313 202.814Z" fill="#062F66"/>
<path d="M155.002 71.0401C95.853 100.64 99.414 98.377 98.402 100.398L71.3541 154.686C70.7685 155.61 70.5149 156.705 70.6352 157.792C70.7554 158.879 71.2423 159.893 72.0157 160.666C72.789 161.44 73.8027 161.927 74.8897 162.047C75.9768 162.167 77.0724 161.914 77.9961 161.328C137.146 131.728 133.584 133.991 134.596 131.97L161.644 77.6811C162.23 76.7574 162.483 75.6618 162.363 74.5747C162.243 73.4877 161.756 72.474 160.982 71.7007C160.209 70.9274 159.195 70.4405 158.108 70.3202C157.021 70.1999 155.926 70.4545 155.002 71.0401ZM126.125 126.195L86.0351 146.264L106.104 106.174L146.195 86.105L126.125 126.195Z" fill="#062F66"/>
<path d="M116.5 120.997C117.452 120.997 118.382 120.715 119.174 120.186C119.965 119.657 120.582 118.905 120.947 118.026C121.311 117.146 121.406 116.179 121.221 115.245C121.035 114.311 120.576 113.454 119.903 112.781C119.23 112.107 118.373 111.649 117.439 111.463C116.505 111.278 115.538 111.373 114.658 111.737C113.779 112.102 113.027 112.718 112.498 113.51C111.969 114.301 111.687 115.232 111.687 116.184C111.687 117.46 112.194 118.685 113.097 119.587C113.999 120.49 115.224 120.997 116.5 120.997Z" fill="#062F66"/>
</svg>
