<svg width="142" height="139" viewBox="0 0 142 139" fill="none" xmlns="http://www.w3.org/2000/svg">
<path d="M59.128 123.431L59.1381 123.381L58.694 123.293L58.613 123.276L58.0831 123.176L58.073 123.226C57.4294 123.233 56.8109 123.478 56.3375 123.914C55.864 124.35 55.569 124.946 55.5098 125.587C55.4506 126.228 55.6312 126.868 56.0168 127.384C56.4023 127.899 56.9654 128.253 57.597 128.377L57.639 128.386C57.8002 128.417 57.9639 128.433 58.128 128.433C58.7291 128.433 59.3116 128.225 59.7764 127.844C60.2412 127.463 60.5597 126.932 60.6775 126.343C60.7954 125.754 60.7055 125.142 60.423 124.611C60.1405 124.081 59.6829 123.664 59.128 123.433V123.431Z" fill="#F9BD3A"/>
<path d="M74.6901 123.931L74.6851 123.876L74.1991 123.926L74.1471 123.931L73.6051 123.988L73.6101 124.042C73.0196 124.231 72.5162 124.625 72.1907 125.153C71.8651 125.681 71.7389 126.307 71.8347 126.92C71.9305 127.533 72.2421 128.091 72.7133 128.494C73.1844 128.897 73.7841 129.118 74.4041 129.118C74.4911 129.118 74.5791 129.118 74.6781 129.104L74.7371 129.097C75.3706 129.019 75.9531 128.71 76.3737 128.23C76.7942 127.75 77.0234 127.131 77.0176 126.493C77.0118 125.855 76.7714 125.241 76.3422 124.768C75.9129 124.296 75.3249 123.998 74.6901 123.931Z" fill="#F9BD3A"/>
<path d="M66.3701 124.186H66.3401C65.9996 124.169 65.6593 124.221 65.339 124.338C65.0187 124.455 64.725 124.634 64.4751 124.866C64.0959 125.214 63.8284 125.666 63.7064 126.166C63.5845 126.666 63.6135 127.191 63.79 127.674C63.9664 128.157 64.2823 128.577 64.6976 128.881C65.113 129.185 65.6091 129.359 66.1231 129.38C66.1671 129.38 66.2101 129.38 66.2541 129.38C66.9437 129.396 67.6111 129.136 68.1096 128.66C68.608 128.183 68.8967 127.528 68.9121 126.838C68.9275 126.149 68.6683 125.481 68.1916 124.983C67.7149 124.484 67.0597 124.196 66.3701 124.18V124.186Z" fill="#F9BD3A"/>
<path d="M51.1181 121.216L51.0891 121.205C50.4144 120.954 49.6675 120.98 49.0122 121.278C48.3568 121.576 47.8464 122.122 47.593 122.796C47.3395 123.47 47.3637 124.217 47.6601 124.873C47.9566 125.529 48.5011 126.041 49.1743 126.297C49.8475 126.552 50.5946 126.53 51.2516 126.236C51.9087 125.941 52.4221 125.398 52.6794 124.726C52.9366 124.053 52.9168 123.306 52.6241 122.648C52.3315 121.99 51.7899 121.475 51.1181 121.216Z" fill="#F9BD3A"/>
<path d="M82.3491 122.427L82.3351 122.374L81.8661 122.494L81.8101 122.508L81.2831 122.645L81.2971 122.698C80.7714 122.959 80.3491 123.389 80.099 123.92C79.8489 124.45 79.7855 125.05 79.9194 125.621C80.0532 126.192 80.3762 126.702 80.8361 127.066C81.2959 127.43 81.8654 127.628 82.4521 127.628C82.6773 127.628 82.9015 127.598 83.1191 127.54L83.1651 127.529C83.7783 127.356 84.3067 126.964 84.6498 126.427C84.993 125.89 85.127 125.246 85.0264 124.616C84.9259 123.987 84.5977 123.417 84.1044 123.014C83.611 122.61 82.9867 122.403 82.3501 122.429L82.3491 122.427Z" fill="#F9BD3A"/>
<path d="M89.667 119.783L89.645 119.731L89.145 119.95L89.087 119.976L88.652 120.167L88.673 120.217C88.1509 120.591 87.7855 121.144 87.6471 121.771C87.5087 122.398 87.607 123.054 87.9232 123.612C88.2394 124.171 88.7511 124.593 89.3598 124.797C89.9684 125.001 90.631 124.972 91.22 124.717L91.246 124.705L91.281 124.689C91.8603 124.422 92.3211 123.951 92.5758 123.366C92.8305 122.781 92.8612 122.123 92.6623 121.517C92.4634 120.911 92.0486 120.399 91.4968 120.079C90.9451 119.759 90.2949 119.653 89.67 119.781L89.667 119.783Z" fill="#F9BD3A"/>
<path d="M43.0891 27.437C43.5389 27.4383 43.9814 27.3227 44.3732 27.1018C44.765 26.8809 45.0929 26.562 45.3246 26.1765C45.5564 25.791 45.6842 25.352 45.6955 24.9023C45.7068 24.4527 45.6012 24.0078 45.3891 23.6111C45.0648 23.0039 44.513 22.5501 43.8546 22.3491C43.1963 22.1482 42.4851 22.2165 41.877 22.5391L41.8481 22.554C41.3409 22.8303 40.9402 23.2678 40.7092 23.7971C40.4782 24.3265 40.43 24.9178 40.5723 25.4775C40.7146 26.0373 41.0392 26.5336 41.4949 26.8884C41.9506 27.2433 42.5115 27.4363 43.0891 27.437Z" fill="#F9BD3A"/>
<path d="M19.094 50.2991C19.3968 50.4579 19.728 50.5555 20.0686 50.5862C20.4091 50.6169 20.7524 50.58 21.0787 50.4778C21.405 50.3756 21.708 50.2102 21.9702 49.9907C22.2325 49.7713 22.4489 49.5022 22.607 49.199L22.646 49.1211C22.8664 48.661 22.9466 48.1462 22.8765 47.6409C22.8065 47.1355 22.5893 46.6619 22.252 46.2791C21.9148 45.8963 21.4723 45.621 20.9798 45.4878C20.4873 45.3546 19.9665 45.3694 19.4823 45.5301C18.9981 45.6907 18.5718 45.9904 18.2567 46.3916C17.9415 46.7928 17.7513 47.2779 17.7098 47.7864C17.6683 48.2949 17.7773 48.8043 18.0233 49.2512C18.2692 49.6982 18.6413 50.063 19.093 50.3001L19.094 50.2991Z" fill="#F9BD3A"/>
<path d="M16.2881 58.0541C16.612 58.164 16.9545 58.2089 17.2958 58.1862C17.6372 58.1635 17.9706 58.0738 18.2772 57.922C18.5838 57.7702 18.8574 57.5594 19.0823 57.3017C19.3073 57.0439 19.4792 56.7443 19.5881 56.4201L19.6181 56.329C19.7628 55.84 19.7604 55.3194 19.6114 54.8317C19.4624 54.344 19.1733 53.9109 18.7801 53.5863C18.3868 53.2617 17.9068 53.0599 17.3997 53.006C16.8926 52.9521 16.3808 53.0486 15.9281 53.2834C15.4754 53.5181 15.1018 53.8806 14.8536 54.3261C14.6055 54.7715 14.4937 55.2803 14.5324 55.7887C14.5711 56.2972 14.7585 56.7829 15.0711 57.1857C15.3838 57.5885 15.8081 57.8906 16.2911 58.0541H16.2881Z" fill="#F9BD3A"/>
<path d="M22.038 41.377C22.1344 41.9884 22.4458 42.5455 22.9162 42.9478C23.3866 43.3502 23.9851 43.5715 24.6041 43.5721C25.0134 43.5713 25.4169 43.4741 25.7817 43.2884C26.1466 43.1027 26.4625 42.8335 26.704 42.503L26.735 42.461C27.1072 41.9383 27.273 41.2966 27.2004 40.659C27.1278 40.0214 26.822 39.4333 26.3419 39.0076C25.8617 38.582 25.2411 38.3487 24.5994 38.3531C23.9578 38.3574 23.3404 38.5989 22.866 39.0311L22.8231 39.0001L22.501 39.4432L22.4711 39.4852L22.1901 39.876L22.232 39.9061C22.0248 40.3668 21.9573 40.8783 22.038 41.377Z" fill="#F9BD3A"/>
<path d="M36.122 31.8702C36.6852 31.8716 37.2331 31.6875 37.681 31.3463C38.238 30.9392 38.6104 30.3275 38.7164 29.6459C38.8223 28.9642 38.6532 28.2682 38.2461 27.7113C38.0445 27.4355 37.7905 27.2022 37.4987 27.0245C37.207 26.8469 36.8831 26.7283 36.5455 26.6759C35.8639 26.5699 35.168 26.7392 34.611 27.1463L34.551 27.1903C34.1154 27.5188 33.7941 27.976 33.6327 28.4972C33.4713 29.0184 33.478 29.5771 33.6518 30.0943C33.8255 30.6115 34.1576 31.061 34.6009 31.379C35.0443 31.697 35.5764 31.8675 36.122 31.8663V31.8702Z" fill="#F9BD3A"/>
<path d="M14.1041 88.8221C14.3164 89.4669 14.7725 90.0032 15.3749 90.3162C15.9773 90.6292 16.6782 90.694 17.3278 90.4971C17.9775 90.3002 18.5244 89.857 18.8516 89.2622C19.1789 88.6675 19.2605 87.9684 19.0791 87.3143C18.8882 86.6587 18.4481 86.1039 17.853 85.7691C17.258 85.4343 16.5555 85.3461 15.8961 85.5232C15.5656 85.6134 15.2562 85.7679 14.9856 85.9781C14.7151 86.1882 14.4888 86.4499 14.3197 86.7478C14.1505 87.0458 14.0419 87.3741 14.0001 87.7142C13.9583 88.0542 13.9841 88.399 14.0761 88.729L14.1041 88.8221Z" fill="#F9BD3A"/>
<path d="M29.922 37.2791C30.351 37.2818 30.774 37.1785 31.1534 36.9785C31.5329 36.7786 31.8571 36.4882 32.0973 36.1328C32.3376 35.7775 32.4864 35.3683 32.5306 34.9417C32.5747 34.515 32.5129 34.0841 32.3506 33.687C32.1883 33.29 31.9304 32.939 31.6 32.6656C31.2696 32.3921 30.8768 32.2044 30.4564 32.1192C30.036 32.0339 29.6011 32.0536 29.1902 32.1768C28.7794 32.2999 28.4052 32.5226 28.1011 32.825L28.0631 32.8631C27.7059 33.229 27.4645 33.6922 27.3692 34.1946C27.274 34.6971 27.329 35.2164 27.5274 35.6878C27.7259 36.1591 28.0588 36.5615 28.4848 36.8445C28.9107 37.1275 29.4106 37.2788 29.922 37.2791Z" fill="#F9BD3A"/>
<path d="M15.239 82.5729C15.7479 82.5007 16.2242 82.28 16.6081 81.9384C16.9921 81.5967 17.2667 81.1493 17.3975 80.6522C17.5283 80.1552 17.5095 79.6306 17.3434 79.1442C17.1774 78.6578 16.8714 78.2311 16.4639 77.9179C16.0564 77.6046 15.5656 77.4184 15.0528 77.3829C14.5401 77.3474 14.0282 77.4642 13.5815 77.7184C13.1347 77.9725 12.7729 78.3528 12.5414 78.8116C12.3099 79.2705 12.2189 79.7876 12.28 80.298L12.292 80.382C12.3413 80.7195 12.4567 81.0439 12.6315 81.3368C12.8064 81.6297 13.0373 81.8852 13.311 82.0887C13.5848 82.2923 13.896 82.4397 14.2268 82.5228C14.5576 82.6059 14.9016 82.6229 15.239 82.5729Z" fill="#F9BD3A"/>
<path d="M14.3009 74.382H14.3789C15.0569 74.3859 15.7093 74.1233 16.1956 73.6508C16.6819 73.1784 16.9632 72.5337 16.9789 71.8559V71.756C16.9736 71.2463 16.8185 70.7494 16.5331 70.3271C16.2476 69.9048 15.8443 69.5757 15.3733 69.3808C14.9023 69.1859 14.3843 69.1336 13.8839 69.2307C13.3835 69.3277 12.9227 69.5698 12.5587 69.9267C12.1947 70.2836 11.9437 70.7396 11.8368 71.238C11.73 71.7364 11.772 72.2554 11.9576 72.7302C12.1433 73.2049 12.4644 73.6144 12.881 73.9081C13.2977 74.2018 13.7914 74.3667 14.3009 74.382Z" fill="#F9BD3A"/>
<path d="M14.6701 66.1421C14.8213 66.1684 14.9745 66.1819 15.1281 66.1821C15.7378 66.1815 16.3279 65.9667 16.7953 65.5752C17.2627 65.1836 17.5776 64.6404 17.685 64.0402C17.692 64.0032 17.697 63.9673 17.702 63.9343C17.7709 63.4294 17.6898 62.9153 17.4689 62.456C17.2481 61.9968 16.8971 61.6125 16.4597 61.351C16.0222 61.0896 15.5176 60.9626 15.0086 60.9856C14.4995 61.0086 14.0083 61.1806 13.5963 61.4804C13.1842 61.7802 12.8693 62.1946 12.6907 62.6718C12.5122 63.1491 12.4778 63.6683 12.5919 64.165C12.7059 64.6617 12.9635 65.1138 13.3324 65.4653C13.7014 65.8168 14.1655 66.0521 14.6671 66.1421H14.6701Z" fill="#F9BD3A"/>
<path d="M111.135 43.595C111.501 44.1223 112.049 44.4957 112.673 44.6434C113.297 44.7911 113.954 44.7029 114.518 44.3953C115.081 44.0878 115.51 43.5828 115.724 42.9776C115.937 42.3724 115.919 41.7097 115.673 41.117L115.717 41.087L115.409 40.6331L115.383 40.596L115.108 40.1961L115.065 40.2252C114.602 39.7766 113.989 39.5159 113.345 39.4937C112.701 39.4716 112.071 39.6896 111.579 40.1053C111.086 40.521 110.766 41.105 110.679 41.7437C110.593 42.3825 110.747 43.0304 111.111 43.5621L111.135 43.595Z" fill="#F9BD3A"/>
<path d="M122.003 63.3912C121.664 63.4295 121.335 63.5343 121.036 63.6998C120.737 63.8653 120.473 64.0879 120.26 64.3553C120.047 64.6227 119.889 64.9296 119.795 65.2582C119.701 65.5867 119.672 65.9305 119.711 66.2701L119.723 66.3702C119.801 66.874 120.024 67.3437 120.367 67.7213C120.709 68.0989 121.155 68.3677 121.649 68.494C122.143 68.6203 122.663 68.5984 123.144 68.4315C123.626 68.2646 124.048 67.9598 124.358 67.555C124.667 67.1503 124.851 66.6636 124.887 66.1551C124.922 65.6466 124.807 65.1389 124.556 64.6952C124.305 64.2515 123.93 63.8914 123.476 63.6595C123.022 63.4277 122.51 63.3344 122.003 63.3912Z" fill="#F9BD3A"/>
<path d="M118.075 58.2999L118.084 58.327C118.244 58.8646 118.573 59.3363 119.022 59.6725C119.471 60.0087 120.016 60.1916 120.577 60.194C120.826 60.194 121.073 60.158 121.311 60.0871C121.639 59.9898 121.945 59.8289 122.211 59.6134C122.477 59.3979 122.698 59.1321 122.861 58.8312C123.024 58.5303 123.127 58.2002 123.162 57.8598C123.198 57.5193 123.166 57.1752 123.069 56.8471V56.8331C122.973 56.5056 122.813 56.2 122.598 55.9342C122.384 55.6684 122.119 55.4476 121.82 55.2841C121.52 55.1206 121.191 55.0177 120.851 54.9813C120.512 54.945 120.169 54.9758 119.841 55.0722C119.513 55.1685 119.208 55.3283 118.942 55.5426C118.676 55.757 118.455 56.0217 118.292 56.3214C118.128 56.6212 118.026 56.9502 117.989 57.2897C117.953 57.6292 117.984 57.9724 118.08 58.2999H118.075Z" fill="#F9BD3A"/>
<path d="M115.181 50.65L115.211 50.7111C115.425 51.1498 115.758 51.5193 116.172 51.7772C116.586 52.0351 117.065 52.171 117.553 52.1691C117.949 52.1698 118.34 52.0783 118.695 51.902C119.227 51.6412 119.655 51.2061 119.905 50.6688C120.156 50.1316 120.215 49.5247 120.073 48.9491L120.116 48.9291L119.926 48.5231C119.912 48.4911 119.897 48.4601 119.882 48.4291L119.843 48.349L119.643 47.9491L119.601 47.9691C119.241 47.4945 118.73 47.1577 118.152 47.015C117.574 46.8723 116.964 46.9322 116.425 47.185C116.115 47.3305 115.838 47.5357 115.608 47.7887C115.378 48.0417 115.2 48.3374 115.084 48.6593C114.969 48.9812 114.918 49.3229 114.934 49.6644C114.951 50.006 115.035 50.3409 115.181 50.65Z" fill="#F9BD3A"/>
<path d="M106.023 37.2543C106.506 37.7465 107.164 38.0269 107.853 38.0338C108.543 38.0407 109.207 37.7738 109.699 37.2914C110.068 36.9336 110.324 36.4749 110.433 35.9728C110.543 35.4706 110.502 34.947 110.316 34.4679C110.13 33.9887 109.807 33.5751 109.387 33.2787C108.967 32.9823 108.469 32.8162 107.955 32.8014C107.441 32.7866 106.934 32.9237 106.498 33.1954C106.062 33.4671 105.715 33.8613 105.502 34.329C105.288 34.7966 105.217 35.3169 105.298 35.8246C105.379 36.3322 105.607 36.8047 105.955 37.1832L106.023 37.2543Z" fill="#F9BD3A"/>
<path d="M122.748 71.9582C122.066 71.9454 121.405 72.2002 120.908 72.6679C120.411 73.1357 120.117 73.7792 120.088 74.4612C120.06 75.1431 120.299 75.8091 120.755 76.3169C121.211 76.8246 121.848 77.1338 122.529 77.1782C122.579 77.1782 122.629 77.1782 122.675 77.1782C123.341 77.1775 123.981 76.9214 124.464 76.4626C124.947 76.0038 125.235 75.3772 125.269 74.7121V74.6223C125.286 73.9352 125.031 73.2692 124.558 72.77C124.086 72.2708 123.435 71.9789 122.748 71.9582Z" fill="#F9BD3A"/>
<path d="M91.9929 23.7418C91.6617 24.3466 91.5843 25.0581 91.7777 25.7199C91.971 26.3817 92.4193 26.9396 93.0239 27.2709L93.0789 27.3009C93.6449 27.5994 94.3012 27.6787 94.922 27.5236C95.5429 27.3684 96.0847 26.9896 96.4438 26.4599C96.8028 25.9302 96.954 25.2869 96.8682 24.6527C96.7824 24.0186 96.4658 23.4381 95.9789 23.0228L96.0059 22.975L95.5259 22.7121L95.4629 22.6779L95.0529 22.456L95.0279 22.5019C94.4566 22.3287 93.843 22.3576 93.2903 22.5834C92.7376 22.8092 92.2795 23.2181 91.9929 23.7418Z" fill="#F9BD3A"/>
<path d="M99.8972 31.729L99.9321 31.7561C100.481 32.1726 101.174 32.354 101.857 32.2603C102.54 32.1665 103.157 31.8053 103.574 31.2561C103.89 30.8458 104.078 30.3509 104.113 29.834C104.148 29.3171 104.029 28.8016 103.771 28.3523C103.513 27.903 103.128 27.5404 102.664 27.3101C102.2 27.0798 101.678 26.9921 101.164 27.0584C100.65 27.1246 100.168 27.3417 99.777 27.6821C99.3866 28.0226 99.1058 28.4712 98.9702 28.9712C98.8346 29.4712 98.8503 30.0001 99.0153 30.4912C99.1803 30.9823 99.4872 31.4135 99.8972 31.7302V31.729Z" fill="#F9BD3A"/>
<path d="M140.177 103.19L130.542 93.5391C129.655 92.6497 128.458 92.1367 127.202 92.1069C125.946 92.0771 124.727 92.5328 123.798 93.3792L123.549 93.1301C122.837 92.4194 122.271 91.5763 121.882 90.6482C121.841 90.5054 121.787 90.3665 121.722 90.2332C121.433 89.4062 121.286 88.5362 121.287 87.6602V85.6821C121.965 85.7942 122.659 85.6351 123.221 85.239C123.782 84.843 124.165 84.2418 124.286 83.5657C124.408 82.8896 124.258 82.1927 123.87 81.626C123.482 81.0592 122.886 80.6681 122.212 80.5371C121.885 80.4742 121.548 80.4742 121.221 80.5371C120.935 77.7559 119.699 75.1584 117.721 73.1821L108.374 63.8191C106.5 61.9411 104.041 60.7595 101.404 60.47C98.7674 60.1804 96.1106 60.8004 93.874 62.2271L93.359 61.7102V38.4612C93.3596 35.5003 92.2834 32.6401 90.3311 30.4141C89.0919 29.0018 88.4091 27.1869 88.41 25.3081V24.1191C89.631 24.0155 90.7686 23.4576 91.5981 22.5557C92.4277 21.6538 92.8886 20.4734 92.89 19.248V5.59521C92.8887 4.29968 92.3736 3.05753 91.4576 2.14136C90.5416 1.22518 89.2996 0.709596 88.004 0.708008H49.67C48.3745 0.709596 47.1325 1.22518 46.2165 2.14136C45.3005 3.05753 44.7854 4.29968 44.7841 5.59521V19.248C44.7854 20.5036 45.2693 21.7107 46.1358 22.6194C47.0023 23.5281 48.1849 24.0691 49.439 24.1301V24.488C49.442 25.504 49.2437 26.5106 48.8554 27.4495C48.4672 28.3883 47.8968 29.2409 47.1771 29.958L43.0391 34.104C41.9052 35.2345 41.0065 36.5784 40.3948 38.0581C39.7831 39.5378 39.4705 41.124 39.475 42.7251V55.9661C39.4716 57.5221 39.7832 59.0627 40.3911 60.4951C37.829 60.8204 35.4483 61.9899 33.6251 63.8191L24.278 73.1821C23.1439 74.3125 22.2451 75.6563 21.6332 77.136C21.0213 78.6157 20.7085 80.202 20.713 81.8032V87.665C20.7162 88.681 20.518 89.6876 20.1299 90.6265C19.7419 91.5653 19.1716 92.4178 18.452 93.135L18.204 93.384C17.2754 92.5379 16.0562 92.0826 14.8002 92.1125C13.5443 92.1425 12.3483 92.6557 11.4611 93.5452L1.82501 103.196C0.911469 104.114 0.398682 105.357 0.398682 106.652C0.398682 107.947 0.911469 109.19 1.82501 110.108L5.12506 113.408C5.36557 113.651 5.65189 113.843 5.96741 113.975C6.28293 114.106 6.62132 114.173 6.96301 114.172C7.47698 114.172 7.97941 114.019 8.40674 113.734C8.83407 113.448 9.16716 113.042 9.36395 112.568C9.56074 112.093 9.6124 111.57 9.51239 111.066C9.41238 110.562 9.1652 110.099 8.80206 109.735L5.72107 106.648L14.9141 97.4402L41.5831 124.155L32.39 133.364L14.613 115.556C14.3724 115.314 14.0861 115.121 13.7706 114.99C13.4551 114.859 13.1167 114.792 12.775 114.792C12.2611 114.792 11.7587 114.945 11.3314 115.23C10.904 115.516 10.5709 115.922 10.3741 116.397C10.1774 116.872 10.1257 117.394 10.2257 117.898C10.3257 118.402 10.5729 118.865 10.936 119.229L28.936 137.261C29.3895 137.716 29.9282 138.076 30.5212 138.322C31.1143 138.568 31.75 138.695 32.392 138.695C33.0341 138.695 33.6698 138.568 34.2629 138.322C34.8559 138.076 35.3945 137.716 35.848 137.261L45.483 127.609C46.3477 126.74 46.8551 125.578 46.9051 124.353C46.9551 123.128 46.544 121.929 45.7531 120.992L46.5941 120.15C47.9179 118.822 49.6808 118.023 51.5521 117.902C54.5052 117.711 57.2872 116.449 59.377 114.354L68.1251 105.587C69.3419 105.235 70.4517 104.585 71.3541 103.696C72.2564 102.807 72.9228 101.707 73.293 100.496C74.1332 100.81 75.0231 100.97 75.92 100.968C77.9224 100.965 79.8416 100.167 81.2567 98.7505C82.6717 97.3338 83.467 95.4135 83.468 93.4111V89.3391C84.226 89.5888 85.019 89.7154 85.817 89.7141C87.8191 89.7107 89.7381 88.9131 91.153 87.4966C92.5678 86.08 93.363 84.1603 93.364 82.1582V69.0762L98.7421 74.4761C99.2285 74.9649 99.8891 75.2405 100.579 75.2422C101.268 75.2439 101.93 74.9715 102.419 74.4851C102.908 73.9987 103.183 73.338 103.185 72.6484C103.187 71.9589 102.914 71.2969 102.428 70.8081L97.709 66.0662C98.4809 65.7531 99.3061 65.592 100.139 65.592C100.987 65.5899 101.826 65.7563 102.609 66.0813C103.392 66.4063 104.102 66.8833 104.699 67.4851L114.046 76.8472C114.697 77.4959 115.213 78.2669 115.564 79.116C115.915 79.965 116.094 80.8754 116.092 81.7942V87.656C116.087 89.3543 116.419 91.037 117.068 92.6064C117.717 94.1759 118.67 95.6011 119.873 96.8L120.124 97.051L99.915 117.296L99.0911 116.471C96.8739 114.25 93.9231 112.912 90.791 112.709C89.0964 112.598 87.5002 111.874 86.301 110.671L79.5571 103.963C79.3163 103.722 79.0303 103.532 78.7155 103.402C78.4008 103.272 78.0635 103.206 77.723 103.207H77.7161C77.2022 103.209 76.7003 103.363 76.2739 103.65C75.8475 103.936 75.5156 104.343 75.3203 104.819C75.1249 105.294 75.0747 105.817 75.1761 106.32C75.2775 106.824 75.5259 107.286 75.89 107.649L82.6281 114.349C84.7185 116.445 87.5012 117.706 90.455 117.897C92.3258 118.018 94.0883 118.817 95.412 120.144L95.5001 120.232C95.5606 120.3 95.6246 120.364 95.692 120.425L96.2531 120.987C95.4621 121.924 95.051 123.123 95.101 124.348C95.1509 125.573 95.6583 126.735 96.523 127.604L106.158 137.256C106.612 137.71 107.15 138.071 107.743 138.317C108.336 138.563 108.972 138.689 109.614 138.689C110.256 138.689 110.892 138.563 111.485 138.317C112.078 138.071 112.617 137.71 113.07 137.256L140.181 110.098C141.093 109.18 141.604 107.938 141.603 106.643C141.603 105.349 141.09 104.108 140.177 103.19ZM100.417 124.152L127.086 97.437L136.279 106.645L109.61 133.361L100.417 124.152ZM80.8651 56.6631C80.1755 56.6631 79.5141 56.937 79.0266 57.4246C78.539 57.9122 78.265 58.5736 78.265 59.2632V93.4102C78.2679 93.9968 78.0509 94.5632 77.6568 94.9978C77.2627 95.4324 76.7201 95.7036 76.1359 95.7578C75.5518 95.812 74.9685 95.6454 74.5011 95.2908C74.0337 94.9362 73.7161 94.4192 73.611 93.842V59.2422C73.6078 58.5471 73.3287 57.8816 72.8349 57.3923C72.3411 56.9031 71.6732 56.6299 70.978 56.6331C70.2829 56.6362 69.6175 56.9154 69.1282 57.4092C68.639 57.903 68.3658 58.571 68.369 59.2661V93.4121C68.369 93.6794 68.3834 93.9465 68.412 94.2122V98.3181C68.412 98.9414 68.1645 99.539 67.7238 99.9797C67.283 100.42 66.6853 100.668 66.062 100.668C65.4388 100.668 64.841 100.42 64.4003 99.9797C63.9596 99.539 63.712 98.9414 63.712 98.3181V59.218C63.712 58.5285 63.4381 57.8672 62.9505 57.3796C62.4629 56.892 61.8016 56.6182 61.1121 56.6182C60.4225 56.6182 59.7612 56.892 59.2736 57.3796C58.786 57.8672 58.512 58.5285 58.512 59.218V93.4121C58.512 94.0354 58.2644 94.633 57.8237 95.0737C57.383 95.5144 56.7853 95.7622 56.162 95.7622C55.5388 95.7622 54.9411 95.5144 54.5004 95.0737C54.0597 94.633 53.812 94.0354 53.812 93.4121V55.2341C53.812 54.5446 53.5381 53.8833 53.0505 53.3958C52.5629 52.9082 51.9016 52.634 51.212 52.634C50.5225 52.634 49.8611 52.9082 49.3735 53.3958C48.8859 53.8833 48.6121 54.5446 48.6121 55.2341V61.9221C47.4438 61.4234 46.4473 60.5933 45.7456 59.5344C45.044 58.4756 44.668 57.2343 44.6641 55.9641V42.7222C44.6614 41.8033 44.8407 40.8929 45.1917 40.0437C45.5427 39.1945 46.0584 38.4231 46.709 37.7742L50.847 33.6282C52.0503 32.4295 53.004 31.0041 53.6532 29.4346C54.3023 27.8651 54.634 26.1826 54.629 24.4841V24.1311H58.2081C58.5495 24.1311 58.8876 24.0638 59.203 23.9331C59.5184 23.8024 59.8051 23.6111 60.0465 23.3696C60.2879 23.1282 60.4794 22.8416 60.6101 22.5261C60.7408 22.2107 60.808 21.8724 60.808 21.531C60.808 21.1896 60.7408 20.8516 60.6101 20.5361C60.4794 20.2207 60.2879 19.9341 60.0465 19.6926C59.8051 19.4512 59.5184 19.2598 59.203 19.1292C58.8876 18.9985 58.5495 18.9312 58.2081 18.9312H49.9741V5.9021H87.6951V18.9312H67.853C67.5116 18.9312 67.1735 18.9985 66.858 19.1292C66.5426 19.2598 66.256 19.4512 66.0146 19.6926C65.7732 19.9341 65.5816 20.2207 65.4509 20.5361C65.3203 20.8516 65.2531 21.1896 65.2531 21.531C65.2531 21.8724 65.3203 22.2107 65.4509 22.5261C65.5816 22.8416 65.7732 23.1282 66.0146 23.3696C66.256 23.6111 66.5426 23.8024 66.858 23.9331C67.1735 24.0638 67.5116 24.1311 67.853 24.1311H83.215V25.3042C83.2142 28.4444 84.3551 31.4777 86.425 33.8391C87.5455 35.1162 88.1632 36.7571 88.163 38.4561V82.156C88.163 82.7793 87.9154 83.3772 87.4747 83.8179C87.034 84.2586 86.4363 84.5061 85.813 84.5061C85.1898 84.5061 84.5921 84.2586 84.1514 83.8179C83.7107 83.3772 83.463 82.7793 83.463 82.156V59.2622C83.4627 58.5732 83.189 57.9124 82.7018 57.425C82.2147 56.9377 81.5541 56.6636 80.8651 56.6631ZM21.879 97.0542L22.1301 96.8032C23.333 95.6043 24.2864 94.1788 24.9354 92.6094C25.5843 91.0399 25.9159 89.3575 25.911 87.6592V81.7971C25.9082 80.8783 26.0875 79.968 26.4385 79.1189C26.7895 78.2698 27.3053 77.4987 27.9561 76.8501L37.303 67.488C38.2004 66.5885 39.3437 65.9742 40.5892 65.7227C41.8347 65.4711 43.1268 65.5935 44.303 66.0742L39.576 70.8091C39.0888 71.2971 38.8154 71.9586 38.816 72.6482C38.8165 73.3378 39.091 73.9989 39.579 74.4861C40.067 74.9733 40.7286 75.2467 41.4182 75.2461C42.1077 75.2455 42.7688 74.9712 43.256 74.4832L48.619 69.1101V93.4102C48.6201 95.4125 49.4154 97.3325 50.8304 98.7493C52.2455 100.166 54.1647 100.964 56.1671 100.967C57.0772 100.969 57.98 100.805 58.8311 100.482C59.3279 102.14 60.3788 103.577 61.808 104.553L55.694 110.68C54.4976 111.881 52.9043 112.603 51.213 112.713C48.0809 112.916 45.1302 114.254 42.913 116.475L42.0891 117.3L41.377 116.585L41.345 116.553L21.879 97.0542Z" fill="#F9BD3A"/>
<path d="M56.168 9.67823C55.6265 9.67743 55.0969 9.83739 54.6462 10.1377C54.1956 10.438 53.8441 10.8651 53.6364 11.3652C53.4287 11.8653 53.3739 12.4158 53.4792 12.947C53.5844 13.4782 53.8449 13.9665 54.2276 14.3496C54.6103 14.7327 55.0981 14.9935 55.6292 15.0994C56.1603 15.2052 56.7108 15.1513 57.2112 14.9441C57.7115 14.7369 58.1392 14.3859 58.44 13.9355C58.7408 13.4852 58.9013 12.9558 58.9011 12.4143C58.9008 11.6893 58.6128 10.9939 58.1005 10.481C57.5881 9.968 56.8931 9.67929 56.168 9.67823Z" fill="#F9BD3A"/>
<path d="M127.756 108.709C128.297 108.71 128.826 108.55 129.277 108.25C129.727 107.949 130.078 107.522 130.286 107.022C130.493 106.522 130.548 105.972 130.443 105.441C130.338 104.91 130.077 104.423 129.695 104.04C129.312 103.657 128.825 103.396 128.294 103.29C127.763 103.184 127.213 103.238 126.713 103.445C126.212 103.652 125.785 104.003 125.484 104.453C125.183 104.903 125.023 105.432 125.023 105.973C125.023 106.698 125.311 107.393 125.824 107.906C126.336 108.419 127.031 108.708 127.756 108.709Z" fill="#F9BD3A"/>
<path d="M35.693 124.722C35.6923 124.182 35.5313 123.654 35.2305 123.205C34.9296 122.756 34.5024 122.406 34.0029 122.2C33.5034 121.994 32.954 121.94 32.4241 122.046C31.8941 122.152 31.4075 122.413 31.0257 122.795C30.644 123.178 30.3842 123.665 30.2792 124.195C30.1741 124.725 30.2286 125.275 30.4357 125.774C30.6428 126.273 30.9933 126.699 31.4428 126.999C31.8923 127.299 32.4206 127.46 32.9611 127.459C33.6861 127.458 34.381 127.169 34.8932 126.656C35.4054 126.143 35.693 125.447 35.693 124.722Z" fill="#F9BD3A"/>
</svg>
