<svg width="218" height="218" viewBox="0 0 218 218" fill="#F9BD3A" xmlns="http://www.w3.org/2000/svg">
<path d="M217.074 51.9389C216.517 49.8658 215.357 48.0045 213.742 46.5904C212.127 45.1763 210.129 44.273 208.001 43.9947C205.872 43.7164 203.709 44.0756 201.785 45.0268C199.86 45.9781 198.261 47.4787 197.19 49.3389L195.383 52.4849C194.557 52.0106 193.578 51.8811 192.658 52.1245C191.737 52.3679 190.95 52.9645 190.467 53.7849L181.281 69.4359L178.135 67.6289C177.724 67.3858 177.269 67.2265 176.796 67.1603C176.323 67.0942 175.842 67.1224 175.38 67.2433C174.918 67.3643 174.485 67.5757 174.105 67.8652C173.726 68.1546 173.407 68.5165 173.168 68.9299C172.929 69.3432 172.775 69.7998 172.713 70.2733C172.652 70.7468 172.685 71.2277 172.811 71.6883C172.937 72.1489 173.152 72.58 173.446 72.9567C173.739 73.3334 174.104 73.6482 174.52 73.8829L177.666 75.6909L146.941 128.941L139.349 149.223L135.734 155.982C134.697 157.785 134.201 159.847 134.304 161.924C134.406 164.001 135.104 166.004 136.313 167.696L128.179 177.673L125.901 171.96C125.398 170.713 124.556 169.63 123.472 168.835C122.387 168.039 121.102 167.562 119.761 167.457C118.42 167.352 117.076 167.623 115.881 168.239C114.685 168.856 113.686 169.793 112.994 170.947L111.694 173.147L110.466 158.686C110.33 157.026 109.625 155.463 108.47 154.263C107.315 153.062 105.781 152.297 104.128 152.097C102.474 151.897 100.802 152.275 99.3939 153.165C97.9862 154.056 96.9293 155.406 96.4019 156.986L87.5089 183.665C87.2104 184.571 87.2822 185.559 87.7088 186.412C88.1353 187.265 88.8819 187.916 89.7859 188.221C90.1384 188.386 90.5185 188.484 90.9069 188.509C91.6648 188.511 92.4042 188.275 93.0206 187.834C93.637 187.393 94.0993 186.77 94.3419 186.052L103.198 159.373L104.464 174.049C104.591 175.575 105.198 177.021 106.2 178.179C107.201 179.338 108.544 180.148 110.036 180.494C111.528 180.84 113.09 180.703 114.499 180.104C115.908 179.505 117.091 178.473 117.876 177.159L119.214 174.953L121.456 180.63C121.923 181.806 122.692 182.838 123.683 183.625C124.675 184.411 125.856 184.922 127.108 185.109C128.359 185.296 129.638 185.15 130.816 184.688C131.994 184.225 133.03 183.461 133.82 182.473L142.243 171.809C143.175 172.053 144.135 172.174 145.099 172.171C147.003 172.185 148.877 171.698 150.533 170.759C152.19 169.819 153.569 168.461 154.534 166.819L158.149 160.782L171.923 144.044L202.977 90.1439L206.122 91.9519C206.535 92.1889 206.898 92.5051 207.189 92.8824C207.48 93.2598 207.694 93.6908 207.818 94.1509C207.943 94.6109 207.975 95.091 207.913 95.5636C207.852 96.0362 207.698 96.492 207.46 96.9049L192.999 121.959C192.734 122.36 192.552 122.811 192.464 123.284C192.376 123.757 192.385 124.243 192.489 124.713C192.592 125.182 192.79 125.626 193.069 126.018C193.347 126.41 193.702 126.742 194.112 126.994C194.522 127.247 194.978 127.414 195.454 127.486C195.929 127.558 196.415 127.534 196.881 127.415C197.347 127.296 197.784 127.085 198.167 126.793C198.55 126.502 198.87 126.137 199.109 125.719L213.569 100.665C214.282 99.4308 214.746 98.0682 214.932 96.6549C215.118 95.2416 215.024 93.8055 214.654 92.4286C214.285 91.0518 213.648 89.7614 212.779 88.6312C211.91 87.5009 210.827 86.5531 209.592 85.8419L206.446 84.0349L215.484 68.3809C215.958 67.5554 216.087 66.5762 215.844 65.6558C215.601 64.7355 215.004 63.9482 214.184 63.4649L215.992 60.3199C216.724 59.0664 217.197 57.6787 217.383 56.2391C217.569 54.7995 217.464 53.3372 217.074 51.9389ZM203.445 52.9509C203.682 52.5357 203.999 52.1716 204.378 51.8798C204.757 51.588 205.19 51.3742 205.652 51.2509C206.58 51.0216 207.561 51.1508 208.399 51.6129C208.814 51.85 209.178 52.167 209.469 52.5454C209.761 52.9239 209.975 53.3564 210.099 53.8179C210.328 54.7465 210.199 55.7274 209.737 56.5649L207.93 59.7099L201.639 56.0949L203.445 52.9509ZM154.171 153.887L152.364 152.838L147.013 149.728L152.146 135.991L163.533 142.57L154.171 153.887ZM143.325 164.333C142.588 163.82 142.068 163.05 141.868 162.174C141.668 161.299 141.8 160.38 142.241 159.597L144.048 156.453L150.338 160.068L148.531 163.176C148.281 163.611 147.943 163.989 147.538 164.286C147.134 164.583 146.672 164.792 146.183 164.901C145.693 165.01 145.186 165.015 144.694 164.917C144.202 164.819 143.736 164.62 143.325 164.332V164.333ZM167.655 136.643L155.147 129.412L184.068 79.3049L196.576 86.5359L167.655 136.643ZM200.192 80.2809L187.684 73.0509L194.914 60.5429L207.422 67.7729L200.192 80.2809Z" fill="#062F66"/>
<path d="M57.5729 162.526L44.7729 175.289L37.1079 167.625C36.7708 167.29 36.3711 167.025 35.9316 166.845C35.4921 166.664 35.0213 166.572 34.5462 166.574C34.0711 166.575 33.6009 166.67 33.1626 166.854C32.7242 167.037 32.3262 167.305 31.9914 167.642C31.6565 167.979 31.3913 168.378 31.2109 168.818C31.0305 169.257 30.9384 169.728 30.94 170.203C30.9415 170.678 31.0366 171.149 31.2198 171.587C31.4031 172.025 31.6708 172.423 32.0079 172.758L39.6729 180.423C41.0364 181.767 42.874 182.52 44.7884 182.52C46.7028 182.52 48.5403 181.767 49.9039 180.423L62.6649 167.623C63.2614 166.932 63.5743 166.04 63.5407 165.128C63.5072 164.216 63.1297 163.35 62.4841 162.704C61.8384 162.058 60.9724 161.681 60.06 161.647C59.1475 161.614 58.2562 161.927 57.5649 162.523L57.5729 162.526Z" fill="#062F66"/>
<path d="M14.9878 172.25C14.9647 176.3 15.7425 180.315 17.2764 184.063C18.8103 187.812 21.07 191.22 23.9257 194.092C26.7814 196.964 30.1767 199.243 33.9163 200.798C37.656 202.354 41.6662 203.154 45.7163 203.154C49.7664 203.154 53.7766 202.354 57.5163 200.798C61.2559 199.243 64.6512 196.964 67.5069 194.092C70.3626 191.22 72.6224 187.812 74.1562 184.063C75.6901 180.315 76.4679 176.3 76.4448 172.25C76.4448 171.291 76.0639 170.372 75.386 169.694C74.708 169.016 73.7886 168.635 72.8298 168.635C71.871 168.635 70.9516 169.016 70.2736 169.694C69.5957 170.372 69.2148 171.291 69.2148 172.25C69.2148 177.544 67.4274 182.683 64.1421 186.834C60.8568 190.985 56.2662 193.905 51.114 195.121C45.9618 196.338 40.5498 195.779 35.755 193.535C30.9601 191.291 27.0632 187.495 24.6958 182.76C22.3283 178.025 21.6289 172.629 22.7109 167.447C23.7929 162.265 26.5929 157.6 30.6572 154.208C34.7216 150.816 39.8122 148.896 45.1042 148.758C50.3963 148.62 55.5797 150.274 59.8148 153.45C60.5818 154.025 61.546 154.273 62.4952 154.137C63.4444 154.002 64.3009 153.495 64.8763 152.728C65.4517 151.961 65.6988 150.996 65.5633 150.047C65.4278 149.098 64.9208 148.241 64.1538 147.666C59.5885 144.242 54.16 142.157 48.4764 141.645C42.7929 141.132 37.079 142.212 31.9748 144.764C26.8707 147.316 22.578 151.239 19.5777 156.093C16.5774 160.948 14.9881 166.541 14.9878 172.248V172.25Z" fill="#062F66"/>
<path d="M130.676 29.45C131.635 29.45 132.554 29.0691 133.232 28.3912C133.91 27.7132 134.291 26.7937 134.291 25.835C134.291 24.8762 133.91 23.9567 133.232 23.2788C132.554 22.6008 131.635 22.22 130.676 22.22H36.6758C36.2011 22.22 35.731 22.3135 35.2924 22.4951C34.8538 22.6768 34.4553 22.9431 34.1196 23.2788C33.7839 23.6145 33.5176 24.013 33.336 24.4516C33.1543 24.8902 33.0608 25.3602 33.0608 25.835V40.298C33.0607 40.7727 33.1541 41.2429 33.3357 41.6815C33.5173 42.1202 33.7836 42.5187 34.1193 42.8545C34.455 43.1902 34.8536 43.4564 35.2922 43.6381C35.7309 43.8197 36.201 43.9131 36.6758 43.913H130.676C131.635 43.913 132.554 43.5321 133.232 42.8542C133.91 42.1762 134.291 41.2567 134.291 40.298C134.291 39.3392 133.91 38.4197 133.232 37.7418C132.554 37.0638 131.635 36.683 130.676 36.683H40.2938V29.45H130.676Z" fill="#062F66"/>
<path d="M47.5249 51.1431C46.5662 51.1431 45.6467 51.5239 44.9687 52.2019C44.2908 52.8798 43.9099 53.7993 43.9099 54.7581C43.9099 55.7168 44.2908 56.6363 44.9687 57.3143C45.6467 57.9922 46.5662 58.3731 47.5249 58.3731H119.825C120.784 58.3731 121.703 57.9922 122.381 57.3143C123.059 56.6363 123.44 55.7168 123.44 54.7581C123.44 53.7993 123.059 52.8798 122.381 52.2019C121.703 51.5239 120.784 51.1431 119.825 51.1431H47.5249Z" fill="#062F66"/>
<path d="M141.518 76.449H61.9839C61.0251 76.449 60.1056 76.8298 59.4277 77.5078C58.7498 78.1857 58.3689 79.1052 58.3689 80.064C58.3689 81.0227 58.7498 81.9422 59.4277 82.6202C60.1056 83.2981 61.0251 83.679 61.9839 83.679H141.517C142.476 83.679 143.395 83.2981 144.073 82.6202C144.751 81.9422 145.132 81.0227 145.132 80.064C145.132 79.1052 144.751 78.1857 144.073 77.5078C143.395 76.8298 142.477 76.449 141.518 76.449Z" fill="#062F66"/>
<path d="M105.366 101.755C105.366 100.796 104.985 99.8766 104.307 99.1987C103.629 98.5208 102.71 98.1399 101.751 98.1399H29.4509C28.4922 98.1399 27.5727 98.5208 26.8947 99.1987C26.2168 99.8766 25.8359 100.796 25.8359 101.755C25.8359 102.714 26.2168 103.633 26.8947 104.311C27.5727 104.989 28.4922 105.37 29.4509 105.37H101.751C102.226 105.37 102.696 105.277 103.134 105.095C103.573 104.913 103.972 104.647 104.307 104.311C104.643 103.976 104.909 103.577 105.091 103.138C105.273 102.7 105.366 102.23 105.366 101.755Z" fill="#062F66"/>
<path d="M141.518 98.1399H116.212C115.253 98.1399 114.334 98.5208 113.656 99.1987C112.978 99.8766 112.597 100.796 112.597 101.755C112.597 102.714 112.978 103.633 113.656 104.311C114.334 104.989 115.253 105.37 116.212 105.37H141.518C142.477 105.37 143.396 104.989 144.074 104.311C144.752 103.633 145.133 102.714 145.133 101.755C145.133 100.796 144.752 99.8766 144.074 99.1987C143.396 98.5208 142.477 98.1399 141.518 98.1399Z" fill="#062F66"/>
<path d="M65.5998 123.446C66.5585 123.446 67.478 123.065 68.156 122.387C68.8339 121.709 69.2148 120.79 69.2148 119.831C69.2148 118.872 68.8339 117.953 68.156 117.275C67.478 116.597 66.5585 116.216 65.5998 116.216H29.4478C28.489 116.216 27.5695 116.597 26.8916 117.275C26.2136 117.953 25.8328 118.872 25.8328 119.831C25.8328 120.79 26.2136 121.709 26.8916 122.387C27.5695 123.065 28.489 123.446 29.4478 123.446H65.5998Z" fill="#062F66"/>
<path d="M80.0598 123.446H105.366C106.325 123.446 107.244 123.065 107.922 122.387C108.6 121.709 108.981 120.79 108.981 119.831C108.981 118.872 108.6 117.953 107.922 117.275C107.244 116.597 106.325 116.216 105.366 116.216H80.0598C79.1011 116.216 78.1816 116.597 77.5036 117.275C76.8257 117.953 76.4448 118.872 76.4448 119.831C76.4448 120.79 76.8257 121.709 77.5036 122.387C78.1816 123.065 79.1011 123.446 80.0598 123.446Z" fill="#062F66"/>
<path d="M163.209 166.828C162.25 166.828 161.331 167.209 160.653 167.887C159.975 168.565 159.594 169.484 159.594 170.443V206.594C159.594 207.069 159.501 207.539 159.319 207.978C159.137 208.416 158.871 208.815 158.535 209.15C158.2 209.486 157.801 209.752 157.362 209.934C156.924 210.116 156.454 210.209 155.979 210.209H11.3729C10.4141 210.209 9.49461 209.828 8.81666 209.15C8.13872 208.472 7.75786 207.553 7.75786 206.594V11.377C7.75772 10.9022 7.85113 10.432 8.03274 9.9933C8.21436 9.55459 8.48061 9.15596 8.81631 8.82017C9.15201 8.48438 9.55057 8.21801 9.98922 8.03628C10.4279 7.85454 10.898 7.76101 11.3729 7.76101H155.979C156.938 7.76101 157.857 8.14187 158.535 8.81981C159.213 9.49776 159.594 10.4172 159.594 11.376V79.27C159.594 79.7447 159.687 80.2148 159.869 80.6534C160.051 81.092 160.317 81.4905 160.653 81.8262C160.988 82.1619 161.387 82.4282 161.825 82.6098C162.264 82.7915 162.734 82.885 163.209 82.885C163.684 82.885 164.154 82.7915 164.592 82.6098C165.031 82.4282 165.429 82.1619 165.765 81.8262C166.101 81.4905 166.367 81.092 166.549 80.6534C166.73 80.2148 166.824 79.7447 166.824 79.27V11.377C166.824 8.50064 165.681 5.74207 163.647 3.70808C161.614 1.67409 158.855 0.531271 155.979 0.531006H11.3729C8.49632 0.531006 5.73759 1.67371 3.70358 3.70773C1.66956 5.74175 0.526856 8.50047 0.526856 11.377V206.595C0.526724 208.019 0.807175 209.43 1.35219 210.746C1.89721 212.062 2.69611 213.257 3.70328 214.265C4.71045 215.272 5.90616 216.071 7.22212 216.616C8.53807 217.161 9.9485 217.441 11.3729 217.441H155.979C157.403 217.441 158.814 217.161 160.13 216.616C161.446 216.071 162.642 215.272 163.65 214.265C164.657 213.258 165.456 212.062 166.001 210.746C166.546 209.43 166.827 208.02 166.827 206.595V170.443C166.827 169.968 166.733 169.498 166.551 169.059C166.37 168.62 166.103 168.221 165.767 167.886C165.431 167.55 165.032 167.284 164.593 167.102C164.154 166.921 163.684 166.828 163.209 166.828Z" fill="#062F66"/>
</svg>
