<svg width="137" height="137" viewBox="0 0 137 137" fill="none" xmlns="http://www.w3.org/2000/svg">
<path d="M48.4671 89.1819C47.3541 89.2145 46.2523 88.9517 45.2741 88.4199C44.2958 87.8882 43.476 87.1067 42.898 86.155C42.3512 85.1659 42.0765 84.0494 42.102 82.9194C42.1274 81.7895 42.4522 80.6864 43.043 79.7229C45.419 75.5729 47.564 72.023 49.643 68.583C51.904 64.837 54.2431 60.9628 56.8571 56.3508C57.4892 55.1624 58.2938 54.0742 59.245 53.1218C59.4729 52.9029 59.7417 52.731 60.0359 52.616C60.3302 52.5009 60.6442 52.4451 60.9601 52.4514C61.276 52.4577 61.5875 52.5261 61.877 52.6528C62.1664 52.7796 62.4281 52.9621 62.647 53.1899C62.8659 53.4178 63.0378 53.6864 63.1529 53.9807C63.2679 54.275 63.324 54.5891 63.3177 54.905C63.3113 55.2209 63.2429 55.5326 63.1161 55.822C62.9894 56.1115 62.8069 56.3731 62.579 56.592C61.9671 57.2254 61.4497 57.9437 61.043 58.7249C58.396 63.3949 56.043 67.2971 53.762 71.0711C51.702 74.4841 49.5711 78.014 47.2221 82.116C47.056 82.3498 46.9539 82.623 46.9262 82.9085C46.8985 83.1939 46.946 83.4816 47.064 83.7429C47.2217 83.9628 47.435 84.1368 47.682 84.2473C47.9291 84.3578 48.201 84.4008 48.47 84.3718C57.746 84.3718 59.208 82.6359 62.122 79.1719L65.8481 74.749C66.0633 74.4935 66.3294 74.2855 66.6294 74.1384C66.9294 73.9914 67.2568 73.9084 67.5906 73.8948C67.9244 73.8811 68.2574 73.9372 68.5684 74.0593C68.8794 74.1814 69.1616 74.3669 69.397 74.604C71.5808 76.6678 74.2636 78.1285 77.1822 78.843C80.1007 79.5576 83.1548 79.5014 86.0451 78.6799C86.3479 78.5897 86.6656 78.5598 86.9799 78.5923C87.2942 78.6248 87.599 78.7189 87.877 78.8691C88.155 79.0194 88.4006 79.223 88.5999 79.4683C88.7992 79.7135 88.9482 79.9955 89.0385 80.2983C89.1288 80.6012 89.1586 80.9188 89.1261 81.2332C89.0937 81.5475 88.9996 81.8524 88.8493 82.1304C88.699 82.4084 88.4954 82.654 88.2502 82.8533C88.0049 83.0526 87.7229 83.2017 87.4201 83.292C84.1171 84.2128 80.6478 84.3695 77.2753 83.7503C73.9028 83.131 70.7154 81.7521 67.955 79.718L65.803 82.273C61.845 86.97 58.8461 89.1819 48.4671 89.1819ZM104.179 62.3389C103.744 62.3387 103.318 62.2211 102.945 61.9981L90.9781 54.8489C88.1591 53.1649 88.0511 53.1368 85.1551 53.4138C84.5197 53.4746 83.8863 53.2806 83.3941 52.8743C82.9019 52.468 82.5913 51.8826 82.5306 51.2473C82.4698 50.612 82.6639 49.9788 83.0702 49.4866C83.4765 48.9944 84.0617 48.6838 84.6971 48.6231C88.6261 48.2471 89.7711 48.523 93.4461 50.717L104.729 57.458L110.824 56.844C111.138 56.8124 111.456 56.8428 111.759 56.9338C112.061 57.0249 112.343 57.1748 112.587 57.3748C112.832 57.5747 113.035 57.8208 113.185 58.0991C113.334 58.3775 113.427 58.6824 113.459 58.9968C113.491 59.3112 113.46 59.6288 113.369 59.9314C113.278 60.234 113.128 60.5156 112.928 60.7603C112.728 61.0049 112.482 61.2079 112.204 61.3574C111.926 61.507 111.62 61.6002 111.306 61.6318L104.42 62.3259C104.34 62.3349 104.259 62.3389 104.179 62.3389Z" fill="#F9BD3A"/>
<path d="M121.298 109.423C119.425 109.422 117.611 108.77 116.166 107.578C115.328 106.897 114.634 106.057 114.124 105.105C113.613 104.154 113.297 103.11 113.193 102.036L108.969 59.446C108.753 57.2892 109.399 55.1343 110.767 53.4529C112.135 51.7714 114.113 50.7 116.269 50.4729L123.626 49.7309C124.688 49.6225 125.761 49.7259 126.783 50.0349C127.805 50.3439 128.755 50.8523 129.579 51.531C130.417 52.212 131.111 53.0525 131.621 54.0039C132.132 54.9552 132.448 55.9984 132.552 57.073L136.776 99.664C136.992 101.821 136.346 103.975 134.978 105.657C133.61 107.338 131.632 108.41 129.476 108.637L122.12 109.379C121.847 109.407 121.573 109.422 121.298 109.423ZM116.751 55.26C115.863 55.3572 115.05 55.8021 114.489 56.4973C113.928 57.1925 113.665 58.0815 113.758 58.9699L117.983 101.56C118.026 102.005 118.157 102.436 118.369 102.83C118.58 103.224 118.867 103.571 119.214 103.853C119.549 104.13 119.936 104.339 120.351 104.466C120.767 104.593 121.204 104.636 121.637 104.593L128.994 103.851C129.882 103.754 130.696 103.31 131.257 102.614C131.818 101.919 132.081 101.03 131.988 100.141L127.764 57.55C127.721 57.1054 127.589 56.6739 127.378 56.2805C127.166 55.887 126.879 55.5395 126.532 55.258C126.197 54.9805 125.811 54.772 125.395 54.645C124.979 54.518 124.542 54.4749 124.109 54.518L116.751 55.26Z" fill="#F9BD3A"/>
<path d="M63.0811 136.279C62.0077 136.283 60.9443 136.073 59.9532 135.66C58.9622 135.248 58.0633 134.643 57.3091 133.879C57.5208 133.29 57.5481 132.65 57.3873 132.045C57.2266 131.44 56.8853 130.898 56.4091 130.491C55.9328 130.085 55.344 129.833 54.7211 129.769C54.0982 129.706 53.4706 129.833 52.922 130.135C51.8486 130.139 50.7853 129.929 49.7942 129.516C48.8031 129.104 47.9042 128.499 47.15 127.735C47.3615 127.146 47.3886 126.506 47.2277 125.901C47.0668 125.296 46.7255 124.755 46.2493 124.348C45.7731 123.942 45.1845 123.69 44.5618 123.627C43.939 123.563 43.3116 123.69 42.7631 123.992C41.6897 123.996 40.6263 123.785 39.6353 123.373C38.6442 122.961 37.7453 122.356 36.9911 121.592C37.2028 121.003 37.2301 120.363 37.0693 119.758C36.9086 119.153 36.5673 118.611 36.0911 118.204C35.6148 117.798 35.026 117.546 34.4031 117.482C33.7802 117.419 33.1527 117.546 32.604 117.848C31.5307 117.852 30.4674 117.642 29.4763 117.23C28.4852 116.817 27.5862 116.212 26.832 115.448C25.3097 113.905 24.4563 111.824 24.4563 109.657C24.4563 107.489 25.3097 105.408 26.832 103.865L30.896 99.7649C31.6502 99.0013 32.5492 98.3958 33.5403 97.9837C34.5314 97.5716 35.5948 97.3613 36.6681 97.365C37.7414 97.3612 38.8048 97.5714 39.7959 97.9835C40.787 98.3955 41.6859 99.0012 42.4401 99.7649C42.2283 100.354 42.201 100.994 42.3618 101.599C42.5226 102.204 42.8638 102.746 43.3401 103.153C43.8164 103.559 44.4051 103.811 45.028 103.875C45.6509 103.938 46.2784 103.811 46.827 103.509C47.9005 103.505 48.9641 103.715 49.9553 104.127C50.9466 104.539 51.8458 105.145 52.6001 105.909C52.3884 106.498 52.361 107.138 52.5217 107.743C52.6825 108.348 53.0237 108.89 53.5 109.297C53.9763 109.703 54.5651 109.955 55.188 110.019C55.8109 110.082 56.4384 109.955 56.9871 109.653C58.0604 109.649 59.1238 109.859 60.1149 110.272C61.106 110.684 62.0049 111.289 62.759 112.053C62.5476 112.642 62.5205 113.282 62.6814 113.887C62.8423 114.492 63.1836 115.033 63.6598 115.44C64.136 115.846 64.7247 116.098 65.3474 116.161C65.9702 116.225 66.5974 116.098 67.146 115.796C68.2195 115.792 69.283 116.002 70.2743 116.414C71.2656 116.826 72.1647 117.432 72.9191 118.196C74.4411 119.739 75.2944 121.82 75.2944 123.987C75.2944 126.155 74.4411 128.235 72.9191 129.779L68.8551 133.879C68.1007 134.643 67.2013 135.249 66.2098 135.661C65.2184 136.073 64.1547 136.283 63.0811 136.279ZM61.401 124.32C61.3301 124.836 61.0933 125.314 60.7261 125.683C60.0945 126.323 59.7404 127.187 59.7404 128.086C59.7404 128.985 60.0945 129.848 60.7261 130.489C61.0339 130.8 61.4007 131.047 61.8051 131.215C62.2094 131.383 62.6432 131.469 63.0811 131.467C63.519 131.468 63.9529 131.383 64.3574 131.215C64.7619 131.047 65.1289 130.8 65.437 130.489L69.5 126.389C70.1313 125.749 70.4852 124.886 70.4852 123.986C70.4852 123.087 70.1313 122.224 69.5 121.584C69.1912 121.274 68.8243 121.028 68.4202 120.86C68.016 120.692 67.5827 120.605 67.145 120.605C66.7074 120.605 66.2741 120.692 65.87 120.86C65.4659 121.028 65.0988 121.274 64.79 121.584L62.7581 123.632C62.3931 124.002 61.9175 124.244 61.4031 124.32H61.401ZM51.2421 118.174C51.1708 118.689 50.9338 119.168 50.567 119.537C49.9357 120.177 49.5819 121.04 49.5819 121.94C49.5819 122.839 49.9357 123.702 50.567 124.342C50.8759 124.652 51.243 124.898 51.6472 125.066C52.0514 125.234 52.4849 125.321 52.9226 125.321C53.3603 125.321 53.7937 125.234 54.1979 125.066C54.6021 124.898 54.9692 124.652 55.2781 124.342L57.3101 122.293C57.8248 122.217 58.3011 121.976 58.6675 121.607C59.0339 121.238 59.2706 120.759 59.342 120.244C59.9721 119.604 60.3252 118.742 60.3252 117.844C60.3252 116.946 59.9721 116.084 59.342 115.444C59.0332 115.134 58.6662 114.888 58.2621 114.72C57.858 114.552 57.4247 114.466 56.9871 114.466C56.5495 114.466 56.1162 114.552 55.712 114.72C55.3079 114.888 54.9409 115.134 54.6321 115.444L52.6011 117.492C52.2341 117.861 51.7571 118.1 51.2421 118.174ZM41.083 112.028C41.0117 112.543 40.7749 113.022 40.4081 113.391C39.7768 114.031 39.4229 114.894 39.4229 115.794C39.4229 116.693 39.7768 117.556 40.4081 118.196C40.7168 118.506 41.0838 118.752 41.4879 118.92C41.8921 119.088 42.3254 119.175 42.7631 119.175C43.2007 119.175 43.6341 119.088 44.0382 118.92C44.4423 118.752 44.8093 118.506 45.118 118.196L47.15 116.148C47.6646 116.072 48.1407 115.831 48.5071 115.462C48.8734 115.093 49.1102 114.615 49.182 114.1C49.8133 113.46 50.1672 112.596 50.1672 111.697C50.1672 110.798 49.8133 109.935 49.182 109.295C48.8732 108.985 48.5062 108.739 48.1019 108.571C47.6977 108.403 47.2643 108.316 46.8265 108.316C46.3888 108.316 45.9554 108.403 45.5511 108.571C45.1469 108.739 44.7799 108.985 44.4711 109.295L42.4391 111.344C42.0729 111.713 41.5966 111.954 41.082 112.029L41.083 112.028ZM36.6681 102.17C36.2302 102.168 35.7962 102.254 35.3918 102.422C34.9875 102.59 34.6208 102.837 34.3131 103.149L30.249 107.249C29.6175 107.889 29.2634 108.752 29.2634 109.651C29.2634 110.551 29.6175 111.414 30.249 112.054C30.5579 112.364 30.9248 112.61 31.329 112.778C31.7331 112.946 32.1664 113.032 32.604 113.032C33.0416 113.032 33.4749 112.946 33.879 112.778C34.2832 112.61 34.6503 112.364 34.9591 112.054L36.9911 110.005C37.5058 109.929 37.982 109.688 38.3484 109.319C38.7147 108.949 38.9514 108.471 39.0231 107.956C39.6531 107.316 40.0062 106.454 40.0062 105.556C40.0062 104.658 39.6531 103.796 39.0231 103.156C38.7158 102.843 38.349 102.595 37.9445 102.426C37.5399 102.256 37.1055 102.17 36.667 102.171L36.6681 102.17Z" fill="#F9BD3A"/>
<path d="M77.8001 131.846C76.4664 131.828 75.1501 131.541 73.9293 131.004C72.7086 130.466 71.6084 129.689 70.6941 128.718C70.473 128.492 70.2985 128.225 70.1807 127.932C70.0628 127.639 70.0039 127.325 70.0072 127.009C70.0106 126.693 70.0762 126.381 70.2002 126.09C70.3242 125.8 70.5043 125.536 70.7301 125.315C70.9559 125.094 71.223 124.92 71.5162 124.802C71.8095 124.684 72.123 124.625 72.439 124.628C72.755 124.632 73.0673 124.697 73.3579 124.821C73.6486 124.945 73.912 125.125 74.1331 125.351C74.782 126.121 75.66 126.664 76.6391 126.899C77.6181 127.135 78.6468 127.052 79.5751 126.661C80.4001 126.321 81.1019 125.737 81.587 124.988C82.0722 124.238 82.3177 123.359 82.291 122.467C82.2751 122.006 82.3925 121.549 82.6289 121.152C82.8654 120.756 83.211 120.435 83.6245 120.23C84.0381 120.024 84.5019 119.942 84.9609 119.993C85.42 120.044 85.8546 120.226 86.213 120.517C88.032 121.995 89.763 122.283 91.218 121.351C91.8826 120.932 92.4112 120.329 92.7396 119.616C93.068 118.902 93.1821 118.108 93.068 117.331C92.9503 116.872 92.9711 116.387 93.1277 115.94C93.2843 115.492 93.5698 115.1 93.9484 114.814C94.3269 114.528 94.7816 114.361 95.2551 114.332C95.7287 114.304 96.2001 114.416 96.61 114.655C97.6402 115.252 98.8539 115.45 100.02 115.21C101.186 114.97 102.224 114.31 102.935 113.355C103.226 113.025 103.448 112.64 103.588 112.223C103.727 111.806 103.781 111.364 103.746 110.926C103.711 110.487 103.589 110.06 103.385 109.67C103.182 109.28 102.902 108.935 102.562 108.655L77.839 83.5001C77.3917 83.045 77.1436 82.4309 77.1492 81.7928C77.1547 81.1547 77.4134 80.5448 77.8685 80.0975C78.3237 79.6502 78.9378 79.4023 79.5759 79.4078C80.214 79.4133 80.8237 79.6719 81.271 80.127L105.98 105.267C107.479 106.666 108.391 108.581 108.534 110.626C108.676 112.671 108.037 114.694 106.747 116.287C105.688 117.639 104.297 118.693 102.711 119.35C101.124 120.006 99.3946 120.242 97.6901 120.034C97.1131 122.244 95.73 124.159 93.813 125.401C92.7259 126.101 91.4877 126.532 90.2009 126.659C88.9141 126.786 87.6158 126.604 86.4131 126.129C85.6931 127.818 84.4941 129.26 82.9641 130.275C81.4342 131.29 79.6403 131.836 77.8041 131.843L77.8001 131.846Z" fill="#F9BD3A"/>
<path d="M38.7 114.103C38.225 114.103 37.7606 113.962 37.3653 113.699C36.97 113.436 36.6614 113.061 36.4787 112.623C36.2959 112.184 36.247 111.701 36.3382 111.235C36.4293 110.769 36.6564 110.34 36.9909 110.003L39.023 107.954C39.2455 107.73 39.51 107.551 39.8014 107.429C40.0929 107.307 40.4056 107.244 40.7216 107.242C41.0376 107.241 41.3507 107.302 41.6431 107.422C41.9355 107.541 42.2016 107.717 42.4259 107.94C42.6503 108.162 42.8286 108.427 42.9507 108.719C43.0728 109.01 43.1364 109.322 43.1377 109.638C43.139 109.954 43.078 110.268 42.9583 110.56C42.8386 110.853 42.6625 111.119 42.44 111.343L40.408 113.392C40.1845 113.617 39.9183 113.797 39.6252 113.919C39.332 114.041 39.0176 114.103 38.7 114.103Z" fill="#F9BD3A"/>
<path d="M48.8588 120.25C48.3839 120.25 47.9196 120.109 47.5245 119.846C47.1294 119.582 46.821 119.208 46.6384 118.769C46.4558 118.331 46.4069 117.848 46.4981 117.382C46.5893 116.916 46.8165 116.487 47.1508 116.15L49.1828 114.101C49.4053 113.876 49.6699 113.698 49.9614 113.576C50.2528 113.454 50.5654 113.39 50.8814 113.389C51.1974 113.388 51.5106 113.449 51.8031 113.569C52.0955 113.688 52.3615 113.864 52.5859 114.087C52.8103 114.309 52.9886 114.574 53.1107 114.865C53.2328 115.157 53.2964 115.47 53.2977 115.786C53.299 116.102 53.238 116.415 53.1182 116.707C52.9985 116.999 52.8223 117.266 52.5998 117.49L50.5678 119.539C50.3442 119.765 50.078 119.944 49.7846 120.066C49.4913 120.188 49.1766 120.251 48.8588 120.25Z" fill="#F9BD3A"/>
<path d="M59.018 126.395C58.5431 126.395 58.0788 126.254 57.6837 125.991C57.2885 125.727 56.9802 125.353 56.7976 124.914C56.6149 124.476 56.5661 123.993 56.6573 123.527C56.7485 123.061 56.9756 122.632 57.31 122.295L59.342 120.246C59.5645 120.022 59.829 119.843 60.1204 119.721C60.4119 119.599 60.7246 119.536 61.0406 119.534C61.3566 119.533 61.6697 119.594 61.9621 119.714C62.2546 119.833 62.5206 120.009 62.745 120.232C62.9693 120.454 63.1477 120.719 63.2699 121.011C63.392 121.302 63.4554 121.615 63.4567 121.931C63.458 122.247 63.3972 122.56 63.2774 122.852C63.1577 123.145 62.9815 123.411 62.759 123.635L60.727 125.684C60.5034 125.91 60.2372 126.089 59.9438 126.211C59.6504 126.333 59.3358 126.396 59.018 126.395Z" fill="#F9BD3A"/>
<path d="M100.915 105.684C100.298 105.684 99.7042 105.446 99.2571 105.021C98.8101 104.595 98.5437 104.014 98.513 103.398C98.4823 102.781 98.6896 102.177 99.0922 101.709C99.4948 101.241 100.062 100.946 100.676 100.884L115.097 99.4301C115.732 99.3661 116.366 99.5567 116.861 99.9604C117.355 100.364 117.668 100.948 117.732 101.582C117.797 102.217 117.606 102.852 117.202 103.346C116.798 103.84 116.215 104.154 115.58 104.218L101.159 105.672C101.078 105.68 100.996 105.684 100.915 105.684Z" fill="#F9BD3A"/>
<path d="M33.5351 62.3389C33.4551 62.3389 33.3741 62.3389 33.2941 62.3269L26.7701 61.669C26.4557 61.6373 26.1507 61.5439 25.8724 61.3943C25.5941 61.2447 25.3479 61.0416 25.148 60.7969C24.9481 60.5522 24.7985 60.2706 24.7075 59.9681C24.6164 59.6655 24.5859 59.3479 24.6176 59.0335C24.6493 58.7191 24.7427 58.4141 24.8923 58.1358C25.0419 57.8575 25.2448 57.6113 25.4896 57.4114C25.7343 57.2115 26.016 57.0617 26.3185 56.9707C26.6211 56.8797 26.9387 56.8492 27.2531 56.8809L32.9841 57.459L44.2672 50.7181C47.9422 48.5181 49.0871 48.2481 53.0161 48.6241C53.6514 48.6848 54.2366 48.9954 54.6429 49.4876C55.0492 49.9798 55.2433 50.6132 55.1826 51.2486C55.1218 51.8839 54.8112 52.469 54.319 52.8753C53.8268 53.2816 53.1935 53.4758 52.5582 53.4151C49.6582 53.1391 49.5582 53.1649 46.7352 54.8499L34.7691 61.9991C34.396 62.2217 33.9696 62.3391 33.5351 62.3389Z" fill="#F9BD3A"/>
<path d="M16.417 109.423C16.1425 109.423 15.8681 109.409 15.595 109.381L8.23904 108.639C6.08313 108.412 4.10483 107.34 2.73684 105.659C1.36885 103.977 0.722439 101.822 0.938988 99.6651L1.28896 96.1402C1.35195 95.5052 1.66463 94.921 2.15823 94.5164C2.40263 94.3161 2.68415 94.1661 2.9866 94.0745C3.28905 93.983 3.60659 93.9518 3.92104 93.983C4.23549 94.0142 4.54066 94.107 4.81924 94.2562C5.09782 94.4053 5.34428 94.608 5.54458 94.8524C5.74487 95.0968 5.89508 95.3783 5.9866 95.6807C6.07812 95.9832 6.10922 96.3006 6.07803 96.6151L5.72805 100.141C5.63524 101.03 5.89801 101.919 6.45889 102.614C7.01976 103.309 7.83301 103.754 8.72097 103.851L16.078 104.593C16.5108 104.636 16.9478 104.593 17.3638 104.466C17.7797 104.339 18.1663 104.131 18.501 103.853C18.8476 103.572 19.1349 103.224 19.3462 102.83C19.5575 102.437 19.6886 102.006 19.732 101.561L23.956 58.971C24.049 58.0823 23.7864 57.1929 23.2252 56.4974C22.6641 55.8019 21.8504 55.3571 20.9621 55.2601L13.606 54.5182C13.1732 54.475 12.7363 54.5181 12.3203 54.6451C11.9044 54.7721 11.5178 54.9806 11.183 55.2581C10.8364 55.5397 10.5491 55.8872 10.3378 56.2806C10.1265 56.674 9.99539 57.1056 9.95205 57.5501L8.44497 72.7501C8.38198 73.3851 8.0693 73.9691 7.57571 74.3736C7.08211 74.7781 6.44807 74.9701 5.81301 74.9071C5.17795 74.8441 4.59387 74.5315 4.18935 74.0379C3.78484 73.5443 3.59304 72.91 3.65603 72.275L5.16299 57.075C5.26709 56.0005 5.58355 54.9573 6.0939 54.0059C6.60424 53.0546 7.29833 52.2141 8.13601 51.533C8.95993 50.8542 9.91031 50.3457 10.9322 50.0367C11.954 49.7277 13.027 49.6244 14.089 49.733L21.445 50.4752C23.6009 50.7023 25.5792 51.7737 26.9472 53.4554C28.3152 55.1371 28.9616 57.2921 28.745 59.4491L24.521 102.039C24.4171 103.114 24.1009 104.157 23.5907 105.108C23.0805 106.059 22.3865 106.9 21.549 107.581C20.1038 108.772 18.2896 109.423 16.417 109.423Z" fill="#F9BD3A"/>
<path d="M30.5361 105.053C30.4551 105.053 30.3741 105.053 30.2911 105.041L22.691 104.275C22.0561 104.211 21.4726 103.897 21.0689 103.403C20.6652 102.909 20.4745 102.274 20.5385 101.639C20.6026 101.004 20.9162 100.421 21.4105 100.017C21.9047 99.6136 22.5391 99.423 23.174 99.487L30.774 100.253C31.3881 100.314 31.955 100.61 32.3576 101.077C32.7602 101.545 32.9676 102.15 32.9371 102.766C32.9065 103.382 32.6403 103.963 32.1934 104.389C31.7466 104.815 31.1532 105.052 30.5361 105.053Z" fill="#F9BD3A"/>
<path d="M68.857 58.4679C63.1106 58.4679 57.4934 56.764 52.7155 53.5715C47.9376 50.379 44.2137 45.8413 42.0147 40.5324C39.8156 35.2235 39.2402 29.3817 40.3612 23.7458C41.4823 18.1099 44.2495 12.9328 48.3128 8.86956C52.376 4.80629 57.5529 2.0392 63.1889 0.918146C68.8248 -0.202909 74.6666 0.372438 79.9755 2.57147C85.2844 4.77049 89.8221 8.49449 93.0145 13.2724C96.207 18.0503 97.911 23.6677 97.911 29.414C97.9026 37.117 94.8388 44.5021 89.392 49.9489C83.9451 55.3958 76.56 58.4595 68.857 58.4679ZM68.857 5.17303C64.0625 5.17303 59.3758 6.5946 55.3894 9.25823C51.403 11.9219 48.2959 15.7079 46.4612 20.1374C44.6265 24.5668 44.1465 29.4407 45.0818 34.143C46.0172 38.8453 48.3259 43.1647 51.7161 46.5549C55.1063 49.945 59.4255 52.2538 64.1278 53.1891C68.8301 54.1245 73.7042 53.6445 78.1337 51.8097C82.5632 49.975 86.3491 46.8679 89.0127 42.8815C91.6764 38.8951 93.098 34.2084 93.098 29.414C93.0906 22.9872 90.5342 16.8256 85.9898 12.2812C81.4453 7.73672 75.2838 5.18044 68.857 5.17303Z" fill="#F9BD3A"/>
<path d="M65.804 43.6499C64.7882 43.6517 63.782 43.4529 62.8433 43.0647C61.9046 42.6765 61.0518 42.1066 60.334 41.3879L53.434 34.488C52.7157 33.7698 52.1459 32.917 51.7572 31.9785C51.3685 31.0401 51.1685 30.0341 51.1685 29.0183C51.1685 28.0025 51.3685 26.9968 51.7572 26.0583C52.1459 25.1199 52.7157 24.2671 53.434 23.5488C54.1522 22.8306 55.0049 22.2608 55.9434 21.8721C56.8818 21.4833 57.8877 21.2834 58.9034 21.2834C59.9192 21.2834 60.9251 21.4833 61.8635 21.8721C62.802 22.2608 63.6547 22.8306 64.3729 23.5488L65.8059 24.981L73.344 17.4429C74.0623 16.7246 74.9149 16.1548 75.8534 15.7661C76.7919 15.3774 77.7977 15.1775 78.8135 15.1775C79.8293 15.1775 80.8351 15.3774 81.7736 15.7661C82.712 16.1548 83.5647 16.7246 84.283 17.4429C85.0012 18.1611 85.571 19.0139 85.9597 19.9524C86.3484 20.8909 86.5485 21.8966 86.5485 22.9124C86.5485 23.9281 86.3484 24.9341 85.9597 25.8726C85.571 26.811 85.0012 27.6636 84.283 28.3818L71.276 41.3889C70.5578 42.1077 69.7047 42.6774 68.7656 43.0654C67.8266 43.4534 66.82 43.6521 65.804 43.6499ZM58.9039 26.094C58.326 26.0941 57.761 26.2655 57.2805 26.5867C56.8 26.9078 56.4256 27.3643 56.2043 27.8982C55.9831 28.4321 55.9251 29.0196 56.0377 29.5864C56.1503 30.1533 56.4284 30.6742 56.8369 31.083L63.7369 37.9829C64.2855 38.5304 65.0289 38.8379 65.804 38.8379C66.579 38.8379 67.3224 38.5304 67.871 37.9829L80.8779 24.9758C81.4089 24.4243 81.7023 23.6865 81.6951 22.9209C81.6878 22.1553 81.3805 21.4232 80.8391 20.8818C80.2977 20.3405 79.5655 20.0332 78.7999 20.0259C78.0344 20.0186 77.2966 20.312 76.745 20.843L67.506 30.082C67.0549 30.5324 66.4434 30.7854 65.8059 30.7854C65.1684 30.7854 64.5571 30.5324 64.106 30.082L60.9719 26.948C60.7007 26.6756 60.3781 26.4596 60.0227 26.313C59.6673 26.1664 59.2864 26.092 58.902 26.094H58.9039Z" fill="#F9BD3A"/>
<path d="M4.86694 86.8511C4.22883 86.8511 3.61686 86.5975 3.16565 86.1462C2.71444 85.695 2.46094 85.0832 2.46094 84.4451C2.46094 83.807 2.71444 83.1949 3.16565 82.7437C3.61686 82.2924 4.22883 82.0391 4.86694 82.0391C5.1829 82.0391 5.49569 82.1013 5.7876 82.2222C6.07951 82.3431 6.34482 82.5202 6.56824 82.7437C6.79166 82.9671 6.96881 83.2323 7.08972 83.5242C7.21063 83.8161 7.27295 84.1291 7.27295 84.4451C7.27295 84.761 7.21063 85.0738 7.08972 85.3657C6.96881 85.6576 6.79166 85.9228 6.56824 86.1462C6.34482 86.3697 6.07951 86.5471 5.7876 86.668C5.49569 86.7889 5.1829 86.8511 4.86694 86.8511Z" fill="#F9BD3A"/>
<path d="M96.135 75.9561C95.4969 75.9561 94.8849 75.7024 94.4337 75.2512C93.9825 74.8 93.729 74.1882 93.729 73.55C93.729 72.9119 93.9825 72.2998 94.4337 71.8486C94.8849 71.3974 95.4969 71.144 96.135 71.144C96.7733 71.144 97.3854 71.3976 97.8367 71.8489C98.288 72.3002 98.5415 72.9123 98.5415 73.5505C98.5415 74.1888 98.288 74.8009 97.8367 75.2522C97.3854 75.7035 96.7733 75.9561 96.135 75.9561Z" fill="#F9BD3A"/>
</svg>
