<svg width="124" height="143" viewBox="0 0 124 143" fill="none" xmlns="http://www.w3.org/2000/svg">
<g id="Group 16">
<path id="Path 69" d="M112.219 96.1686C113.43 94.4763 114.085 92.4497 114.093 90.3688C114.09 87.6806 113.02 85.1033 111.119 83.2026C109.219 81.3018 106.641 80.2326 103.953 80.2297H75.853C79.399 73.1297 85.4 58.0186 79.048 46.8986C76.024 41.6136 69.684 37.4987 62.91 40.9477C55.772 44.5747 57.399 51.8477 58.094 54.9477C59.819 62.6987 54.094 70.8287 41.071 79.1127C38.2994 80.8649 35.1697 81.9721 31.913 82.3527C31.2181 80.3771 29.9296 78.6646 28.2237 77.4496C26.5179 76.2347 24.4782 75.5765 22.384 75.5656H10.725C8.03656 75.5685 5.45911 76.638 3.55812 78.539C1.65713 80.44 0.587873 83.0173 0.584961 85.7057V132.315C0.587873 135.003 1.65713 137.581 3.55812 139.482C5.45911 141.383 8.03656 142.452 10.725 142.455H22.384C24.4987 142.444 26.5572 141.773 28.2725 140.536C29.9877 139.299 31.274 137.558 31.952 135.555C33.6051 135.713 35.2182 136.159 36.719 136.87C37.519 137.249 38.312 137.709 39.08 138.153L39.266 138.261C40.5856 139.065 41.9599 139.776 43.379 140.388L43.411 140.401C46.9673 141.762 50.7431 142.459 54.551 142.458C54.704 142.458 54.858 142.458 55.011 142.458H96.961C98.7157 142.457 100.44 142.001 101.966 141.134C103.492 140.267 104.766 139.019 105.665 137.512C106.564 136.005 107.056 134.29 107.094 132.536C107.131 130.781 106.713 129.047 105.88 127.503C107.136 126.926 108.259 126.098 109.182 125.069C110.104 124.041 110.806 122.834 111.243 121.523C111.68 120.212 111.844 118.826 111.723 117.449C111.603 116.073 111.201 114.736 110.543 113.521C112.148 112.786 113.532 111.642 114.556 110.204C115.58 108.766 116.208 107.084 116.378 105.327C116.548 103.57 116.253 101.799 115.523 100.192C114.793 98.5847 113.654 97.1972 112.219 96.1686ZM86.819 111.341C86.82 112.175 87.152 112.975 87.7422 113.566C88.3323 114.156 89.1324 114.488 89.967 114.489H101.622C102.641 114.489 103.619 114.894 104.34 115.615C105.061 116.336 105.466 117.313 105.466 118.333C105.466 119.352 105.061 120.33 104.34 121.051C103.619 121.772 102.641 122.177 101.622 122.177H89.968C89.1325 122.177 88.3313 122.509 87.7406 123.099C87.1498 123.69 86.818 124.491 86.818 125.327C86.818 126.162 87.1498 126.963 87.7406 127.554C88.3313 128.145 89.1325 128.477 89.968 128.477H96.96C97.9796 128.477 98.9575 128.882 99.6784 129.603C100.399 130.324 100.804 131.302 100.804 132.321C100.804 133.341 100.399 134.319 99.6784 135.04C98.9575 135.761 97.9796 136.166 96.96 136.166H54.993C51.8416 136.224 48.7079 135.681 45.76 134.566C44.6145 134.064 43.5049 133.485 42.439 132.832C41.439 132.249 40.452 131.685 39.423 131.193C37.2486 130.168 34.9118 129.53 32.518 129.309V88.6618C36.763 88.1663 40.8404 86.7142 44.443 84.4147C59.937 74.5657 66.596 64.1908 64.234 53.5778C63.162 48.7778 63.834 47.5347 65.761 46.5597C69.324 44.7417 72.352 47.8828 73.579 50.0248C80.279 61.7538 67.979 81.4936 67.851 81.6906C67.5494 82.1665 67.3811 82.7149 67.3636 83.278C67.346 83.8412 67.48 84.3985 67.7514 84.8923C68.0229 85.386 68.4218 85.7979 68.9067 86.0849C69.3916 86.3719 69.9445 86.5232 70.508 86.5236H103.952C104.972 86.5236 105.949 86.9289 106.67 87.6498C107.391 88.3708 107.796 89.3487 107.796 90.3683C107.796 91.388 107.391 92.3656 106.67 93.0866C105.949 93.8076 104.972 94.2128 103.952 94.2128H89.968C89.1325 94.2128 88.3313 94.5447 87.7406 95.1354C87.1498 95.7262 86.818 96.5273 86.818 97.3627C86.818 98.1982 87.1498 98.9993 87.7406 99.59C88.3313 100.181 89.1325 100.513 89.968 100.513H106.284C107.303 100.513 108.281 100.918 109.002 101.639C109.723 102.359 110.128 103.337 110.128 104.357C110.128 105.376 109.723 106.354 109.002 107.075C108.281 107.796 107.303 108.201 106.284 108.201H89.968C89.1349 108.202 88.3361 108.533 87.7463 109.121C87.1566 109.71 86.8239 110.508 86.821 111.341H86.819ZM26.219 85.7038V132.315C26.2179 133.334 25.8126 134.311 25.092 135.032C24.3713 135.753 23.3942 136.159 22.375 136.16H10.725C9.70622 136.158 8.72988 135.752 8.00989 135.031C7.28991 134.31 6.88502 133.333 6.88396 132.315V85.7006C6.88528 84.6815 7.2907 83.7047 8.01131 82.9841C8.73191 82.2635 9.70888 81.8579 10.728 81.8566H22.381C23.4 81.8585 24.3766 82.2645 25.0967 82.9855C25.8167 83.7065 26.2214 84.6838 26.222 85.7028L26.219 85.7038Z" fill="#F9BD3A"/>
<path id="Path 70" d="M71.325 30.5867C88.92 30.5867 89.172 49.9249 89.174 50.7349C89.1638 51.5685 89.4843 52.3722 90.0653 52.97C90.6463 53.5679 91.4404 53.9112 92.274 53.9249H92.318C93.1472 53.9247 93.9428 53.5972 94.5321 53.0137C95.1213 52.4303 95.4566 51.6381 95.465 50.8089V50.7459C95.465 49.9229 95.665 30.5858 113.317 30.5858C114.152 30.5858 114.952 30.2542 115.543 29.6639C116.133 29.0736 116.464 28.2731 116.464 27.4383C116.464 26.6035 116.133 25.803 115.543 25.2127C114.952 24.6224 114.152 24.2908 113.317 24.2908C95.78 24.2908 95.47 4.94989 95.465 4.14289C95.4752 3.3093 95.1547 2.50564 94.5737 1.90778C93.9927 1.30993 93.1985 0.966641 92.365 0.95295C91.5308 0.941194 90.7262 1.26106 90.1278 1.84235C89.5294 2.42365 89.1864 3.21866 89.174 4.0528L89.633 4.05891H89.174V4.1258C89.174 4.9488 88.974 24.286 71.325 24.286C70.4902 24.286 69.6896 24.6176 69.0994 25.2078C68.5091 25.7981 68.1775 26.5986 68.1775 27.4334C68.1775 28.2682 68.5091 29.0687 69.0994 29.659C69.6896 30.2493 70.4902 30.5809 71.325 30.5809V30.5867ZM83.598 27.4398C87.3779 25.1292 90.4074 21.773 92.32 17.7769C94.2331 21.7727 97.2625 25.1287 101.042 27.4398C97.2625 29.7508 94.2331 33.1071 92.32 37.1029C90.4079 33.1057 87.3784 29.7482 83.598 27.4368V27.4398Z" fill="#F9BD3A"/>
<path id="Path 71" d="M15.386 51.5601C26.099 51.5601 26.222 64.1899 26.222 64.7429C26.2244 65.5761 26.557 66.3745 27.1469 66.9629C27.7368 67.5513 28.5359 67.8818 29.369 67.8821H29.379C30.2134 67.8794 31.0126 67.5454 31.601 66.9539C32.1894 66.3623 32.5189 65.5614 32.517 64.7271C32.517 64.1901 32.64 51.5601 43.354 51.5601C44.1895 51.5601 44.9907 51.2282 45.5814 50.6375C46.1722 50.0467 46.504 49.2453 46.504 48.4099C46.504 47.5745 46.1722 46.7734 45.5814 46.1826C44.9907 45.5919 44.1895 45.26 43.354 45.26C32.641 45.26 32.517 32.63 32.517 32.093V32.0769C32.5147 31.2438 32.182 30.4459 31.5921 29.8577C31.0022 29.2694 30.2031 28.939 29.37 28.939H29.36C28.5261 28.9424 27.7275 29.2762 27.1393 29.8674C26.5511 30.4586 26.2212 31.259 26.222 32.093C26.222 32.631 26.099 45.26 15.386 45.26C14.5515 45.2611 13.7514 45.593 13.1612 46.1831C12.5711 46.7732 12.2391 47.5734 12.238 48.408C12.2378 49.2433 12.5692 50.0447 13.1595 50.6357C13.7498 51.2268 14.5507 51.5593 15.386 51.5601ZM25.306 48.4121C26.9359 47.1502 28.3144 45.5935 29.37 43.823C30.4258 45.5937 31.8047 47.1504 33.435 48.4121C31.8052 49.6747 30.4264 51.2314 29.37 53.002C28.3138 51.2313 26.936 49.6746 25.306 48.4121Z" fill="#F9BD3A"/>
<path id="Path 72" d="M114.092 57.7349V53.074C114.092 52.2385 113.76 51.4372 113.169 50.8464C112.579 50.2557 111.777 49.9238 110.942 49.9238C110.107 49.9238 109.305 50.2557 108.715 50.8464C108.124 51.4372 107.792 52.2385 107.792 53.074V57.7349C107.792 58.5703 108.124 59.3717 108.715 59.9624C109.305 60.5531 110.107 60.885 110.942 60.885C111.777 60.885 112.579 60.5531 113.169 59.9624C113.76 59.3717 114.092 58.5703 114.092 57.7349Z" fill="#F9BD3A"/>
<path id="Path 73" d="M110.944 74.8677C111.779 74.8669 112.579 74.535 113.169 73.9448C113.759 73.3546 114.091 72.5544 114.092 71.7197V67.0588C114.092 66.2234 113.76 65.422 113.169 64.8313C112.579 64.2406 111.777 63.9087 110.942 63.9087C110.107 63.9087 109.305 64.2406 108.715 64.8313C108.124 65.422 107.792 66.2234 107.792 67.0588V71.7197C107.793 72.5551 108.125 73.356 108.716 73.9463C109.307 74.5366 110.109 74.8679 110.944 74.8677Z" fill="#F9BD3A"/>
<path id="Path 74" d="M120.267 59.2485H115.606C114.771 59.2485 113.969 59.5804 113.379 60.1711C112.788 60.7619 112.456 61.563 112.456 62.3984C112.456 63.2339 112.788 64.0352 113.379 64.626C113.969 65.2167 114.771 65.5486 115.606 65.5486H120.267C121.102 65.5486 121.904 65.2167 122.494 64.626C123.085 64.0352 123.417 63.2339 123.417 62.3984C123.417 61.563 123.085 60.7619 122.494 60.1711C121.904 59.5804 121.102 59.2485 120.267 59.2485Z" fill="#F9BD3A"/>
<path id="Path 75" d="M109.434 62.3916C109.433 61.557 109.101 60.7569 108.511 60.1667C107.921 59.5766 107.12 59.2447 106.286 59.2437H101.625C100.789 59.2437 99.9882 59.5755 99.3975 60.1663C98.8067 60.757 98.4749 61.5581 98.4749 62.3936C98.4749 63.229 98.8067 64.0301 99.3975 64.6208C99.9882 65.2116 100.789 65.5435 101.625 65.5435H106.286C107.121 65.5424 107.922 65.2099 108.512 64.6189C109.102 64.0279 109.434 63.2269 109.434 62.3916Z" fill="#F9BD3A"/>
<path id="Path 76" d="M55.123 27.3405C55.7185 27.9096 56.5134 28.2226 57.3371 28.2124C58.1608 28.2021 58.9476 27.8694 59.5288 27.2856C60.1099 26.7018 60.4391 25.9135 60.4457 25.0898C60.4523 24.2661 60.1357 23.4726 59.564 22.8796L56.078 19.3935C55.7883 19.091 55.4412 18.8495 55.0569 18.6828C54.6726 18.5162 54.259 18.4278 53.8402 18.4231C53.4213 18.4183 53.0058 18.4971 52.6178 18.655C52.2298 18.8128 51.8773 19.0464 51.5808 19.3422C51.2843 19.6381 51.0498 19.9903 50.8911 20.3779C50.7323 20.7655 50.6525 21.1807 50.6564 21.5996C50.6602 22.0184 50.7476 22.4322 50.9134 22.8169C51.0792 23.2015 51.3201 23.5492 51.622 23.8396L55.123 27.3405Z" fill="#F9BD3A"/>
<path id="Path 77" d="M44.6249 16.8457L44.6349 16.8557C45.2305 17.4248 46.0253 17.7378 46.849 17.7275C47.6727 17.7173 48.4595 17.3846 49.0407 16.8008C49.6219 16.217 49.951 15.4287 49.9576 14.605C49.9642 13.7813 49.6477 12.9878 49.0759 12.3948L45.5699 8.88867C44.9743 8.31958 44.1795 8.00656 43.3558 8.01685C42.5321 8.02713 41.7453 8.36007 41.1641 8.94385C40.5829 9.52763 40.2538 10.3159 40.2472 11.1396C40.2406 11.9634 40.5571 12.7569 41.1289 13.3499L44.6249 16.8457Z" fill="#F9BD3A"/>
<path id="Path 78" d="M41.129 27.3305C41.7197 27.9198 42.5201 28.2509 43.3545 28.2509C44.1889 28.2509 44.9893 27.9198 45.58 27.3305L49.066 23.8437C49.3711 23.5549 49.6154 23.2078 49.7843 22.8232C49.9533 22.4385 50.0435 22.024 50.0498 21.6039C50.056 21.1839 49.9781 20.7666 49.8206 20.3771C49.6631 19.9876 49.4293 19.6338 49.1328 19.3361C48.8364 19.0384 48.4833 18.8029 48.0945 18.6437C47.7057 18.4846 47.289 18.4049 46.8689 18.4094C46.4488 18.4138 46.0338 18.5023 45.6484 18.6696C45.263 18.8369 44.9151 19.0796 44.625 19.3835L41.125 22.8835C40.5359 23.4743 40.2051 24.2747 40.2051 25.1091C40.2051 25.9434 40.5359 26.7438 41.125 27.3346L41.129 27.3305Z" fill="#F9BD3A"/>
<path id="Path 79" d="M53.842 17.765C54.2555 17.7661 54.6652 17.6852 55.0473 17.527C55.4294 17.3687 55.7763 17.1361 56.068 16.8429L59.554 13.357C59.8568 13.0677 60.0988 12.7208 60.2659 12.3368C60.4329 11.9527 60.5217 11.539 60.5269 11.1202C60.5321 10.7014 60.4537 10.2859 60.2963 9.89781C60.1389 9.50969 59.9056 9.15678 59.6101 8.85996C59.3146 8.56315 58.9629 8.32821 58.5755 8.16905C58.1881 8.00988 57.7728 7.92986 57.354 7.93321C56.9352 7.93655 56.5212 8.02324 56.1364 8.18858C55.7516 8.35391 55.4037 8.59435 55.113 8.89585L51.613 12.3959C51.1731 12.8361 50.8736 13.397 50.7523 14.0074C50.631 14.6178 50.6933 15.2503 50.9314 15.8253C51.1695 16.4003 51.5727 16.892 52.09 17.2379C52.6074 17.5838 53.2156 17.7685 53.838 17.7689L53.842 17.765Z" fill="#F9BD3A"/>
</g>
</svg>
