<svg width="100" height="101" viewBox="0 0 100 101" fill="none" xmlns="http://www.w3.org/2000/svg">
<g id="icon">
<path id="Rectangle 13" d="M0 32.9727C0 24.4857 3.37139 16.3464 9.37256 10.3452C15.3737 4.34405 23.5131 0.972656 32 0.972656H68C76.4869 0.972656 84.6263 4.34405 90.6274 10.3452C96.6286 16.3464 100 24.4857 100 32.9727V68.9727C100 77.4596 96.6286 85.5989 90.6274 91.6001C84.6263 97.6013 76.4869 100.973 68 100.973H32C23.5131 100.973 15.3737 97.6013 9.37256 91.6001C3.37139 85.5989 0 77.4596 0 68.9727V32.9727Z" fill="#062F66"/>
<path id="ic" d="M44.9319 71.9727C44.5632 71.9706 44.2015 71.8725 43.8822 71.6882C43.5629 71.504 43.2971 71.2398 43.1108 70.9216L40.7899 66.9058H36.1669C35.6099 66.9058 35.0758 66.6844 34.682 66.2905C34.2882 65.8967 34.0669 65.3626 34.0669 64.8057V60.1826L30.0509 57.8606C29.8119 57.7231 29.6025 57.5396 29.4348 57.3208C29.2671 57.102 29.1445 56.8522 29.0738 56.5857C28.9291 56.0456 29.0047 55.47 29.2839 54.9856L31.5998 50.9727L29.2789 46.9607C29.0005 46.4774 28.925 45.9034 29.069 45.3645C29.2129 44.8256 29.5645 44.3658 30.0469 44.0857L34.0629 41.7646V37.1416C34.0629 36.5846 34.2841 36.0506 34.678 35.6567C35.0718 35.2629 35.6059 35.0417 36.1628 35.0417H40.7859L43.1069 31.0256C43.245 30.7865 43.4287 30.5769 43.6478 30.4089C43.8669 30.2409 44.117 30.1179 44.3838 30.0466C44.6505 29.9754 44.9288 29.9573 45.2025 29.9937C45.4762 30.03 45.74 30.1201 45.9789 30.2585L49.9999 32.5728L54.0178 30.2537C54.2566 30.1144 54.5208 30.0244 54.7949 29.9888C54.8861 29.9768 54.9779 29.9707 55.0698 29.9707C55.2539 29.9707 55.4373 29.9952 55.6149 30.0437C55.8814 30.115 56.1314 30.2383 56.3503 30.4063C56.5693 30.5742 56.7529 30.7837 56.8909 31.0227L59.2098 35.0366H63.8329C64.1091 35.0357 64.3827 35.0897 64.6379 35.1953C64.8932 35.3009 65.1249 35.4559 65.3198 35.6516C65.7129 36.0468 65.9344 36.5812 65.9359 37.1387V41.7646L69.9519 44.0847C70.1911 44.2227 70.4007 44.4064 70.5688 44.6255C70.737 44.8446 70.8602 45.0946 70.9315 45.3613C71.0029 45.6281 71.0209 45.9064 70.9846 46.1802C70.9483 46.4539 70.8583 46.7176 70.7198 46.9565L68.3989 50.9688L70.7179 54.9817C70.857 55.2212 70.9474 55.4859 70.9838 55.7605C71.0201 56.0351 71.0019 56.314 70.9299 56.5815C70.8588 56.8485 70.7357 57.0988 70.5677 57.3181C70.3998 57.5374 70.1901 57.7215 69.9509 57.8596L65.9349 60.1807V64.8037C65.9349 65.3607 65.7136 65.8947 65.3198 66.2886C64.926 66.6824 64.3918 66.9036 63.8348 66.9036H59.1998L56.8809 70.9197C56.743 71.1587 56.5591 71.368 56.34 71.5356C56.1208 71.7033 55.8707 71.8261 55.6039 71.8967C55.3373 71.9683 55.0592 71.9865 54.7855 71.9504C54.5118 71.9144 54.2479 71.8249 54.0089 71.6868L49.9999 69.3726L45.9879 71.6917C45.6669 71.8769 45.3025 71.9738 44.9319 71.9727ZM41.5869 55.1777C41.6272 56.4566 42.0876 57.6866 42.8968 58.6777C44.1737 60.1529 45.9584 61.0941 47.8968 61.3147V63.5857H52.0969V61.3047C56.4539 60.5717 58.4039 57.6985 58.4039 55.1755C58.4039 52.8205 57.3109 48.8687 49.9939 48.8687C45.7939 48.8687 45.7938 47.5526 45.7938 46.7686C45.7938 45.7496 47.2679 44.6687 49.9939 44.6687C52.4879 44.6687 52.9079 46.0096 52.9369 46.8086L55.0369 46.7708H57.1368C57.1041 45.3399 56.5873 43.9624 55.6709 42.863C54.7545 41.7637 53.4924 41.0075 52.0908 40.7178V38.3857H47.8909V40.6416C43.5329 41.3756 41.5829 44.2488 41.5829 46.7708C41.5829 49.1268 42.6759 53.0776 49.9929 53.0776C54.1929 53.0776 54.1929 54.4977 54.1929 55.1777C54.1929 56.0507 52.8929 57.2776 49.9929 57.2776C48.7381 57.3869 47.4844 57.0552 46.4479 56.3396C46.0842 56.0529 45.8475 55.6349 45.7888 55.1755L41.5869 55.1777Z" fill="#F9BD3A"/>
</g>
</svg>
