<svg width="100" height="101" viewBox="0 0 100 101" fill="none" xmlns="http://www.w3.org/2000/svg">
<path d="M0 32.7852C0 24.2982 3.37139 16.1589 9.37256 10.1577C15.3737 4.15655 23.5131 0.785156 32 0.785156H68C76.4869 0.785156 84.6263 4.15655 90.6274 10.1577C96.6286 16.1589 100 24.2982 100 32.7852V68.7852C100 77.2721 96.6286 85.4114 90.6274 91.4126C84.6263 97.4138 76.4869 100.785 68 100.785H32C23.5131 100.785 15.3737 97.4138 9.37256 91.4126C3.37139 85.4114 0 77.2721 0 68.7852V32.7852Z" fill="#F9BD3A"/>
<path d="M52.9988 40.2852H61.9988C62.3967 40.2852 62.7782 40.1271 63.0595 39.8458C63.3408 39.5645 63.4988 39.183 63.4988 38.7852V29.7852H60.4988V34.3752C56.7322 31.9777 52.2568 30.9455 47.8206 31.451C43.3843 31.9566 39.256 33.9692 36.1252 37.1526C32.9945 40.336 31.051 44.4974 30.6196 48.9414C30.1882 53.3855 31.2949 57.843 33.7548 61.5692L36.2448 59.9042C34.1287 56.7005 33.196 52.8592 33.6074 49.0418C34.0188 45.2245 35.7486 41.6701 38.4988 38.991C41.249 36.3118 44.8475 34.6757 48.6743 34.3643C52.5011 34.0529 56.3167 35.0859 59.4638 37.2852H52.9988V40.2852Z" fill="#062F66"/>
<path d="M66.2438 40L63.7538 41.665C65.8699 44.8686 66.8026 48.71 66.3912 52.5273C65.9798 56.3447 64.25 59.899 61.4998 62.5782C58.7496 65.2573 55.1511 66.8935 51.3243 67.2049C47.4975 67.5162 43.6819 66.4833 40.5348 64.284H46.9998V61.284H37.9998C37.6019 61.284 37.2204 61.442 36.9391 61.7233C36.6578 62.0046 36.4998 62.3862 36.4998 62.784V71.784H39.4998V67.19C43.2661 69.5858 47.7404 70.6168 52.1754 70.111C56.6105 69.6052 60.7377 67.5931 63.8678 64.4107C66.998 61.2283 68.9416 57.0684 69.374 52.6256C69.8064 48.1829 68.7015 43.7262 66.2438 40Z" fill="#062F66"/>
<path d="M45.3201 58.2168V55.3848H48.6561V46.5528H45.8001V44.3688C47.4321 44.0568 48.5121 43.6488 49.5681 42.9768H52.1841V55.3848H55.0401V58.2168H45.3201Z" fill="#062F66"/>
</svg>
