<svg width="167" height="51" viewBox="0 0 167 51" fill="none" xmlns="http://www.w3.org/2000/svg">
<path d="M2.12127 6.03217H6.86204L11.8691 18.2481H12.0822L17.0893 6.03217H21.8301V24.214H18.1014V12.3798H17.9505L13.2452 24.1252H10.7061L6.00089 12.3354H5.84996V24.214H2.12127V6.03217ZM24.9262 24.214V10.5776H28.7082V24.214H24.9262ZM26.8261 8.81981C26.2638 8.81981 25.7815 8.63338 25.379 8.26051C24.9825 7.88172 24.7842 7.42895 24.7842 6.9022C24.7842 6.38137 24.9825 5.93451 25.379 5.56165C25.7815 5.18286 26.2638 4.99346 26.8261 4.99346C27.3883 4.99346 27.8677 5.18286 28.2643 5.56165C28.6668 5.93451 28.868 6.38137 28.868 6.9022C28.868 7.42895 28.6668 7.88172 28.2643 8.26051C27.8677 8.63338 27.3883 8.81981 26.8261 8.81981ZM36.7626 24.4359C35.7269 24.4359 34.7888 24.1696 33.9483 23.6369C33.1138 23.0983 32.4509 22.3082 31.9597 21.2665C31.4744 20.219 31.2317 18.9346 31.2317 17.4136C31.2317 15.8511 31.4833 14.5519 31.9863 13.5162C32.4894 12.4745 33.1582 11.6962 33.9927 11.1813C34.8332 10.6605 35.7535 10.4001 36.7537 10.4001C37.5172 10.4001 38.1535 10.5303 38.6625 10.7907C39.1774 11.0452 39.5917 11.3648 39.9054 11.7495C40.225 12.1283 40.4676 12.5012 40.6333 12.8681H40.7488V6.03217H44.5218V24.214H40.7931V22.03H40.6333C40.4558 22.4088 40.2042 22.7847 39.8787 23.1575C39.5591 23.5245 39.1419 23.8293 38.627 24.0719C38.118 24.3146 37.4965 24.4359 36.7626 24.4359ZM37.9611 21.4263C38.5707 21.4263 39.0856 21.2606 39.5059 20.9292C39.932 20.5918 40.2575 20.1213 40.4824 19.5176C40.7132 18.9139 40.8287 18.2066 40.8287 17.3958C40.8287 16.585 40.7162 15.8807 40.4913 15.2829C40.2664 14.6851 39.9409 14.2235 39.5147 13.8979C39.0886 13.5724 38.5707 13.4097 37.9611 13.4097C37.3397 13.4097 36.8159 13.5783 36.3897 13.9157C35.9636 14.2531 35.641 14.7206 35.4221 15.3184C35.2031 15.9162 35.0936 16.6086 35.0936 17.3958C35.0936 18.1889 35.2031 18.8902 35.4221 19.4999C35.647 20.1035 35.9695 20.577 36.3897 20.9203C36.8159 21.2577 37.3397 21.4263 37.9611 21.4263ZM56.1274 15.2474V18.2481H47.8355V15.2474H56.1274ZM69.2844 11.2612C69.2133 10.5451 68.9085 9.98873 68.3699 9.59218C67.8314 9.19564 67.1004 8.99737 66.1771 8.99737C65.5497 8.99737 65.02 9.08615 64.588 9.2637C64.1559 9.43534 63.8245 9.67504 63.5937 9.98281C63.3688 10.2906 63.2563 10.6398 63.2563 11.0304C63.2445 11.3559 63.3125 11.64 63.4605 11.8827C63.6144 12.1253 63.8245 12.3354 64.0908 12.513C64.3572 12.6846 64.6649 12.8356 65.0141 12.9658C65.3633 13.0901 65.7362 13.1966 66.1327 13.2854L67.7662 13.676C68.5593 13.8535 69.2873 14.0903 69.9502 14.3862C70.6131 14.6821 71.1872 15.0461 71.6725 15.4782C72.1578 15.9102 72.5336 16.4192 72.8 17.0052C73.0722 17.5911 73.2113 18.2629 73.2172 19.0205C73.2113 20.1331 72.9272 21.0979 72.365 21.9146C71.8086 22.7255 71.0037 23.3558 69.9502 23.8056C68.9026 24.2495 67.639 24.4714 66.1594 24.4714C64.6916 24.4714 63.4131 24.2465 62.3241 23.7967C61.241 23.3469 60.3947 22.6811 59.7851 21.7992C59.1814 20.9114 58.8647 19.8135 58.8351 18.5055H62.555C62.5964 19.1151 62.771 19.6241 63.0787 20.0325C63.3924 20.435 63.8097 20.7398 64.3305 20.9469C64.8573 21.1482 65.4521 21.2488 66.115 21.2488C66.766 21.2488 67.3312 21.1541 67.8106 20.9647C68.296 20.7753 68.6718 20.5119 68.9381 20.1746C69.2045 19.8372 69.3376 19.4495 69.3376 19.0116C69.3376 18.6032 69.2163 18.2599 68.9736 17.9817C68.7369 17.7036 68.3877 17.4668 67.926 17.2715C67.4703 17.0762 66.911 16.8986 66.2481 16.7388L64.2684 16.2417C62.7355 15.8688 61.5251 15.2858 60.6373 14.4928C59.7496 13.6997 59.3086 12.6314 59.3145 11.2879C59.3086 10.187 59.6016 9.22523 60.1934 8.40255C60.7912 7.57987 61.6109 6.93771 62.6526 6.47606C63.6943 6.01441 64.878 5.78359 66.2037 5.78359C67.5532 5.78359 68.731 6.01441 69.7371 6.47606C70.7492 6.93771 71.5364 7.57987 72.0986 8.40255C72.6609 9.22523 72.9509 10.1781 72.9687 11.2612H69.2844ZM81.8931 24.4803C80.5141 24.4803 79.3215 24.1874 78.3153 23.6014C77.3151 23.0096 76.5427 22.1869 75.9982 21.1334C75.4537 20.074 75.1815 18.8459 75.1815 17.4491C75.1815 16.0405 75.4537 14.8094 75.9982 13.7559C76.5427 12.6965 77.3151 11.8738 78.3153 11.2879C79.3215 10.696 80.5141 10.4001 81.8931 10.4001C83.2721 10.4001 84.4618 10.696 85.462 11.2879C86.4682 11.8738 87.2435 12.6965 87.788 13.7559C88.3325 14.8094 88.6048 16.0405 88.6048 17.4491C88.6048 18.8459 88.3325 20.074 87.788 21.1334C87.2435 22.1869 86.4682 23.0096 85.462 23.6014C84.4618 24.1874 83.2721 24.4803 81.8931 24.4803ZM81.9109 21.5506C82.5382 21.5506 83.062 21.3731 83.4822 21.018C83.9025 20.6569 84.2191 20.1657 84.4322 19.5442C84.6512 18.9228 84.7607 18.2155 84.7607 17.4224C84.7607 16.6294 84.6512 15.9221 84.4322 15.3006C84.2191 14.6792 83.9025 14.1879 83.4822 13.8269C83.062 13.4659 82.5382 13.2854 81.9109 13.2854C81.2776 13.2854 80.7449 13.4659 80.3129 13.8269C79.8867 14.1879 79.5642 14.6792 79.3452 15.3006C79.1321 15.9221 79.0256 16.6294 79.0256 17.4224C79.0256 18.2155 79.1321 18.9228 79.3452 19.5442C79.5642 20.1657 79.8867 20.6569 80.3129 21.018C80.7449 21.3731 81.2776 21.5506 81.9109 21.5506ZM99.8086 18.4079V10.5776H103.591V24.214H99.9595V21.7371H99.8175C99.5097 22.5361 98.9978 23.1782 98.2816 23.6636C97.5714 24.1489 96.7043 24.3915 95.6804 24.3915C94.7689 24.3915 93.967 24.1844 93.2745 23.7701C92.582 23.3558 92.0405 22.7669 91.6499 22.0034C91.2652 21.2399 91.0698 20.3255 91.0639 19.2602V10.5776H94.8459V18.5854C94.8518 19.3904 95.0678 20.0266 95.494 20.4942C95.9201 20.9617 96.4912 21.1955 97.2074 21.1955C97.6631 21.1955 98.0893 21.0919 98.4858 20.8848C98.8823 20.6717 99.2019 20.358 99.4446 19.9437C99.6932 19.5294 99.8145 19.0175 99.8086 18.4079ZM113.869 10.5776V13.4185H105.657V10.5776H113.869ZM107.521 7.31058H111.303V20.0236C111.303 20.3728 111.356 20.6451 111.463 20.8404C111.57 21.0298 111.717 21.163 111.907 21.2399C112.102 21.3169 112.327 21.3553 112.582 21.3553C112.759 21.3553 112.937 21.3405 113.114 21.3109C113.292 21.2754 113.428 21.2488 113.523 21.231L114.117 24.0453C113.928 24.1045 113.662 24.1726 113.318 24.2495C112.975 24.3324 112.558 24.3827 112.067 24.4004C111.155 24.4359 110.356 24.3146 109.67 24.0364C108.989 23.7583 108.459 23.3262 108.081 22.7403C107.702 22.1543 107.515 21.4145 107.521 20.5208V7.31058ZM120.407 16.3305V24.214H116.625V6.03217H120.301V12.9835H120.461C120.768 12.1786 121.266 11.5483 121.952 11.0925C122.639 10.6309 123.5 10.4001 124.536 10.4001C125.483 10.4001 126.308 10.6072 127.013 11.0215C127.723 11.4299 128.273 12.0188 128.664 12.7882C129.06 13.5517 129.256 14.4661 129.25 15.5315V24.214H125.468V16.2062C125.474 15.3657 125.261 14.7117 124.829 14.2442C124.402 13.7766 123.805 13.5428 123.035 13.5428C122.52 13.5428 122.065 13.6523 121.668 13.8713C121.277 14.0903 120.97 14.4099 120.745 14.8301C120.526 15.2444 120.413 15.7445 120.407 16.3305Z" fill="#447EB2"/>
<path d="M13.0505 30.45H15.2005V45.5H13.0505V30.45ZM4.4075 45.5H2.2575V30.45H4.4075V45.5ZM13.244 38.792H4.1925V36.9215H13.244V38.792ZM26.4993 45.672C25.3526 45.672 24.2848 45.4785 23.2958 45.0915C22.3211 44.7045 21.4754 44.167 20.7588 43.479C20.0421 42.7767 19.4831 41.9597 19.0818 41.028C18.6804 40.0963 18.4798 39.0787 18.4798 37.975C18.4798 36.8713 18.6804 35.8537 19.0818 34.922C19.4831 33.9903 20.0421 33.1805 20.7588 32.4925C21.4754 31.7902 22.3211 31.2455 23.2958 30.8585C24.2704 30.4715 25.3383 30.278 26.4993 30.278C27.6459 30.278 28.6994 30.4715 29.6598 30.8585C30.6344 31.2312 31.4801 31.7687 32.1968 32.471C32.9278 33.159 33.4868 33.9688 33.8738 34.9005C34.2751 35.8322 34.4758 36.857 34.4758 37.975C34.4758 39.093 34.2751 40.1178 33.8738 41.0495C33.4868 41.9812 32.9278 42.7982 32.1968 43.5005C31.4801 44.1885 30.6344 44.726 29.6598 45.113C28.6994 45.4857 27.6459 45.672 26.4993 45.672ZM26.4993 43.7585C27.3306 43.7585 28.0974 43.6152 28.7998 43.3285C29.5164 43.0418 30.1328 42.6405 30.6488 42.1245C31.1791 41.5942 31.5876 40.9778 31.8743 40.2755C32.1753 39.5732 32.3258 38.8063 32.3258 37.975C32.3258 37.1437 32.1753 36.3768 31.8743 35.6745C31.5876 34.9722 31.1791 34.363 30.6488 33.847C30.1328 33.3167 29.5164 32.9082 28.7998 32.6215C28.0974 32.3348 27.3306 32.1915 26.4993 32.1915C25.6536 32.1915 24.8724 32.3348 24.1558 32.6215C23.4534 32.9082 22.8371 33.3167 22.3068 33.847C21.7764 34.363 21.3608 34.9722 21.0598 35.6745C20.7731 36.3768 20.6298 37.1437 20.6298 37.975C20.6298 38.8063 20.7731 39.5732 21.0598 40.2755C21.3608 40.9778 21.7764 41.5942 22.3068 42.1245C22.8371 42.6405 23.4534 43.0418 24.1558 43.3285C24.8724 43.6152 25.6536 43.7585 26.4993 43.7585ZM37.7619 45.5V30.45H39.5249L46.2759 41.8235H45.3299L51.9949 30.45H53.7579L53.7794 45.5H51.7154L51.6939 33.6965H52.1884L46.2544 43.6725H45.2654L39.2884 33.6965H39.8259V45.5H37.7619ZM60.2526 36.943H67.9926V38.7705H60.2526V36.943ZM60.4461 43.6295H69.2181V45.5H58.2961V30.45H68.9171V32.3205H60.4461V43.6295ZM78.4733 45.5V30.45H85.2243C86.9587 30.45 88.2917 30.8012 89.2233 31.5035C90.155 32.1915 90.6208 33.1375 90.6208 34.3415C90.6208 35.1585 90.4345 35.8465 90.0618 36.4055C89.7035 36.9645 89.2162 37.3945 88.5998 37.6955C87.9835 37.9965 87.317 38.147 86.6003 38.147L86.9873 37.502C87.8473 37.502 88.607 37.6525 89.2663 37.9535C89.9257 38.2545 90.4488 38.6988 90.8358 39.2865C91.2228 39.8598 91.4163 40.5765 91.4163 41.4365C91.4163 42.7265 90.929 43.7298 89.9543 44.4465C88.994 45.1488 87.5607 45.5 85.6543 45.5H78.4733ZM80.6233 43.7585H85.5683C86.758 43.7585 87.6682 43.5578 88.2988 43.1565C88.9295 42.7552 89.2448 42.1245 89.2448 41.2645C89.2448 40.3902 88.9295 39.7523 88.2988 39.351C87.6682 38.9497 86.758 38.749 85.5683 38.749H80.4298V37.0075H85.0308C86.1202 37.0075 86.9658 36.8068 87.5678 36.4055C88.1698 36.0042 88.4708 35.4022 88.4708 34.5995C88.4708 33.7968 88.1698 33.1948 87.5678 32.7935C86.9658 32.3922 86.1202 32.1915 85.0308 32.1915H80.6233V43.7585ZM100.98 45.672C99.0023 45.672 97.4471 45.1058 96.3148 43.9735C95.1825 42.8412 94.6163 41.1857 94.6163 39.007V30.45H96.7663V38.921C96.7663 40.598 97.1318 41.8235 97.8628 42.5975C98.6081 43.3715 99.6545 43.7585 101.002 43.7585C102.363 43.7585 103.41 43.3715 104.141 42.5975C104.886 41.8235 105.259 40.598 105.259 38.921V30.45H107.344V39.007C107.344 41.1857 106.778 42.8412 105.646 43.9735C104.528 45.1058 102.973 45.672 100.98 45.672ZM115.176 45.5V39.738L115.67 41.071L109.199 30.45H111.499L116.939 39.4155H115.692L121.153 30.45H123.281L116.831 41.071L117.304 39.738V45.5H115.176ZM127.167 36.943H134.907V38.7705H127.167V36.943ZM127.361 43.6295H136.133V45.5H125.211V30.45H135.832V32.3205H127.361V43.6295ZM139.614 45.5V30.45H145.483C146.802 30.45 147.927 30.6578 148.859 31.0735C149.791 31.4892 150.507 32.0912 151.009 32.8795C151.511 33.6678 151.761 34.6067 151.761 35.696C151.761 36.7853 151.511 37.7242 151.009 38.5125C150.507 39.2865 149.791 39.8813 148.859 40.297C147.927 40.7127 146.802 40.9205 145.483 40.9205H140.796L141.764 39.9315V45.5H139.614ZM149.676 45.5L145.849 40.039H148.149L152.019 45.5H149.676ZM141.764 40.1465L140.796 39.093H145.419C146.795 39.093 147.834 38.7992 148.536 38.2115C149.253 37.6095 149.611 36.771 149.611 35.696C149.611 34.621 149.253 33.7897 148.536 33.202C147.834 32.6143 146.795 32.3205 145.419 32.3205H140.796L141.764 31.2455V40.1465ZM159.621 45.672C158.474 45.672 157.378 45.5 156.332 45.156C155.285 44.7977 154.461 44.339 153.859 43.78L154.655 42.103C155.228 42.6047 155.959 43.0203 156.848 43.35C157.736 43.6797 158.661 43.8445 159.621 43.8445C160.495 43.8445 161.205 43.7442 161.75 43.5435C162.294 43.3428 162.696 43.0705 162.954 42.7265C163.212 42.3682 163.341 41.9668 163.341 41.5225C163.341 41.0065 163.169 40.5908 162.825 40.2755C162.495 39.9602 162.058 39.7093 161.513 39.523C160.983 39.3223 160.395 39.1503 159.75 39.007C159.105 38.8637 158.453 38.6988 157.794 38.5125C157.149 38.3118 156.554 38.061 156.009 37.76C155.479 37.459 155.049 37.0577 154.719 36.556C154.389 36.04 154.225 35.3807 154.225 34.578C154.225 33.804 154.425 33.0945 154.827 32.4495C155.242 31.7902 155.873 31.267 156.719 30.88C157.579 30.4787 158.668 30.278 159.987 30.278C160.861 30.278 161.728 30.3927 162.588 30.622C163.448 30.8513 164.193 31.181 164.824 31.611L164.115 33.331C163.47 32.901 162.789 32.5928 162.072 32.4065C161.355 32.2058 160.66 32.1055 159.987 32.1055C159.141 32.1055 158.446 32.213 157.901 32.428C157.356 32.643 156.955 32.9297 156.697 33.288C156.453 33.6463 156.332 34.0477 156.332 34.492C156.332 35.0223 156.496 35.4452 156.826 35.7605C157.17 36.0758 157.607 36.3267 158.138 36.513C158.682 36.6993 159.277 36.8713 159.922 37.029C160.567 37.1723 161.212 37.3372 161.857 37.5235C162.516 37.7098 163.111 37.9535 163.642 38.2545C164.186 38.5555 164.623 38.9568 164.953 39.4585C165.283 39.9602 165.448 40.6052 165.448 41.3935C165.448 42.1532 165.24 42.8627 164.824 43.522C164.408 44.167 163.763 44.6902 162.889 45.0915C162.029 45.4785 160.94 45.672 159.621 45.672Z" fill="#F9BD3A"/>
<path d="M163.766 12.567L154.116 4.64001C153.524 4.13942 152.774 3.86475 151.999 3.86475C151.224 3.86475 150.474 4.13942 149.882 4.64001L140.232 12.616C139.849 12.9237 139.539 13.3133 139.326 13.7563C139.113 14.1993 139.002 14.6845 139.001 15.176V24.436H140.97V15.176C140.974 14.9786 141.019 14.7842 141.104 14.6058C141.189 14.4275 141.311 14.2693 141.462 14.142L151.112 6.16602C151.368 5.97436 151.678 5.87073 151.998 5.87073C152.317 5.87073 152.628 5.97436 152.884 6.16602L162.534 14.142C162.685 14.2693 162.807 14.4275 162.892 14.6058C162.977 14.7842 163.022 14.9786 163.026 15.176V24.436H164.995V15.126C164.994 14.6348 164.883 14.15 164.671 13.7072C164.458 13.2643 164.149 12.8748 163.766 12.567Z" fill="#062F66" stroke="#062F66"/>
<path d="M151.014 21.8764V15.8115C151.014 15.5335 151.457 15.3065 151.999 15.3065C152.541 15.3065 152.984 15.5335 152.984 15.8115V21.8764C152.984 22.1544 152.541 22.3814 151.999 22.3814C151.457 22.3814 151.014 22.1554 151.014 21.8764Z" fill="#F9BD3A"/>
<path d="M151.998 17.312C153.106 17.312 154.004 16.4139 154.004 15.306C154.004 14.1982 153.106 13.3 151.998 13.3C150.89 13.3 149.992 14.1982 149.992 15.306C149.992 16.4139 150.89 17.312 151.998 17.312Z" fill="#F9BD3A"/>
<path d="M151.998 24.4372C151.799 24.437 151.603 24.3953 151.421 24.3151C151.24 24.2349 151.077 24.1178 150.943 23.9711L148.303 21.0712C148.215 20.9757 148.147 20.8637 148.103 20.7419C148.059 20.6201 148.039 20.4907 148.045 20.3613C148.051 20.2318 148.082 20.1048 148.137 19.9875C148.192 19.8701 148.27 19.7647 148.365 19.6774C148.461 19.5901 148.573 19.5226 148.695 19.4787C148.817 19.4348 148.947 19.4154 149.076 19.4216C149.205 19.4278 149.332 19.4595 149.45 19.5148C149.567 19.5702 149.672 19.648 149.759 19.7441L151.999 22.2021L154.239 19.7441C154.325 19.6445 154.43 19.5634 154.548 19.5051C154.666 19.4468 154.794 19.4126 154.925 19.4047C155.057 19.3968 155.188 19.4154 155.312 19.4592C155.436 19.503 155.55 19.571 155.648 19.6596C155.745 19.7482 155.823 19.8554 155.879 19.9748C155.934 20.0942 155.964 20.2235 155.969 20.3549C155.973 20.4864 155.951 20.6173 155.904 20.7402C155.857 20.863 155.786 20.9751 155.695 21.07L153.055 23.9701C152.921 24.1172 152.758 24.2347 152.576 24.3151C152.394 24.3955 152.197 24.4371 151.998 24.4372Z" fill="#062F66"/>
</svg>
