<svg width="28" height="22" viewBox="0 0 28 22" fill="none" xmlns="http://www.w3.org/2000/svg">
<g id="Group 2">
<g id="Group 4">
<g id="Group 3">
<g id="Group 2_2">
<path id="Path 1" d="M25.766 9.56702L16.116 1.64001C15.5242 1.13942 14.7741 0.864746 13.999 0.864746C13.2239 0.864746 12.4738 1.13942 11.882 1.64001L2.23199 9.61597C1.84865 9.92366 1.53907 10.3133 1.32605 10.7563C1.11303 11.1993 1.00195 11.6845 1.00098 12.176V21.436H2.96997V12.176C2.97358 11.9786 3.01936 11.7842 3.10422 11.6058C3.18907 11.4275 3.31103 11.2693 3.46198 11.142L13.112 3.16602C13.3676 2.97436 13.6785 2.87073 13.998 2.87073C14.3175 2.87073 14.6283 2.97436 14.884 3.16602L24.534 11.142C24.6849 11.2693 24.8069 11.4275 24.8918 11.6058C24.9766 11.7842 25.0224 11.9786 25.026 12.176V21.436H26.995V12.126C26.9941 11.6348 26.8833 11.15 26.6706 10.7072C26.4579 10.2643 26.1488 9.8748 25.766 9.56702Z" fill="#062F66" stroke="#062F66"/>
</g>
</g>
</g>
<g id="Group 10">
<g id="Group 7">
<g id="Group 6">
<g id="Group 5">
<path id="Path 2" d="M13.0139 18.8764V12.8115C13.0139 12.5335 13.4569 12.3065 13.9989 12.3065C14.5409 12.3065 14.9839 12.5335 14.9839 12.8115V18.8764C14.9839 19.1544 14.5409 19.3814 13.9989 19.3814C13.4569 19.3814 13.0139 19.1554 13.0139 18.8764Z" fill="#F9BD3A"/>
</g>
</g>
</g>
<path id="Ellipse 2" d="M13.9979 14.312C15.1058 14.312 16.0039 13.4139 16.0039 12.306C16.0039 11.1982 15.1058 10.3 13.9979 10.3C12.8901 10.3 11.9919 11.1982 11.9919 12.306C11.9919 13.4139 12.8901 14.312 13.9979 14.312Z" fill="#F9BD3A"/>
<g id="Group 9">
<g id="Group 8">
<path id="Path 3" d="M13.9979 21.4372C13.7994 21.437 13.603 21.3953 13.4213 21.3151C13.2397 21.2349 13.0768 21.1178 12.9429 20.9711L10.3029 18.0712C10.2153 17.9757 10.1474 17.8637 10.1032 17.7419C10.0589 17.6201 10.0391 17.4907 10.0449 17.3613C10.0507 17.2318 10.082 17.1048 10.137 16.9875C10.192 16.8701 10.2696 16.7647 10.3654 16.6774C10.4612 16.5901 10.5733 16.5226 10.6952 16.4787C10.8171 16.4348 10.9466 16.4154 11.076 16.4216C11.2055 16.4278 11.3324 16.4595 11.4496 16.5148C11.5668 16.5702 11.6719 16.648 11.7589 16.7441L13.9989 19.2021L16.2389 16.7441C16.3249 16.6445 16.43 16.5634 16.5479 16.5051C16.6658 16.4468 16.7941 16.4126 16.9254 16.4047C17.0567 16.3968 17.1883 16.4154 17.3123 16.4592C17.4364 16.503 17.5503 16.571 17.6476 16.6596C17.7448 16.7482 17.8234 16.8554 17.8786 16.9748C17.9337 17.0942 17.9644 17.2235 17.9688 17.3549C17.9732 17.4864 17.9513 17.6173 17.9042 17.7402C17.8572 17.863 17.786 17.9751 17.6949 18.07L15.0549 20.9701C14.9209 21.1172 14.7576 21.2347 14.5756 21.3151C14.3936 21.3955 14.1969 21.4371 13.9979 21.4372Z" fill="#062F66"/>
</g>
</g>
</g>
</g>
</svg>
