<svg width="167" height="51" viewBox="0 0 167 51" fill="none" xmlns="http://www.w3.org/2000/svg">
<path d="M2.12127 6.03205H6.86204L11.8691 18.248H12.0822L17.0893 6.03205H21.8301V24.2139H18.1014V12.3797H17.9505L13.2452 24.1251H10.7061L6.00089 12.3353H5.84996V24.2139H2.12127V6.03205ZM24.9262 24.2139V10.5775H28.7082V24.2139H24.9262ZM26.8261 8.81969C26.2638 8.81969 25.7815 8.63326 25.379 8.26039C24.9825 7.8816 24.7842 7.42883 24.7842 6.90208C24.7842 6.38124 24.9825 5.93439 25.379 5.56152C25.7815 5.18273 26.2638 4.99334 26.8261 4.99334C27.3883 4.99334 27.8677 5.18273 28.2643 5.56152C28.6668 5.93439 28.868 6.38124 28.868 6.90208C28.868 7.42883 28.6668 7.8816 28.2643 8.26039C27.8677 8.63326 27.3883 8.81969 26.8261 8.81969ZM36.7626 24.4358C35.7269 24.4358 34.7888 24.1695 33.9483 23.6368C33.1138 23.0982 32.4509 22.3081 31.9597 21.2664C31.4744 20.2188 31.2317 18.9345 31.2317 17.4134C31.2317 15.8509 31.4833 14.5518 31.9863 13.5161C32.4894 12.4744 33.1582 11.6961 33.9927 11.1812C34.8332 10.6604 35.7535 10.3999 36.7537 10.3999C37.5172 10.3999 38.1535 10.5302 38.6625 10.7906C39.1774 11.0451 39.5917 11.3647 39.9054 11.7494C40.225 12.1282 40.4676 12.501 40.6333 12.868H40.7488V6.03205H44.5218V24.2139H40.7931V22.0299H40.6333C40.4558 22.4087 40.2042 22.7845 39.8787 23.1574C39.5591 23.5244 39.1419 23.8292 38.627 24.0718C38.118 24.3145 37.4965 24.4358 36.7626 24.4358ZM37.9611 21.4262C38.5707 21.4262 39.0856 21.2605 39.5059 20.9291C39.932 20.5917 40.2575 20.1212 40.4824 19.5175C40.7132 18.9138 40.8287 18.2065 40.8287 17.3957C40.8287 16.5848 40.7162 15.8805 40.4913 15.2828C40.2664 14.685 39.9409 14.2233 39.5147 13.8978C39.0886 13.5723 38.5707 13.4095 37.9611 13.4095C37.3397 13.4095 36.8159 13.5782 36.3897 13.9156C35.9636 14.2529 35.641 14.7205 35.4221 15.3183C35.2031 15.916 35.0936 16.6085 35.0936 17.3957C35.0936 18.1888 35.2031 18.8901 35.4221 19.4997C35.647 20.1034 35.9695 20.5769 36.3897 20.9202C36.8159 21.2575 37.3397 21.4262 37.9611 21.4262ZM56.1274 15.2472V18.248H47.8355V15.2472H56.1274ZM69.2844 11.2611C69.2133 10.545 68.9085 9.98861 68.3699 9.59206C67.8314 9.19552 67.1004 8.99725 66.1771 8.99725C65.5497 8.99725 65.02 9.08603 64.588 9.26358C64.1559 9.43522 63.8245 9.67492 63.5937 9.98269C63.3688 10.2905 63.2563 10.6396 63.2563 11.0303C63.2445 11.3558 63.3125 11.6399 63.4605 11.8825C63.6144 12.1252 63.8245 12.3353 64.0908 12.5129C64.3572 12.6845 64.6649 12.8354 65.0141 12.9656C65.3633 13.0899 65.7362 13.1965 66.1327 13.2852L67.7662 13.6759C68.5593 13.8534 69.2873 14.0902 69.9502 14.3861C70.6131 14.682 71.1872 15.046 71.6725 15.4781C72.1578 15.9101 72.5336 16.4191 72.8 17.0051C73.0722 17.591 73.2113 18.2628 73.2172 19.0203C73.2113 20.133 72.9272 21.0977 72.365 21.9145C71.8086 22.7253 71.0037 23.3557 69.9502 23.8055C68.9026 24.2494 67.639 24.4713 66.1594 24.4713C64.6916 24.4713 63.4131 24.2464 62.3241 23.7966C61.241 23.3468 60.3947 22.681 59.7851 21.7991C59.1814 20.9113 58.8647 19.8134 58.8351 18.5054H62.555C62.5964 19.115 62.771 19.624 63.0787 20.0324C63.3924 20.4349 63.8097 20.7397 64.3305 20.9468C64.8573 21.1481 65.4521 21.2487 66.115 21.2487C66.766 21.2487 67.3312 21.154 67.8106 20.9646C68.296 20.7752 68.6718 20.5118 68.9381 20.1744C69.2045 19.8371 69.3376 19.4494 69.3376 19.0115C69.3376 18.6031 69.2163 18.2598 68.9736 17.9816C68.7369 17.7035 68.3877 17.4667 67.926 17.2714C67.4703 17.0761 66.911 16.8985 66.2481 16.7387L64.2684 16.2416C62.7355 15.8687 61.5251 15.2857 60.6373 14.4926C59.7496 13.6995 59.3086 12.6312 59.3145 11.2877C59.3086 10.1869 59.6016 9.22511 60.1934 8.40243C60.7912 7.57975 61.6109 6.93759 62.6526 6.47594C63.6943 6.01429 64.878 5.78347 66.2037 5.78347C67.5532 5.78347 68.731 6.01429 69.7371 6.47594C70.7492 6.93759 71.5364 7.57975 72.0986 8.40243C72.6609 9.22511 72.9509 10.178 72.9687 11.2611H69.2844ZM81.8931 24.4802C80.5141 24.4802 79.3215 24.1872 78.3153 23.6013C77.3151 23.0094 76.5427 22.1868 75.9982 21.1333C75.4537 20.0738 75.1815 18.8457 75.1815 17.449C75.1815 16.0403 75.4537 14.8093 75.9982 13.7558C76.5427 12.6963 77.3151 11.8737 78.3153 11.2877C79.3215 10.6959 80.5141 10.3999 81.8931 10.3999C83.2721 10.3999 84.4618 10.6959 85.462 11.2877C86.4682 11.8737 87.2435 12.6963 87.788 13.7558C88.3325 14.8093 88.6048 16.0403 88.6048 17.449C88.6048 18.8457 88.3325 20.0738 87.788 21.1333C87.2435 22.1868 86.4682 23.0094 85.462 23.6013C84.4618 24.1872 83.2721 24.4802 81.8931 24.4802ZM81.9109 21.5505C82.5382 21.5505 83.062 21.373 83.4822 21.0178C83.9025 20.6568 84.2191 20.1656 84.4322 19.5441C84.6512 18.9227 84.7607 18.2154 84.7607 17.4223C84.7607 16.6292 84.6512 15.922 84.4322 15.3005C84.2191 14.6791 83.9025 14.1878 83.4822 13.8268C83.062 13.4658 82.5382 13.2852 81.9109 13.2852C81.2776 13.2852 80.7449 13.4658 80.3129 13.8268C79.8867 14.1878 79.5642 14.6791 79.3452 15.3005C79.1321 15.922 79.0256 16.6292 79.0256 17.4223C79.0256 18.2154 79.1321 18.9227 79.3452 19.5441C79.5642 20.1656 79.8867 20.6568 80.3129 21.0178C80.7449 21.373 81.2776 21.5505 81.9109 21.5505ZM99.8086 18.4078V10.5775H103.591V24.2139H99.9595V21.7369H99.8175C99.5097 22.536 98.9978 23.1781 98.2816 23.6634C97.5714 24.1488 96.7043 24.3914 95.6804 24.3914C94.7689 24.3914 93.967 24.1843 93.2745 23.77C92.582 23.3557 92.0405 22.7668 91.6499 22.0033C91.2652 21.2398 91.0698 20.3254 91.0639 19.26V10.5775H94.8459V18.5853C94.8518 19.3902 95.0678 20.0265 95.494 20.4941C95.9201 20.9616 96.4912 21.1954 97.2074 21.1954C97.6631 21.1954 98.0893 21.0918 98.4858 20.8847C98.8823 20.6716 99.2019 20.3579 99.4446 19.9436C99.6932 19.5293 99.8145 19.0174 99.8086 18.4078ZM113.869 10.5775V13.4184H105.657V10.5775H113.869ZM107.521 7.31046H111.303V20.0235C111.303 20.3727 111.356 20.645 111.463 20.8403C111.57 21.0297 111.717 21.1628 111.907 21.2398C112.102 21.3167 112.327 21.3552 112.582 21.3552C112.759 21.3552 112.937 21.3404 113.114 21.3108C113.292 21.2753 113.428 21.2487 113.523 21.2309L114.117 24.0452C113.928 24.1044 113.662 24.1724 113.318 24.2494C112.975 24.3322 112.558 24.3825 112.067 24.4003C111.155 24.4358 110.356 24.3145 109.67 24.0363C108.989 23.7581 108.459 23.3261 108.081 22.7401C107.702 22.1542 107.515 21.4144 107.521 20.5207V7.31046ZM120.407 16.3303V24.2139H116.625V6.03205H120.301V12.9834H120.461C120.768 12.1785 121.266 11.5481 121.952 11.0924C122.639 10.6308 123.5 10.3999 124.536 10.3999C125.483 10.3999 126.308 10.6071 127.013 11.0214C127.723 11.4298 128.273 12.0187 128.664 12.7881C129.06 13.5516 129.256 14.466 129.25 15.5313V24.2139H125.468V16.2061C125.474 15.3656 125.261 14.7116 124.829 14.2441C124.402 13.7765 123.805 13.5427 123.035 13.5427C122.52 13.5427 122.065 13.6522 121.668 13.8712C121.277 14.0902 120.97 14.4098 120.745 14.83C120.526 15.2443 120.413 15.7444 120.407 16.3303Z" fill="white"/>
<path d="M13.0505 30.45H15.2005V45.5H13.0505V38.792H4.4075V45.5H2.2575V30.45H4.4075V36.9215H13.0505V30.45ZM26.4993 45.672C21.8768 45.672 18.4798 42.3825 18.4798 37.975C18.4798 33.5675 21.8768 30.278 26.4993 30.278C31.0788 30.278 34.4758 33.546 34.4758 37.975C34.4758 42.404 31.0788 45.672 26.4993 45.672ZM26.4993 43.7585C29.8318 43.7585 32.3258 41.3075 32.3258 37.975C32.3258 34.6425 29.8318 32.1915 26.4993 32.1915C23.1238 32.1915 20.6298 34.6425 20.6298 37.975C20.6298 41.3075 23.1238 43.7585 26.4993 43.7585ZM53.7794 45.5H51.7154L51.6939 34.535L46.2544 43.6725H45.2654L39.8259 34.5995V45.5H37.7619V30.45H39.5249L45.8029 41.028L51.9949 30.45H53.7579L53.7794 45.5ZM60.4461 43.6295H69.2181V45.5H58.2961V30.45H68.9171V32.3205H60.4461V36.943H67.9926V38.7705H60.4461V43.6295ZM88.5998 37.6955C90.2983 38.1685 91.4163 39.437 91.4163 41.4365C91.4163 44.0165 89.4598 45.5 85.6543 45.5H78.4733V30.45H85.2243C88.6858 30.45 90.6208 31.912 90.6208 34.3415C90.6208 35.9755 89.7823 37.115 88.5998 37.6955ZM85.0308 32.1915H80.6233V37.0075H85.0308C87.2238 37.0075 88.4708 36.1905 88.4708 34.5995C88.4708 33.0085 87.2238 32.1915 85.0308 32.1915ZM85.5683 43.7585C87.9548 43.7585 89.2448 43.006 89.2448 41.2645C89.2448 39.523 87.9548 38.749 85.5683 38.749H80.6233V43.7585H85.5683ZM100.98 45.672C97.0243 45.672 94.6163 43.3715 94.6163 39.007V30.45H96.7663V38.921C96.7663 42.2535 98.2928 43.7585 101.002 43.7585C103.711 43.7585 105.259 42.2535 105.259 38.921V30.45H107.344V39.007C107.344 43.3715 104.958 45.672 100.98 45.672ZM123.281 30.45L117.304 40.297V45.5H115.176V40.254L109.199 30.45H111.499L116.315 38.3835L121.153 30.45H123.281ZM127.361 43.6295H136.133V45.5H125.211V30.45H135.832V32.3205H127.361V36.943H134.907V38.7705H127.361V43.6295ZM152.019 45.5H149.676L146.429 40.8775C146.128 40.899 145.806 40.9205 145.483 40.9205H141.764V45.5H139.614V30.45H145.483C149.396 30.45 151.761 32.428 151.761 35.696C151.761 38.018 150.557 39.695 148.45 40.4475L152.019 45.5ZM145.419 39.093C148.171 39.093 149.611 37.846 149.611 35.696C149.611 33.546 148.171 32.3205 145.419 32.3205H141.764V39.093H145.419ZM159.621 45.672C157.321 45.672 155.063 44.898 153.859 43.78L154.655 42.103C155.773 43.1135 157.686 43.8445 159.621 43.8445C162.223 43.8445 163.341 42.834 163.341 41.5225C163.341 37.846 154.225 40.168 154.225 34.578C154.225 32.256 156.031 30.278 159.987 30.278C161.75 30.278 163.577 30.751 164.824 31.611L164.115 33.331C162.803 32.4925 161.32 32.1055 159.987 32.1055C157.428 32.1055 156.332 33.1805 156.332 34.492C156.332 38.1685 165.448 35.868 165.448 41.3935C165.448 43.694 163.599 45.672 159.621 45.672Z" fill="white"/>
<path d="M163.766 12.5675L154.116 4.6405C153.524 4.1399 152.774 3.86523 151.999 3.86523C151.224 3.86523 150.474 4.1399 149.882 4.6405L140.232 12.6165C139.849 12.9241 139.539 13.3138 139.326 13.7568C139.113 14.1998 139.002 14.685 139.001 15.1765V24.4365H140.97V15.1765C140.974 14.9791 141.019 14.7847 141.104 14.6063C141.189 14.428 141.311 14.2698 141.462 14.1425L151.112 6.1665C151.368 5.97485 151.678 5.87122 151.998 5.87122C152.317 5.87122 152.628 5.97485 152.884 6.1665L162.534 14.1425C162.685 14.2698 162.807 14.428 162.892 14.6063C162.977 14.7847 163.022 14.9791 163.026 15.1765V24.4365H164.995V15.1265C164.994 14.6352 164.883 14.1504 164.671 13.7076C164.458 13.2648 164.149 12.8753 163.766 12.5675Z" fill="white" stroke="white"/>
<path d="M151.014 21.8766V15.8116C151.014 15.5336 151.457 15.3066 151.999 15.3066C152.541 15.3066 152.984 15.5336 152.984 15.8116V21.8766C152.984 22.1546 152.541 22.3816 151.999 22.3816C151.457 22.3816 151.014 22.1556 151.014 21.8766Z" fill="white" stroke="white"/>
<path d="M151.998 17.3128C153.106 17.3128 154.004 16.4147 154.004 15.3068C154.004 14.1989 153.106 13.3008 151.998 13.3008C150.89 13.3008 149.992 14.1989 149.992 15.3068C149.992 16.4147 150.89 17.3128 151.998 17.3128Z" fill="white" stroke="white"/>
<path d="M151.998 24.4376C151.799 24.4374 151.603 24.3957 151.421 24.3155C151.24 24.2353 151.077 24.1182 150.943 23.9715L148.303 21.0716C148.215 20.9761 148.147 20.864 148.103 20.7422C148.059 20.6204 148.039 20.4911 148.045 20.3616C148.051 20.2322 148.082 20.1052 148.137 19.9878C148.192 19.8705 148.27 19.7651 148.365 19.6778C148.461 19.5905 148.573 19.523 148.695 19.4791C148.817 19.4352 148.947 19.4157 149.076 19.4219C149.205 19.4281 149.332 19.4598 149.45 19.5152C149.567 19.5705 149.672 19.6484 149.759 19.7444L151.999 22.2024L154.239 19.7444C154.325 19.6449 154.43 19.5637 154.548 19.5054C154.666 19.4471 154.794 19.413 154.925 19.4051C155.057 19.3972 155.188 19.4157 155.312 19.4595C155.436 19.5033 155.55 19.5714 155.648 19.66C155.745 19.7485 155.823 19.8557 155.879 19.9752C155.934 20.0946 155.964 20.2238 155.969 20.3553C155.973 20.4867 155.951 20.6177 155.904 20.7405C155.857 20.8634 155.786 20.9755 155.695 21.0704L153.055 23.9705C152.921 24.1176 152.758 24.2351 152.576 24.3155C152.394 24.3959 152.197 24.4375 151.998 24.4376Z" fill="white" stroke="white"/>
</svg>
