<svg width="84" height="80" viewBox="0 0 84 80" fill="none" xmlns="http://www.w3.org/2000/svg">
<mask id="mask0_1_3230" style="mask-type:luminance" maskUnits="userSpaceOnUse" x="0" y="0" width="84" height="80">
<path d="M83.165 0H0V79.5H83.165V0Z" fill="white"/>
</mask>
<g mask="url(#mask0_1_3230)">
<path d="M45.2906 2.30498L54.9375 21.851C55.2342 22.4521 55.6726 22.9721 56.2149 23.3662C56.7572 23.7602 57.3872 24.0165 58.0505 24.113L79.6206 27.247C80.3838 27.3582 81.1008 27.6807 81.6904 28.178C82.28 28.6753 82.7188 29.3276 82.9571 30.0612C83.1954 30.7948 83.2238 31.5804 83.039 32.3293C82.8543 33.0782 82.4637 33.7604 81.9116 34.299L66.2996 49.514C65.8195 49.982 65.4605 50.5596 65.2533 51.1972C65.0462 51.8348 64.9972 52.5132 65.1105 53.174L68.7996 74.657C68.93 75.4175 68.8451 76.1993 68.5544 76.9141C68.2637 77.6288 67.7787 78.248 67.1545 78.7015C66.5302 79.155 65.7915 79.4248 65.0219 79.4804C64.2523 79.536 63.4825 79.3751 62.7995 79.016L43.5065 68.873C42.9132 68.5611 42.2529 68.3981 41.5826 68.3981C40.9122 68.3981 40.2519 68.5611 39.6586 68.873L20.3655 79.016C19.6826 79.3751 18.9128 79.536 18.1432 79.4804C17.3736 79.4248 16.6349 79.155 16.0106 78.7015C15.3863 78.248 14.9014 77.6288 14.6107 76.9141C14.32 76.1993 14.2351 75.4175 14.3655 74.657L18.0505 53.174C18.1639 52.5132 18.1149 51.8348 17.9078 51.1972C17.7006 50.5596 17.3416 49.982 16.8615 49.514L1.25255 34.299C0.700047 33.7604 0.309258 33.078 0.124373 32.3289C-0.0605128 31.5798 -0.0321188 30.7939 0.206344 30.0601C0.444806 29.3263 0.883824 28.6738 1.47375 28.1765C2.06368 27.6792 2.78098 27.3569 3.54455 27.246L25.1145 24.112C25.7779 24.0155 26.4079 23.7592 26.9502 23.3652C27.4925 22.9711 27.9309 22.4511 28.2275 21.85L37.8745 2.30498C38.216 1.61309 38.7443 1.03055 39.3995 0.62321C40.0548 0.215873 40.811 0 41.5826 0C42.3541 0 43.1103 0.215873 43.7656 0.62321C44.4208 1.03055 44.9491 1.61309 45.2906 2.30498Z" fill="#F9BD3A"/>
</g>
</svg>
