<svg width="91" height="75" viewBox="0 0 91 75" fill="none" xmlns="http://www.w3.org/2000/svg">
<path id="Vector" d="M49.7589 49.96C46.9359 26.712 63.3769 8.33487 80.1229 0.317871L88.6509 12.3428C77.5509 17.8928 68.9599 30.8428 70.7389 41.0168C75.0329 40.0308 82.3939 40.6478 86.2579 45.4578C88.8074 48.8207 90.1277 52.9557 89.9989 57.1738C89.9989 62.4158 88.3429 66.6099 84.9079 69.6929C81.319 72.8292 76.6714 74.483 71.9079 74.3188C59.9409 74.3188 51.5369 64.637 49.7589 49.96ZM0.315928 49.96C-2.50107 26.713 13.9989 8.33585 30.7419 0.318848L39.2689 12.3438C28.1689 17.8938 19.5769 30.8438 21.3569 41.0178C25.6509 40.0318 33.0729 40.6487 36.8759 45.4587C39.4257 48.8216 40.7464 52.9566 40.6179 57.1748C40.6179 62.4168 38.9619 66.6108 35.5259 69.6938C31.9371 72.8305 27.2894 74.4843 22.5259 74.3198C10.5599 74.3188 2.09893 64.637 0.315928 49.96Z" fill="#062F66"/>
</svg>
