<svg width="73" height="60" viewBox="0 0 73 60" fill="none" xmlns="http://www.w3.org/2000/svg">
<path d="M39.808 40.4202C37.55 21.8852 50.703 7.23306 64.099 0.841064L70.9211 10.429C62.0381 14.854 55.1681 25.179 56.5911 33.291C60.0261 32.504 65.915 32.997 69.006 36.832C71.0448 39.5106 72.1015 42.8084 71.999 46.1731C71.999 50.3521 70.674 53.6961 67.926 56.1541C65.0514 58.6558 61.3346 59.9738 57.5261 59.842C47.9541 59.841 41.23 52.1222 39.808 40.4202ZM0.254047 40.4202C-1.99995 21.8852 11.2 7.23306 24.594 0.841064L31.416 10.429C22.533 14.854 15.662 25.179 17.086 33.291C20.521 32.504 26.459 32.997 29.502 36.832C31.5408 39.5106 32.5975 42.8084 32.495 46.1731C32.495 50.3521 31.17 53.6961 28.422 56.1541C25.5475 58.656 21.8307 59.974 18.0221 59.842C8.44905 59.841 1.67605 52.1222 0.254047 40.4202Z" fill="#447EB2"/>
</svg>
